# This file is brought to you by Roblox Corporation
# Generated by Roblox Studio

mtllib advanced satchul.mtl

g Meshpart1

v 0.185634 0.777263 -0.00516716 
v 0.0389752 0.493639 -0.0514821 
v 0.0389752 0.687037 0.0459909 
v 0.185634 0.543263 -0.123103 
v 0.185634 0.777263 -0.00516716 
v 0.0389752 0.595554 0.114303 
v 0.114978 0.595554 0.114303 
v 0.185634 -0.130254 -0.0245521 
v 0.0389752 -0.172511 0.123551 
v 0.0389752 -0.0630148 0.0299689 
v 0.185634 -0.262737 0.0886749 
v 0.114978 0.595554 0.114303 
v 0.0389752 0.461058 0.0441549 
v 0.0389752 0.595554 0.114303 
v 0.114978 0.461058 0.0441549 
v 0.0389752 -0.0384958 0.108546 
v 0.114978 -0.0384958 0.108546 
v 0.185634 0.543263 -0.123103 
v 0.0389752 -0.0630148 0.0299689 
v 0.0389752 0.493639 -0.0514821 
v 0.185634 -0.130254 -0.0245521 
v 0.114978 0.461058 0.0441549 
v 0.0389752 -0.0384958 0.108546 
v 0.0389752 0.461058 0.0441549 
v 0.114978 -0.0384958 0.108546 
v 0.0389752 0.636725 0.0868139 
v 0.0389752 0.483702 0.00567085 
v 0.0389752 -0.117016 0.163953 
v 0.0911722 0.0712402 0.333305 
v 0.107634 0.331814 0.455691 
v 0.107634 0.0712402 0.366192 
v 0.0911722 0.331814 0.455691 
v 0.0911722 0.0712402 0.366192 
v 0.0389752 0.331814 0.455691 
v 0.0389752 0.0712402 0.366192 
v 0.0911722 0.331814 0.455691 
v 0.0911722 0.42606 0.384339 
v 0.107634 0.42606 0.384339 
v 0.107634 0.331814 0.455691 
v 0.0389752 0.331814 0.455691 
v 0.0389752 0.42606 0.384339 
v 0.0389752 -0.0495508 0.505869 
v 0.0389752 0.483702 0.573675 
v 0.0911722 0.483702 0.573675 
v 0.0911722 -0.0495508 0.505869 
v 0.0911722 -0.0495508 0.505869 
v 0.0389752 -0.117016 0.415393 
v 0.0911722 -0.154444 0.427965 
v 0.0389752 0.483702 0.573675 
v 0.0389752 0.636725 0.492532 
v 0.0911722 0.636725 0.492532 
v 0.0911722 0.483702 0.573675 
v 0.185634 0.777263 -0.00516716 
v 0.0389752 0.687037 0.533355 
v 0.185634 0.777263 0.584513 
v 0.0389752 0.687037 0.0459909 
v 0.0389752 0.595554 0.114303 
v 0.0389752 0.595554 0.465043 
v 0.114978 0.595554 0.465043 
v 0.114978 0.595554 0.114303 
v 0.0389752 0.636725 0.0868139 
v 0.0389752 0.636725 0.492532 
v 0.107634 0.0712402 0.246041 
v 0.107634 0.0712402 0.213154 
v 0.0911722 0.0712402 0.246041 
v 0.0911722 0.0712402 0.213154 
v 0.0389752 0.0712402 0.246041 
v 0.0389752 0.0712402 0.213154 
v 0.0389752 0.0712402 0.333305 
v 0.0911722 0.0712402 0.333305 
v 0.0389752 0.0712402 0.366192 
v 0.107634 0.0712402 0.333305 
v 0.0911722 0.0712402 0.366192 
v 0.107634 0.0712402 0.366192 
v 0.0911722 -0.154444 0.427965 
v 0.0911722 -0.154444 0.151381 
v 0.0389752 -0.117016 0.415393 
v 0.0389752 -0.117016 0.163953 
v 0.0389752 -0.0495508 0.0734769 
v 0.0389752 -0.117016 0.163953 
v 0.0911722 -0.0495508 0.0734769 
v 0.0911722 -0.0495508 0.505869 
v 0.0389752 -0.117016 0.415393 
v 0.0389752 -0.0495508 0.505869 
v 0.185634 0.777263 -0.00516716 
v 0.0389752 0.687037 0.533355 
v 0.185634 0.777263 0.584513 
v 0.185634 0.543263 0.702449 
v 0.185634 0.543263 -0.123103 
v 0.0389752 0.595554 0.465043 
v 0.185634 -0.262737 0.490671 
v 0.185634 -0.262737 0.0886749 
v 0.185634 -0.130254 -0.0245521 
v 0.185634 -0.130254 0.603898 
v 0.114978 0.461058 0.0441549 
v 0.0389752 -0.0800338 0.405533 
v 0.185634 -0.130254 -0.0245521 
v 0.185634 -0.130254 0.603898 
v 0.185634 -0.262737 0.0886749 
v 0.185634 -0.262737 0.490671 
v 0.185634 0.543263 -0.123103 
v 0.185634 0.543263 0.702449 
v 0.185634 0.777263 0.584513 
v 0.185634 0.777263 -0.00516716 
v 0.0389752 0.687037 0.533355 
v 0.185634 0.777263 0.584513 
v 0.185634 0.543263 0.702449 
v 0.0389752 0.687037 0.533355 
v 0.0389752 0.493639 0.630828 
v 0.185634 0.777263 0.584513 
v 0.0389752 0.595554 0.465043 
v 0.114978 0.595554 0.465043 
v 0.185634 -0.130254 0.603898 
v 0.0389752 -0.0630148 0.549377 
v 0.0389752 -0.172511 0.455795 
v 0.185634 -0.262737 0.490671 
v 0.0389752 0.595554 0.465043 
v 0.0389752 0.461058 0.535191 
v 0.114978 0.461058 0.535191 
v 0.114978 0.595554 0.465043 
v 0.114978 -0.0800338 0.405533 
v 0.114978 -0.0384958 0.4708 
v 0.0389752 -0.0630148 0.549377 
v 0.185634 0.543263 0.702449 
v 0.0389752 0.493639 0.630828 
v 0.185634 -0.130254 0.603898 
v 0.0389752 0.461058 0.535191 
v 0.0389752 -0.0384958 0.4708 
v 0.114978 -0.0384958 0.4708 
v 0.114978 0.461058 0.535191 
v 0.0389752 0.636725 0.492532 
v 0.0389752 0.483702 0.573675 
v 0.0389752 -0.0495508 0.505869 
v 0.0389752 -0.117016 0.415393 
v 0.0911722 0.0712402 0.366192 
v 0.0911722 0.483702 0.573675 
v 0.107634 0.0712402 0.213154 
v 0.107634 0.331814 0.123655 
v 0.0911722 0.0712402 0.213154 
v 0.0911722 0.331814 0.123655 
v 0.0389752 0.331814 0.123655 
v 0.0389752 0.0712402 0.213154 
v 0.107634 0.331814 0.123655 
v 0.107634 0.42606 0.195007 
v 0.0911722 0.331814 0.123655 
v 0.0911722 0.42606 0.195007 
v 0.0389752 0.42606 0.195007 
v 0.0389752 0.331814 0.123655 
v 0.0911722 -0.0495508 0.0734769 
v 0.0911722 0.483702 0.00567085 
v 0.0389752 -0.0495508 0.0734769 
v 0.0389752 0.483702 0.00567085 
v 0.0389752 -0.117016 0.163953 
v 0.0911722 -0.0495508 0.0734769 
v 0.0911722 -0.154444 0.151381 
v 0.0911722 0.483702 0.00567085 
v 0.0911722 0.636725 0.0868139 
v 0.0389752 0.483702 0.00567085 
v 0.0389752 0.636725 0.0868139 
v 0.185634 -0.262737 0.490671 
v 0.0389752 -0.172511 0.123551 
v 0.185634 -0.262737 0.0886749 
v 0.0389752 -0.172511 0.455795 
v 0.185634 -0.130254 -0.0245521 
v 0.0389752 -0.0630148 0.0299689 
v 0.185634 -0.130254 0.603898 
v 0.0389752 -0.0630148 0.549377 
v 0.0389752 -0.0384958 0.108546 
v 0.114978 -0.0384958 0.108546 
v 0.0389752 -0.0800338 0.173813 
v 0.114978 -0.0800338 0.173813 
v 0.114978 -0.0800338 0.405533 
v 0.0389752 -0.0384958 0.4708 
v 0.0389752 -0.0800338 0.405533 
v 0.114978 -0.0384958 0.4708 
v 0.0389752 -0.0800338 0.405533 
v 0.0389752 -0.0800338 0.173813 
v 0.114978 -0.0800338 0.173813 
v 0.114978 -0.0800338 0.405533 
v 0.0389752 -0.117016 0.415393 
v 0.0389752 -0.117016 0.163953 
v 0.0911722 -0.154444 0.427965 
v 0.0911722 -0.154444 0.151381 
v 0.107634 0.42606 0.195007 
v 0.107634 0.42606 0.384339 
v 0.0911722 0.42606 0.195007 
v 0.0911722 0.42606 0.384339 
v 0.0389752 0.42606 0.384339 
v 0.0389752 0.42606 0.195007 
v 0.0389752 0.636725 0.492532 
v 0.0389752 0.636725 0.0868139 
v 0.0911722 0.636725 0.0868139 
v 0.0911722 0.636725 0.492532 
v 0.185634 0.777263 -0.00516716 
v 0.0389752 0.687037 0.533355 
v 0.0389752 0.493639 0.630828 
v 0.185634 0.543263 -0.123103 
v 0.0389752 0.595554 0.114303 
v 0.0389752 0.595554 0.465043 
v 0.185634 -0.262737 0.490671 
v 0.185634 -0.262737 0.0886749 
v 0.185634 -0.130254 -0.0245521 
v 0.0389752 -0.0630148 0.0299689 
v 0.185634 -0.130254 0.603898 
v 0.0389752 -0.0630148 0.549377 
v 0.0389752 0.461058 0.0441549 
v 0.114978 0.461058 0.0441549 
v 0.0389752 -0.0384958 0.108546 
v 0.114978 -0.0800338 0.405533 
v 0.0389752 -0.0384958 0.4708 
v 0.0389752 -0.0800338 0.405533 
v 0.114978 -0.0384958 0.4708 
v 0.0389752 -0.0384958 0.4708 
v 0.0389752 0.331814 0.455691 
v 0.0389752 0.0712402 0.366192 
v 0.0389752 0.461058 0.535191 
v 0.0389752 -0.0800338 0.405533 
v 0.0389752 0.42606 0.384339 
v 0.0389752 0.0712402 0.333305 
v 0.0389752 0.595554 0.465043 
v 0.0389752 0.0712402 0.246041 
v 0.0389752 0.595554 0.114303 
v 0.0389752 -0.0800338 0.173813 
v 0.0389752 0.42606 0.195007 
v 0.0389752 0.0712402 0.213154 
v 0.0389752 0.461058 0.0441549 
v 0.0389752 -0.0384958 0.108546 
v 0.0389752 0.331814 0.123655 
v 0.0389752 0.687037 0.533355 
v 0.0389752 0.636725 0.0868139 
v 0.0389752 0.636725 0.492532 
v 0.0389752 0.687037 0.0459909 
v 0.0389752 0.493639 0.630828 
v 0.0389752 0.493639 -0.0514821 
v 0.0389752 0.483702 0.573675 
v 0.0389752 0.483702 0.00567085 
v 0.0389752 -0.0630148 0.549377 
v 0.0389752 -0.0630148 0.0299689 
v 0.0389752 -0.0495508 0.505869 
v 0.0389752 -0.0495508 0.0734769 
v 0.0389752 -0.172511 0.455795 
v 0.0389752 -0.172511 0.123551 
v 0.0389752 -0.117016 0.415393 
v 0.0389752 -0.117016 0.163953 
v 0.0911722 -0.0495508 0.505869 
v 0.0911722 0.331814 0.455691 
v 0.0911722 0.0712402 0.366192 
v 0.0911722 0.483702 0.573675 
v 0.0911722 -0.154444 0.427965 
v 0.0911722 0.42606 0.384339 
v 0.0911722 0.0712402 0.333305 
v 0.0911722 0.636725 0.492532 
v 0.0911722 -0.154444 0.151381 
v 0.0911722 0.42606 0.195007 
v 0.0911722 0.0712402 0.246041 
v 0.0911722 0.636725 0.0868139 
v 0.0911722 0.0712402 0.213154 
v 0.0911722 0.483702 0.00567085 
v 0.0911722 -0.0495508 0.0734769 
v 0.0911722 0.331814 0.123655 
v 0.107634 0.331814 0.455691 
v 0.107634 0.0712402 0.333305 
v 0.107634 0.0712402 0.366192 
v 0.107634 0.0712402 0.246041 
v 0.107634 0.331814 0.123655 
v 0.107634 0.0712402 0.213154 
v 0.107634 0.42606 0.195007 
v 0.107634 0.42606 0.384339 

vn -0.527559 0.850394 0 
vn -0.503937 0.385827 -0.771654 
vn -0.503937 0.385827 -0.771654 
vn -0.503937 0.385827 -0.771654 
vn -0.503937 0.385827 -0.771654 
vn 0 1 0 
vn 0 1 0 
vn -0.503937 -0.559055 -0.653543 
vn -0.503937 -0.559055 -0.653543 
vn -0.503937 -0.559055 -0.653543 
vn -0.503937 -0.559055 -0.653543 
vn 0 0.464567 -0.889764 
vn 0 0.464567 -0.889764 
vn 0 0.464567 -0.889764 
vn 0 0.464567 -0.889764 
vn 0 -0.84252 -0.535433 
vn 0 -0.84252 -0.535433 
vn -0.401575 -0.133858 -0.905512 
vn -0.401575 -0.133858 -0.905512 
vn -0.401575 -0.133858 -0.905512 
vn -0.401575 -0.133858 -0.905512 
vn 0 -0.125984 -0.992126 
vn 0 -0.125984 -0.992126 
vn 0 -0.125984 -0.992126 
vn 0 -0.125984 -0.992126 
vn -1 0 0 
vn -1 0 0 
vn -1 0 0 
vn -1 0 0 
vn 0 0.322835 -0.944882 
vn 0 0.322835 -0.944882 
vn 0 0.322835 -0.944882 
vn 0 0.322835 -0.944882 
vn 0 0.322835 -0.944882 
vn 0 0.322835 -0.944882 
vn 0 -0.606299 -0.795276 
vn 0 -0.606299 -0.795276 
vn 0 -0.606299 -0.795276 
vn 0 -0.606299 -0.795276 
vn 0 -0.606299 -0.795276 
vn 0 -0.606299 -0.795276 
vn 0 0.125984 -0.992126 
vn 0 0.125984 -0.992126 
vn 0 0.125984 -0.992126 
vn 0 0.125984 -0.992126 
vn 0.322835 0.661417 -0.677165 
vn 0.322835 0.661417 -0.677165 
vn 0.322835 0.661417 -0.677165 
vn 0 -0.464567 -0.88189 
vn 0 -0.464567 -0.88189 
vn 0 -0.464567 -0.88189 
vn 0 -0.464567 -0.88189 
vn -0.527559 0.850394 0 
vn -0.527559 0.850394 0 
vn -0.527559 0.850394 0 
vn -0.527559 0.850394 0 
vn 0 1 0 
vn 0 1 0 
vn 0 1 0 
vn 0 1 0 
vn -1 0 0 
vn -1 0 0 
vn 0 1 0 
vn 0 1 0 
vn 0 1 0 
vn 0 1 0 
vn 0 1 0 
vn 0 1 0 
vn 0 1 0 
vn 0 1 0 
vn 0 1 0 
vn 0 1 0 
vn 0 1 0 
vn 0 1 0 
vn 0.582677 0.811024 0 
vn 0.582677 0.811024 0 
vn 0.582677 0.811024 0 
vn 0.582677 0.811024 0 
vn 0.322835 0.661417 0.677165 
vn 0.322835 0.661417 0.677165 
vn 0.322835 0.661417 0.677165 
vn 0.322835 0.661417 -0.677165 
vn 0.322835 0.661417 -0.677165 
vn 0.322835 0.661417 -0.677165 
vn -0.527559 0.850394 0 
vn -0.527559 0.850394 0 
vn -0.527559 0.850394 0 
vn -0.503937 0.385827 0.771654 
vn -0.503937 0.385827 -0.771654 
vn 0 1 0 
vn -0.527559 -0.850394 0 
vn -0.527559 -0.850394 0 
vn -0.503937 -0.559055 -0.653543 
vn -0.503937 -0.559055 0.661417 
vn 0 0.464567 -0.889764 
vn 0 -0.84252 0.535433 
vn 1 0 0 
vn 1 0 0 
vn 1 0 0 
vn 1 0 0 
vn 1 0 0 
vn 1 0 0 
vn 1 0 0 
vn 1 0 0 
vn -0.527559 0.850394 0 
vn -0.527559 0.850394 0 
vn -0.503937 0.385827 0.771654 
vn -0.503937 0.385827 0.771654 
vn -0.503937 0.385827 0.771654 
vn -0.503937 0.385827 0.771654 
vn 0 1 0 
vn 0 1 0 
vn -0.503937 -0.559055 0.661417 
vn -0.503937 -0.559055 0.661417 
vn -0.503937 -0.559055 0.661417 
vn -0.503937 -0.559055 0.661417 
vn 0 0.464567 0.889764 
vn 0 0.464567 0.889764 
vn 0 0.464567 0.889764 
vn 0 0.464567 0.889764 
vn 0 -0.84252 0.535433 
vn 0 -0.84252 0.535433 
vn -0.401575 -0.133858 0.905512 
vn -0.401575 -0.133858 0.905512 
vn -0.401575 -0.133858 0.905512 
vn -0.401575 -0.133858 0.905512 
vn 0 -0.125984 0.992126 
vn 0 -0.125984 0.992126 
vn 0 -0.125984 0.992126 
vn 0 -0.125984 0.992126 
vn -1 0 0 
vn -1 0 0 
vn -1 0 0 
vn -1 0 0 
vn -1 0 0 
vn -1 0 0 
vn 0 0.322835 0.944882 
vn 0 0.322835 0.944882 
vn 0 0.322835 0.944882 
vn 0 0.322835 0.944882 
vn 0 0.322835 0.944882 
vn 0 0.322835 0.944882 
vn 0 -0.606299 0.795276 
vn 0 -0.606299 0.795276 
vn 0 -0.606299 0.795276 
vn 0 -0.606299 0.795276 
vn 0 -0.606299 0.795276 
vn 0 -0.606299 0.795276 
vn 0 0.125984 0.992126 
vn 0 0.125984 0.992126 
vn 0 0.125984 0.992126 
vn 0 0.125984 0.992126 
vn 0.322835 0.661417 0.677165 
vn 0.322835 0.661417 0.677165 
vn 0.322835 0.661417 0.677165 
vn 0 -0.464567 0.88189 
vn 0 -0.464567 0.88189 
vn 0 -0.464567 0.88189 
vn 0 -0.464567 0.88189 
vn -0.527559 -0.850394 0 
vn -0.527559 -0.850394 0 
vn -0.527559 -0.850394 0 
vn -0.527559 -0.850394 0 
vn -0.503937 -0.559055 -0.653543 
vn -0.503937 -0.559055 -0.653543 
vn -0.503937 -0.559055 0.661417 
vn -0.503937 -0.559055 0.661417 
vn 0 -0.84252 -0.535433 
vn 0 -0.84252 -0.535433 
vn 0 -0.84252 -0.535433 
vn 0 -0.84252 -0.535433 
vn 0 -0.84252 0.535433 
vn 0 -0.84252 0.535433 
vn 0 -0.84252 0.535433 
vn 0 -0.84252 0.535433 
vn 0 -1 0 
vn 0 -1 0 
vn 0 -1 0 
vn 0 -1 0 
vn -1 0 0 
vn -1 0 0 
vn -1 0 0 
vn -1 0 0 
vn 0 -1 0 
vn 0 -1 0 
vn 0 -1 0 
vn 0 -1 0 
vn 0 -1 0 
vn 0 -1 0 
vn 0 -1 0 
vn 0 -1 0 
vn 0 -1 0 
vn 0 -1 0 
vn -0.527559 0.850394 0 
vn -0.527559 0.850394 0 
vn -0.503937 0.385827 0.771654 
vn -0.503937 0.385827 -0.771654 
vn 0 1 0 
vn 0 1 0 
vn -0.527559 -0.850394 0 
vn -0.527559 -0.850394 0 
vn -0.503937 -0.559055 -0.653543 
vn -0.503937 -0.559055 -0.653543 
vn -0.503937 -0.559055 0.661417 
vn -0.503937 -0.559055 0.661417 
vn 0 0.464567 -0.889764 
vn 0 0.464567 -0.889764 
vn 0 -0.84252 -0.535433 
vn 0 -0.84252 0.535433 
vn 0 -0.84252 0.535433 
vn 0 -0.84252 0.535433 
vn 0 -0.84252 0.535433 
vn -1 0 0 
vn -1 0 0 
vn -1 0 0 
vn -1 0 0 
vn -1 0 0 
vn -1 0 0 
vn -1 0 0 
vn -1 0 0 
vn -1 0 0 
vn -1 0 0 
vn -1 0 0 
vn -1 0 0 
vn -1 0 0 
vn -1 0 0 
vn -1 0 0 
vn -1 0 0 
vn -1 0 0 
vn -1 0 0 
vn -1 0 0 
vn -1 0 0 
vn -1 0 0 
vn -1 0 0 
vn -1 0 0 
vn -1 0 0 
vn -1 0 0 
vn -1 0 0 
vn -1 0 0 
vn -1 0 0 
vn -1 0 0 
vn -1 0 0 
vn -1 0 0 
vn -1 0 0 
vn -1 0 0 
vn -1 0 0 
vn -1 0 0 
vn -1 0 0 
vn -1 0 0 
vn -1 0 0 
vn -1 0 0 
vn -1 0 0 
vn -1 0 0 
vn -1 0 0 
vn -1 0 0 
vn -1 0 0 
vn -1 0 0 
vn -1 0 0 
vn -1 0 0 
vn -1 0 0 
vn -1 0 0 
vn -1 0 0 
vn -1 0 0 
vn -1 0 0 
vn -1 0 0 
vn -1 0 0 
vn -1 0 0 
vn -1 0 0 

vt 43.9267 -40.48 
vt 44.0733 -40.7636 
vt 44.0733 -40.5702 
vt 43.9267 -40.714 
vt 43.9267 -40.48 
vt 44.0733 -40.6617 
vt 43.9973 -40.6617 
vt 43.9267 -41.3875 
vt 44.0733 -41.4298 
vt 44.0733 -41.3203 
vt 43.9267 -41.52 
vt 43.9973 -40.6617 
vt 44.0733 -40.7962 
vt 44.0733 -40.6617 
vt 43.9973 -40.7962 
vt 44.0733 -41.2958 
vt 43.9973 -41.2958 
vt 43.9267 -40.714 
vt 44.0733 -41.3203 
vt 44.0733 -40.7636 
vt 43.9267 -41.3875 
vt 43.9973 -40.7962 
vt 44.0733 -41.2958 
vt 44.0733 -40.7962 
vt 43.9973 -41.2958 
vt 44.0733 -40.6205 
vt 44.0733 -40.7736 
vt 44.0733 -41.3743 
vt 44.0211 -41.186 
vt 44.0047 -40.9254 
vt 44.0047 -41.186 
vt 44.0211 -40.9254 
vt 44.0211 -41.186 
vt 44.0733 -40.9254 
vt 44.0733 -41.186 
vt 44.0211 -40.9254 
vt 44.0211 -40.8312 
vt 44.0047 -40.8312 
vt 44.0047 -40.9254 
vt 44.0733 -40.9254 
vt 44.0733 -40.8312 
vt 44.0733 -41.3068 
vt 44.0733 -40.7736 
vt 44.0211 -40.7736 
vt 44.0211 -41.3068 
vt 44.0211 -41.3068 
vt 44.0733 -41.3743 
vt 44.0211 -41.4117 
vt 44.0733 -40.7736 
vt 44.0733 -40.6205 
vt 44.0211 -40.6205 
vt 44.0211 -40.7736 
vt 43.7052 -40.9267 
vt 44.2437 -41.0733 
vt 44.2948 -40.9267 
vt 43.7563 -41.0733 
vt 43.8246 -41.0733 
vt 44.1754 -41.0733 
vt 44.1754 -40.9973 
vt 43.8246 -40.9973 
vt 43.7971 -41.0733 
vt 44.2029 -41.0733 
vt 43.9564 -41.0047 
vt 43.9235 -41.0047 
vt 43.9564 -41.0211 
vt 43.9235 -41.0211 
vt 43.9564 -41.0733 
vt 43.9235 -41.0733 
vt 44.0436 -41.0733 
vt 44.0436 -41.0211 
vt 44.0765 -41.0733 
vt 44.0436 -41.0047 
vt 44.0765 -41.0211 
vt 44.0765 -41.0047 
vt 44.1383 -41.0211 
vt 43.8617 -41.0211 
vt 44.1257 -41.0733 
vt 43.8743 -41.0733 
vt 43.7838 -41.0733 
vt 43.8743 -41.0733 
vt 43.7838 -41.0211 
vt 44.2162 -41.0211 
vt 44.1257 -41.0733 
vt 44.2162 -41.0733 
vt 44.2948 -40.48 
vt 43.7563 -40.5702 
vt 43.7052 -40.48 
vt 43.5872 -40.714 
vt 44.4128 -40.714 
vt 43.8246 -40.6617 
vt 43.799 -41.52 
vt 44.201 -41.52 
vt 44.3142 -41.3875 
vt 43.6858 -41.3875 
vt 44.2455 -40.7962 
vt 43.8841 -41.3373 
vt 44.3142 -41.3875 
vt 43.6858 -41.3875 
vt 44.201 -41.52 
vt 43.799 -41.52 
vt 44.4128 -40.714 
vt 43.5872 -40.714 
vt 43.7052 -40.48 
vt 44.2948 -40.48 
vt 43.9267 -40.5702 
vt 44.0733 -40.48 
vt 44.0733 -40.714 
vt 43.9267 -40.5702 
vt 43.9267 -40.7636 
vt 44.0733 -40.48 
vt 43.9267 -40.6617 
vt 44.0027 -40.6617 
vt 44.0733 -41.3875 
vt 43.9267 -41.3203 
vt 43.9267 -41.4298 
vt 44.0733 -41.52 
vt 43.9267 -40.6617 
vt 43.9267 -40.7962 
vt 44.0027 -40.7962 
vt 44.0027 -40.6617 
vt 44.0027 -41.3373 
vt 44.0027 -41.2958 
vt 43.9267 -41.3203 
vt 44.0733 -40.714 
vt 43.9267 -40.7636 
vt 44.0733 -41.3875 
vt 43.9267 -40.7962 
vt 43.9267 -41.2958 
vt 44.0027 -41.2958 
vt 44.0027 -40.7962 
vt 43.9267 -40.6205 
vt 43.9267 -40.7736 
vt 43.9267 -41.3068 
vt 43.9267 -41.3743 
vt 43.9789 -41.186 
vt 43.9789 -40.7736 
vt 43.9953 -41.186 
vt 43.9953 -40.9254 
vt 43.9789 -41.186 
vt 43.9789 -40.9254 
vt 43.9267 -40.9254 
vt 43.9267 -41.186 
vt 43.9953 -40.9254 
vt 43.9953 -40.8312 
vt 43.9789 -40.9254 
vt 43.9789 -40.8312 
vt 43.9267 -40.8312 
vt 43.9267 -40.9254 
vt 43.9789 -41.3068 
vt 43.9789 -40.7736 
vt 43.9267 -41.3068 
vt 43.9267 -40.7736 
vt 43.9267 -41.3743 
vt 43.9789 -41.3068 
vt 43.9789 -41.4117 
vt 43.9789 -40.7736 
vt 43.9789 -40.6205 
vt 43.9267 -40.7736 
vt 43.9267 -40.6205 
vt 43.799 -40.9267 
vt 44.1661 -41.0733 
vt 44.201 -40.9267 
vt 43.8339 -41.0733 
vt 44.3142 -40.9267 
vt 44.2597 -41.0733 
vt 43.6858 -40.9267 
vt 43.7403 -41.0733 
vt 44.1811 -41.0733 
vt 44.1811 -40.9973 
vt 44.1159 -41.0733 
vt 44.1159 -40.9973 
vt 43.8841 -40.9973 
vt 43.8189 -41.0733 
vt 43.8841 -41.0733 
vt 43.8189 -40.9973 
vt 43.8841 -41.0733 
vt 44.1159 -41.0733 
vt 44.1159 -40.9973 
vt 43.8841 -40.9973 
vt 43.8743 -41.0733 
vt 44.1257 -41.0733 
vt 43.8617 -41.0211 
vt 44.1383 -41.0211 
vt 44.0947 -41.0047 
vt 43.9053 -41.0047 
vt 44.0947 -41.0211 
vt 43.9053 -41.0211 
vt 43.9053 -41.0733 
vt 44.0947 -41.0733 
vt 43.7971 -41.0733 
vt 44.2029 -41.0733 
vt 44.2029 -41.0211 
vt 43.7971 -41.0211 
vt 43.7052 -40.48 
vt 44.2437 -40.5702 
vt 44.3412 -40.7636 
vt 43.5872 -40.714 
vt 43.8246 -40.6617 
vt 44.1754 -40.6617 
vt 44.201 -41.52 
vt 43.799 -41.52 
vt 43.6858 -41.3875 
vt 43.7403 -41.3203 
vt 44.3142 -41.3875 
vt 44.2597 -41.3203 
vt 43.7545 -40.7962 
vt 43.7545 -40.7962 
vt 43.8189 -41.2958 
vt 44.1159 -41.3373 
vt 44.1811 -41.2958 
vt 44.1159 -41.3373 
vt 44.1811 -41.2958 
vt 44.1811 -41.2958 
vt 44.166 -40.9254 
vt 44.0765 -41.186 
vt 44.2455 -40.7962 
vt 44.1159 -41.3373 
vt 44.0947 -40.8312 
vt 44.0436 -41.186 
vt 44.1754 -40.6617 
vt 43.9564 -41.186 
vt 43.8246 -40.6617 
vt 43.8841 -41.3373 
vt 43.9053 -40.8312 
vt 43.9235 -41.186 
vt 43.7545 -40.7962 
vt 43.8189 -41.2958 
vt 43.834 -40.9254 
vt 44.2437 -40.5702 
vt 43.7971 -40.6205 
vt 44.2029 -40.6205 
vt 43.7563 -40.5702 
vt 44.3412 -40.7636 
vt 43.6588 -40.7636 
vt 44.284 -40.7736 
vt 43.716 -40.7736 
vt 44.2597 -41.3203 
vt 43.7403 -41.3203 
vt 44.2162 -41.3068 
vt 43.7838 -41.3068 
vt 44.1661 -41.4298 
vt 43.8339 -41.4298 
vt 44.1257 -41.3743 
vt 43.8743 -41.3743 
vt 44.2162 -41.3068 
vt 44.166 -40.9254 
vt 44.0765 -41.186 
vt 44.284 -40.7736 
vt 44.1383 -41.4117 
vt 44.0947 -40.8312 
vt 44.0436 -41.186 
vt 44.2029 -40.6205 
vt 43.8617 -41.4117 
vt 43.9053 -40.8312 
vt 43.9564 -41.186 
vt 43.7971 -40.6205 
vt 43.9235 -41.186 
vt 43.716 -40.7736 
vt 43.7838 -41.3068 
vt 43.834 -40.9254 
vt 44.166 -40.9254 
vt 44.0436 -41.186 
vt 44.0765 -41.186 
vt 43.9564 -41.186 
vt 43.834 -40.9254 
vt 43.9235 -41.186 
vt 43.9053 -40.8312 
vt 44.0947 -40.8312 

usemtl Meshpart1Mtl

f 2/2/2 3/3/3 4/4/4 
f 3/3/3 5/5/5 4/4/4 
f 8/8/8 9/9/9 10/10/10 
f 9/9/9 8/8/8 11/11/11 
f 12/12/12 13/13/13 14/14/14 
f 13/13/13 12/12/12 15/15/15 
f 18/18/18 19/19/19 20/20/20 
f 19/19/19 18/18/18 21/21/21 
f 22/22/22 23/23/23 24/24/24 
f 23/23/23 22/22/22 25/25/25 
f 30/30/30 31/31/31 32/32/32 
f 33/33/33 32/32/32 31/31/31 
f 33/33/33 34/34/34 32/32/32 
f 34/34/34 33/33/33 35/35/35 
f 36/36/36 37/37/37 38/38/38 
f 36/36/36 38/38/38 39/39/39 
f 40/40/40 37/37/37 36/36/36 
f 40/40/40 41/41/41 37/37/37 
f 42/42/42 43/43/43 44/44/44 
f 42/42/42 44/44/44 45/45/45 
f 47/47/47 46/46/46 48/48/48 
f 49/49/49 50/50/50 51/51/51 
f 49/49/49 51/51/51 52/52/52 
f 53/53/53 54/54/54 55/55/55 
f 54/54/54 53/53/53 56/56/56 
f 57/57/57 58/58/58 59/59/59 
f 57/57/57 59/59/59 60/60/60 
f 63/63/63 64/64/64 65/65/65 
f 66/66/66 65/65/65 64/64/64 
f 66/66/66 67/67/67 65/65/65 
f 67/67/67 66/66/66 68/68/68 
f 69/69/69 65/65/65 67/67/67 
f 65/65/65 70/70/70 63/63/63 
f 65/65/65 69/69/69 70/70/70 
f 71/71/71 70/70/70 69/69/69 
f 72/72/72 63/63/63 70/70/70 
f 70/70/70 71/71/71 73/73/73 
f 70/70/70 73/73/73 72/72/72 
f 74/74/74 72/72/72 73/73/73 
f 75/75/75 76/76/76 77/77/77 
f 77/77/77 76/76/76 78/78/78 
f 79/79/79 80/80/80 81/81/81 
f 82/82/82 83/83/83 84/84/84 
f 97/97/97 98/98/98 99/99/99 
f 99/99/99 98/98/98 100/100/100 
f 101/101/101 98/98/98 97/97/97 
f 101/101/101 102/102/102 98/98/98 
f 102/102/102 101/101/101 103/103/103 
f 103/103/103 101/101/101 104/104/104 
f 107/107/107 108/108/108 109/109/109 
f 108/108/108 107/107/107 110/110/110 
f 113/113/113 114/114/114 115/115/115 
f 115/115/115 116/116/116 113/113/113 
f 117/117/117 118/118/118 119/119/119 
f 117/117/117 119/119/119 120/120/120 
f 123/123/123 124/124/124 125/125/125 
f 124/124/124 123/123/123 126/126/126 
f 127/127/127 128/128/128 129/129/129 
f 127/127/127 129/129/129 130/130/130 
f 137/137/137 138/138/138 139/139/139 
f 140/140/140 139/139/139 138/138/138 
f 141/141/141 139/139/139 140/140/140 
f 141/141/141 142/142/142 139/139/139 
f 143/143/143 144/144/144 145/145/145 
f 146/146/146 145/145/145 144/144/144 
f 147/147/147 145/145/145 146/146/146 
f 147/147/147 148/148/148 145/145/145 
f 149/149/149 150/150/150 151/151/151 
f 152/152/152 151/151/151 150/150/150 
f 153/153/153 155/155/155 154/154/154 
f 156/156/156 157/157/157 158/158/158 
f 159/159/159 158/158/158 157/157/157 
f 160/160/160 161/161/161 162/162/162 
f 161/161/161 160/160/160 163/163/163 
f 168/168/168 169/169/169 170/170/170 
f 170/170/170 169/169/169 171/171/171 
f 172/172/172 173/173/173 174/174/174 
f 173/173/173 172/172/172 175/175/175 
f 176/176/176 177/177/177 178/178/178 
f 176/176/176 178/178/178 179/179/179 
f 184/184/184 185/185/185 186/186/186 
f 187/187/187 186/186/186 185/185/185 
f 188/188/188 186/186/186 187/187/187 
f 188/188/188 189/189/189 186/186/186 
f 190/190/190 191/191/191 192/192/192 
f 190/190/190 192/192/192 193/193/193 
f 213/213/213 214/214/214 215/215/215 
f 214/214/214 213/213/213 216/216/216 
f 215/215/215 217/217/217 213/213/213 
f 216/216/216 218/218/218 214/214/214 
f 219/219/219 217/217/217 215/215/215 
f 218/218/218 216/216/216 220/220/220 
f 217/217/217 219/219/219 221/221/221 
f 222/222/222 218/218/218 220/220/220 
f 221/221/221 223/223/223 217/217/217 
f 218/218/218 222/222/222 224/224/224 
f 225/225/225 223/223/223 221/221/221 
f 226/226/226 224/224/224 222/222/222 
f 223/223/223 225/225/225 227/227/227 
f 224/224/224 226/226/226 228/228/228 
f 228/228/228 227/227/227 225/225/225 
f 227/227/227 228/228/228 226/226/226 
f 229/229/229 230/230/230 231/231/231 
f 230/230/230 229/229/229 232/232/232 
f 231/231/231 233/233/233 229/229/229 
f 234/234/234 230/230/230 232/232/232 
f 231/231/231 235/235/235 233/233/233 
f 230/230/230 234/234/234 236/236/236 
f 235/235/235 237/237/237 233/233/233 
f 238/238/238 236/236/236 234/234/234 
f 237/237/237 235/235/235 239/239/239 
f 236/236/236 238/238/238 240/240/240 
f 239/239/239 241/241/241 237/237/237 
f 242/242/242 240/240/240 238/238/238 
f 241/241/241 239/239/239 243/243/243 
f 243/243/243 242/242/242 241/241/241 
f 240/240/240 242/242/242 244/244/244 
f 242/242/242 243/243/243 244/244/244 
f 245/245/245 246/246/246 247/247/247 
f 246/246/246 245/245/245 248/248/248 
f 247/247/247 249/249/249 245/245/245 
f 248/248/248 250/250/250 246/246/246 
f 251/251/251 249/249/249 247/247/247 
f 252/252/252 250/250/250 248/248/248 
f 249/249/249 251/251/251 253/253/253 
f 250/250/250 252/252/252 254/254/254 
f 255/255/255 253/253/253 251/251/251 
f 252/252/252 256/256/256 254/254/254 
f 257/257/257 253/253/253 255/255/255 
f 258/258/258 254/254/254 256/256/256 
f 253/253/253 257/257/257 259/259/259 
f 254/254/254 258/258/258 260/260/260 
f 260/260/260 259/259/259 257/257/257 
f 258/258/258 259/259/259 260/260/260 
f 261/261/261 262/262/262 263/263/263 
f 261/261/261 264/264/264 262/262/262 
f 261/261/261 265/265/265 264/264/264 
f 264/264/264 265/265/265 266/266/266 
f 265/265/265 261/261/261 267/267/267 
f 267/267/267 261/261/261 268/268/268 

g Meshpart2

v 0.0784852 0.66897 0.0868139 
v 0.0525732 0.483702 0.00567085 
v 0.0525732 0.66897 0.0868139 
v 0.0784851 0.483702 0.00567085 
v 0.0525732 -0.154444 0.151381 
v 0.0525732 -0.0495508 0.0734769 
v 0.0784852 -0.0495508 0.0734769 
v 0.0784852 -0.154444 0.151381 
v 0.0525732 -0.0495508 0.0734769 
v 0.0525732 0.483702 0.00567085 
v 0.0784851 0.483702 0.00567085 
v 0.0784852 -0.0495508 0.0734769 
v 0.0296692 -0.0607438 0.230027 
v 0.0296692 0.0585482 0.289673 
v 0.0425012 0.0585482 0.289673 
v 0.0425012 -0.0607438 0.230027 
v 0.0296692 0.57527 0.230027 
v 0.0425012 0.455978 0.289673 
v 0.0296692 0.455978 0.289673 
v 0.0425012 0.57527 0.230027 
v 0.0525732 0.66897 0.0868139 
v 0.0525732 0.66897 0.492532 
v 0.0784852 0.66897 0.492532 
v 0.0784852 0.66897 0.0868139 
v 0.0296692 0.57527 0.230027 
v 0.0296692 0.57527 0.349319 
v 0.0425012 0.57527 0.349319 
v 0.0425012 0.57527 0.230027 
v 0.0784852 -0.0495508 0.505869 
v 0.0784852 -0.0495508 0.0734769 
v 0.0784852 0.483702 0.573675 
v 0.0784852 -0.154444 0.151381 
v 0.0784852 -0.154444 0.427965 
v 0.0784851 0.483702 0.00567085 
v 0.0784852 0.66897 0.0868139 
v 0.0784852 0.66897 0.492532 
v 0.0525732 0.66897 0.492532 
v 0.0525732 0.483702 0.573675 
v 0.0784852 0.483702 0.573675 
v 0.0784852 0.66897 0.492532 
v 0.0525732 -0.0495508 0.505869 
v 0.0525732 -0.154444 0.427965 
v 0.0784852 -0.154444 0.427965 
v 0.0784852 -0.0495508 0.505869 
v 0.0525732 0.483702 0.573675 
v 0.0525732 -0.0495508 0.505869 
v 0.0784852 -0.0495508 0.505869 
v 0.0784852 0.483702 0.573675 
v 0.0296692 0.0585482 0.289673 
v 0.0296692 -0.0607438 0.349319 
v 0.0425012 -0.0607438 0.349319 
v 0.0425012 0.0585482 0.289673 
v 0.0296692 0.455978 0.289673 
v 0.0425012 0.57527 0.349319 
v 0.0296692 0.57527 0.349319 
v 0.0425012 0.455978 0.289673 
v 0.0525732 -0.154444 0.427965 
v 0.0525732 -0.154444 0.151381 
v 0.0784852 -0.154444 0.151381 
v 0.0784852 -0.154444 0.427965 
v 0.0296692 -0.0607438 0.349319 
v 0.0296692 -0.0607438 0.230027 
v 0.0425012 -0.0607438 0.230027 
v 0.0425012 -0.0607438 0.349319 
v 0.0296692 0.455978 0.289673 
v 0.0296692 0.57527 0.349319 
v 0.0296692 0.57527 0.230027 
v 0.0296692 0.0585482 0.289673 
v 0.0296692 -0.0607438 0.230027 
v 0.0296692 -0.0607438 0.349319 
v 0.0525732 0.66897 0.0868139 
v 0.0525732 0.483702 0.573675 
v 0.0525732 0.66897 0.492532 
v 0.0525732 0.483702 0.00567085 
v 0.0525732 -0.0495508 0.505869 
v 0.0525732 -0.0495508 0.0734769 
v 0.0525732 -0.154444 0.151381 
v 0.0525732 -0.154444 0.427965 

vn 0 0.401575 -0.913386 
vn 0 0.401575 -0.913386 
vn 0 0.401575 -0.913386 
vn 0 0.401575 -0.913386 
vn 0 -0.598425 -0.80315 
vn 0 -0.598425 -0.80315 
vn 0 -0.598425 -0.80315 
vn 0 -0.598425 -0.80315 
vn 0 -0.125984 -0.992126 
vn 0 -0.125984 -0.992126 
vn 0 -0.125984 -0.992126 
vn 0 -0.125984 -0.992126 
vn 0 0.448819 -0.897638 
vn 0 0.448819 -0.897638 
vn 0 0.448819 -0.897638 
vn 0 0.448819 -0.897638 
vn 0 -0.448819 -0.897638 
vn 0 -0.448819 -0.897638 
vn 0 -0.448819 -0.897638 
vn 0 -0.448819 -0.897638 
vn 0 1 0 
vn 0 1 0 
vn 0 1 0 
vn 0 1 0 
vn 0 1 0 
vn 0 1 0 
vn 0 1 0 
vn 0 1 0 
vn 1 0 0 
vn 1 0 0 
vn 1 0 0 
vn 1 0 0 
vn 1 0 0 
vn 1 0 0 
vn 1 0 0 
vn 1 0 0 
vn 0 0.401575 0.913386 
vn 0 0.401575 0.913386 
vn 0 0.401575 0.913386 
vn 0 0.401575 0.913386 
vn 0 -0.598425 0.80315 
vn 0 -0.598425 0.80315 
vn 0 -0.598425 0.80315 
vn 0 -0.598425 0.80315 
vn 0 -0.125984 0.992126 
vn 0 -0.125984 0.992126 
vn 0 -0.125984 0.992126 
vn 0 -0.125984 0.992126 
vn 0 0.448819 0.897638 
vn 0 0.448819 0.897638 
vn 0 0.448819 0.897638 
vn 0 0.448819 0.897638 
vn 0 -0.448819 0.897638 
vn 0 -0.448819 0.897638 
vn 0 -0.448819 0.897638 
vn 0 -0.448819 0.897638 
vn 0 -1 0 
vn 0 -1 0 
vn 0 -1 0 
vn 0 -1 0 
vn 0 -1 0 
vn 0 -1 0 
vn 0 -1 0 
vn 0 -1 0 
vn -1 0 0 
vn -1 0 0 
vn -1 0 0 
vn -1 0 0 
vn -1 0 0 
vn -1 0 0 
vn -1 0 0 
vn -1 0 0 
vn -1 0 0 
vn -1 0 0 
vn -1 0 0 
vn -1 0 0 
vn -1 0 0 
vn -1 0 0 

vt 0.652132 1.72724 
vt 0.678044 1.54198 
vt 0.678044 1.72724 
vt 0.652132 1.54198 
vt 0.678044 0.90383 
vt 0.678044 1.00872 
vt 0.652132 1.00872 
vt 0.652132 0.90383 
vt 0.678044 1.00872 
vt 0.678044 1.54198 
vt 0.652132 1.54198 
vt 0.652132 1.00872 
vt 0.700948 0.99753 
vt 0.700948 1.11682 
vt 0.688116 1.11682 
vt 0.688116 0.99753 
vt 0.700948 1.63354 
vt 0.688116 1.51425 
vt 0.700948 1.51425 
vt 0.688116 1.63354 
vt 0.473681 1.31403 
vt 0.879399 1.31403 
vt 0.879399 1.33994 
vt 0.473681 1.33994 
vt 0.616894 1.29113 
vt 0.736186 1.29113 
vt 0.736186 1.30396 
vt 0.616894 1.30396 
vt 0.460344 1.00872 
vt 0.892736 1.00872 
vt 0.392538 1.54198 
vt 0.814832 0.90383 
vt 0.538248 0.90383 
vt 0.960542 1.54198 
vt 0.879399 1.72724 
vt 0.473681 1.72724 
vt 0.675036 1.72724 
vt 0.675036 1.54198 
vt 0.700948 1.54198 
vt 0.700948 1.72724 
vt 0.675036 1.00872 
vt 0.675036 0.90383 
vt 0.700948 0.90383 
vt 0.700948 1.00872 
vt 0.675036 1.54198 
vt 0.675036 1.00872 
vt 0.700948 1.00872 
vt 0.700948 1.54198 
vt 0.652132 1.11682 
vt 0.652132 0.99753 
vt 0.664964 0.99753 
vt 0.664964 1.11682 
vt 0.652132 1.51425 
vt 0.664964 1.63354 
vt 0.652132 1.63354 
vt 0.664964 1.51425 
vt 0.538248 1.31403 
vt 0.814832 1.31403 
vt 0.814832 1.33994 
vt 0.538248 1.33994 
vt 0.616894 1.29113 
vt 0.736186 1.29113 
vt 0.736186 1.30396 
vt 0.616894 1.30396 
vt 0.67654 1.51425 
vt 0.736186 1.63354 
vt 0.616894 1.63354 
vt 0.67654 1.11682 
vt 0.616894 0.99753 
vt 0.736186 0.99753 
vt 0.473681 1.72724 
vt 0.960542 1.54198 
vt 0.879399 1.72724 
vt 0.392538 1.54198 
vt 0.892736 1.00872 
vt 0.460344 1.00872 
vt 0.538248 0.90383 
vt 0.814832 0.90383 

usemtl Meshpart2Mtl

f 269/269/269 270/270/270 271/271/271 
f 270/270/270 269/269/269 272/272/272 
f 273/273/273 274/274/274 275/275/275 
f 273/273/273 275/275/275 276/276/276 
f 277/277/277 278/278/278 279/279/279 
f 277/277/277 279/279/279 280/280/280 
f 281/281/281 282/282/282 283/283/283 
f 281/281/281 283/283/283 284/284/284 
f 285/285/285 286/286/286 287/287/287 
f 286/286/286 285/285/285 288/288/288 
f 289/289/289 290/290/290 291/291/291 
f 289/289/289 291/291/291 292/292/292 
f 293/293/293 294/294/294 295/295/295 
f 293/293/293 295/295/295 296/296/296 
f 297/297/297 298/298/298 299/299/299 
f 298/298/298 297/297/297 300/300/300 
f 300/300/300 297/297/297 301/301/301 
f 299/299/299 298/298/298 302/302/302 
f 299/299/299 302/302/302 303/303/303 
f 299/299/299 303/303/303 304/304/304 
f 305/305/305 306/306/306 307/307/307 
f 305/305/305 307/307/307 308/308/308 
f 309/309/309 310/310/310 311/311/311 
f 309/309/309 311/311/311 312/312/312 
f 313/313/313 314/314/314 315/315/315 
f 313/313/313 315/315/315 316/316/316 
f 317/317/317 318/318/318 319/319/319 
f 317/317/317 319/319/319 320/320/320 
f 321/321/321 322/322/322 323/323/323 
f 322/322/322 321/321/321 324/324/324 
f 325/325/325 326/326/326 327/327/327 
f 325/325/325 327/327/327 328/328/328 
f 329/329/329 330/330/330 331/331/331 
f 329/329/329 331/331/331 332/332/332 
f 333/333/333 334/334/334 335/335/335 
f 336/336/336 337/337/337 338/338/338 
f 339/339/339 340/340/340 341/341/341 
f 342/342/342 340/340/340 339/339/339 
f 342/342/342 343/343/343 340/340/340 
f 344/344/344 343/343/343 342/342/342 
f 343/343/343 344/344/344 345/345/345 
f 343/343/343 345/345/345 346/346/346 

g Meshpart3

v 0.00244435 0.688266 0.392293 
v 0.00244433 0.688266 0.0454338 
v 0.193112 0.803263 -0.00932714 
v 0.193112 0.543263 -0.152327 
v 0.00244433 0.483026 -0.0674481 
v 0.193112 0.413263 -0.13077 
v 0.00244433 0.380407 -0.0504312 
v 0.00244433 -0.17374 0.134744 
v 0.193112 -0.288737 0.185673 
v 0.193112 -0.288737 0.0854599 
v 0.193112 -0.132737 -0.0575401 
v 0.00244433 -0.0505958 0.0218629 
v 0.193112 -0.00273681 -0.0743271 
v 0.00244433 0.0520242 0.0105518 
v 0.193112 -0.288737 0.393673 
v 0.00244435 -0.17374 0.392293 
v 0.00244433 -0.0505958 0.187053 
v 0.193112 -0.132737 0.484673 
v 0.00244435 -0.0367338 0.469244 
v 0.193112 0.725263 0.445673 
v 0.193112 0.413263 0.567116 
v 0.00244435 0.380407 0.478832 
v 0.193112 -0.132737 0.393673 
v 0.00244435 -0.17374 0.392293 
v 0.00244435 -0.0505958 0.392293 
v 0.193112 -0.288737 0.393673 
v 0.00244435 0.688266 0.392293 
v 0.193112 0.725263 0.445673 
v 0.00244435 0.626694 0.392293 
v 0.193112 0.803263 0.445673 
v 0.193112 0.413263 0.567116 
v 0.00244435 0.380407 0.478832 
v 0.00244435 0.50355 0.478832 
v 0.193112 0.569263 0.573932 
v 0.00244435 0.0520232 0.478832 
v 0.193112 -0.00273681 0.510673 
v 0.00244435 -0.0367338 0.469244 
v 0.193112 -0.132737 0.484673 
v 0.00244435 0.626694 0.392293 
v 0.193112 0.569263 0.573932 
v 0.00244435 0.50355 0.478832 
v 0.193112 0.725263 0.445673 
v 0.00244435 0.688266 0.533912 
v 0.193112 0.803263 0.445673 
v 0.00244435 0.688266 0.392293 
v 0.193112 0.803263 0.588673 
v 0.193112 0.803263 0.133673 
v 0.00244433 0.688266 0.0454338 
v 0.00244433 0.688266 0.187053 
v 0.193112 0.803263 -0.00932714 
v 0.193112 -0.00273681 -0.0743271 
v 0.00244433 0.0520242 0.0105518 
v 0.193112 -0.00273681 0.653673 
v 0.193112 -0.132737 0.185673 
v 0.00244433 -0.0505958 0.187053 
v 0.193112 -0.132737 0.484673 
v 0.00244435 -0.0367338 0.469244 
v 0.193112 0.725263 0.445673 
v 0.193112 0.725263 0.133673 
v 0.00244433 0.0520242 0.100514 
v 0.193112 -0.00273681 0.0686729 
v 0.00244433 0.0520242 0.0105518 
v 0.193112 -0.00273681 -0.0743271 
v 0.00244436 0.0520232 0.568794 
v 0.193112 -0.00273681 0.510673 
v 0.00244435 0.0520232 0.478832 
v 0.193112 -0.00273681 0.653673 
v 0.00244433 -0.0505958 0.187053 
v 0.193112 -0.132737 0.185673 
v 0.00244433 -0.0367338 0.110101 
v 0.193112 -0.132737 0.0946729 
v 0.00244435 -0.0367338 0.469244 
v 0.193112 -0.132737 0.393673 
v 0.00244435 -0.0505958 0.392293 
v 0.193112 -0.132737 0.484673 
v 0.193112 0.803263 0.588673 
v 0.193112 0.543263 0.731673 
v 0.193112 0.413263 0.710116 
v 0.00244433 0.688266 0.187053 
v 0.193112 0.803263 -0.00932714 
v 0.193112 0.543263 -0.152327 
v 0.193112 0.413263 -0.13077 
v 0.00244433 0.380407 -0.0504312 
v 0.193112 -0.288737 0.185673 
v 0.193112 -0.288737 0.0854599 
v 0.193112 -0.132737 -0.0575401 
v 0.193112 -0.00273681 -0.0743271 
v 0.193112 -0.288737 0.393673 
v 0.193112 -0.132737 0.636886 
v 0.193112 -0.00273681 0.653673 
v 0.00244436 0.0520232 0.568794 
v 0.193112 -0.00273681 0.0686729 
v 0.193112 -0.132737 -0.0575401 
v 0.193112 -0.00273681 -0.0743271 
v 0.193112 -0.132737 0.0946729 
v 0.193112 -0.288737 0.0854599 
v 0.193112 -0.288737 0.185673 
v 0.193112 -0.132737 0.185673 
v 0.00244433 -0.0505958 0.187053 
v 0.193112 -0.288737 0.393673 
v 0.193112 -0.132737 0.484673 
v 0.193112 -0.288737 0.493886 
v 0.193112 -0.132737 0.393673 
v 0.193112 -0.132737 0.636886 
v 0.193112 -0.00273681 0.510673 
v 0.193112 -0.00273681 0.653673 
v 0.193112 0.803263 0.588673 
v 0.193112 0.569263 0.573932 
v 0.193112 0.725263 0.445673 
v 0.193112 0.803263 0.445673 
v 0.193112 0.543263 0.731673 
v 0.193112 0.413263 0.710116 
v 0.193112 0.413263 0.567116 
v 0.193112 0.543263 -0.152327 
v 0.193112 0.569263 0.00541386 
v 0.193112 0.413263 -0.13077 
v 0.193112 0.413263 0.0122299 
v 0.193112 0.803263 -0.00932714 
v 0.193112 0.725263 0.133673 
v 0.193112 0.803263 0.133673 
v 0.00244435 0.688266 0.533912 
v 0.193112 0.803263 0.588673 
v 0.193112 0.543263 0.731673 
v 0.00244436 0.483026 0.646794 
v 0.193112 0.413263 0.710116 
v 0.00244436 0.380407 0.629777 
v 0.00244433 0.688266 0.187053 
v 0.00244433 0.380407 -0.0504312 
v 0.193112 -0.288737 0.185673 
v 0.00244433 -0.17374 0.187053 
v 0.193112 -0.288737 0.393673 
v 0.00244435 -0.17374 0.444601 
v 0.00244435 -0.17374 0.392293 
v 0.193112 -0.288737 0.493886 
v 0.193112 -0.132737 0.636886 
v 0.00244436 -0.0505958 0.557483 
v 0.193112 -0.00273681 0.653673 
v 0.00244436 0.0520232 0.568794 
v 0.193112 -0.132737 0.185673 
v 0.00244433 -0.0505958 0.187053 
v 0.00244435 -0.0367338 0.469244 
v 0.193112 0.413263 0.0122299 
v 0.193112 0.725263 0.133673 
v 0.00244433 -0.17374 0.187053 
v 0.193112 -0.132737 0.185673 
v 0.00244433 -0.0505958 0.187053 
v 0.193112 -0.288737 0.185673 
v 0.193112 0.725263 0.133673 
v 0.00244433 0.688266 0.187053 
v 0.00244433 0.626694 0.187053 
v 0.193112 0.803263 0.133673 
v 0.00244433 0.380407 0.100514 
v 0.193112 0.413263 0.0122299 
v 0.00244433 0.50355 0.100514 
v 0.193112 0.569263 0.00541386 
v 0.193112 -0.00273681 0.0686729 
v 0.00244433 0.0520242 0.100514 
v 0.00244433 -0.0367338 0.110101 
v 0.193112 -0.132737 0.0946729 
v 0.193112 0.569263 0.00541386 
v 0.00244433 0.626694 0.187053 
v 0.00244433 0.50355 0.100514 
v 0.193112 0.725263 0.133673 
v 0.193112 0.413263 0.710116 
v 0.00244436 0.380407 0.629777 
v 0.193112 0.413263 -0.13077 
v 0.00244433 0.380407 -0.0504312 
v 0.00244433 -0.17374 0.134744 
v 0.193112 -0.288737 0.185673 
v 0.00244433 -0.17374 0.187053 
v 0.193112 -0.288737 0.0854599 
v 0.193112 -0.288737 0.393673 
v 0.00244435 -0.17374 0.444601 
v 0.00244435 -0.17374 0.392293 
v 0.193112 -0.288737 0.493886 
v 0.193112 0.413263 0.567116 
v 0.00244435 0.380407 0.478832 
v 0.193112 0.413263 0.0122299 
v 0.00244435 0.380407 0.478832 
v 0.193112 0.413263 0.567116 
v 0.00244436 0.380407 0.629777 
v 0.193112 0.413263 0.710116 
v 0.00244433 0.380407 -0.0504312 
v 0.193112 0.413263 0.0122299 
v 0.00244433 0.380407 0.100514 
v 0.193112 0.413263 -0.13077 
v 0.00244435 0.688266 0.392293 
v 0.193112 0.803263 0.588673 
v 0.193112 0.543263 0.731673 
v 0.00244436 0.380407 0.629777 
v 0.00244433 0.688266 0.0454338 
v 0.00244433 0.688266 0.187053 
v 0.193112 0.543263 -0.152327 
v 0.00244433 0.380407 -0.0504312 
v 0.00244433 -0.17374 0.134744 
v 0.193112 -0.288737 0.185673 
v 0.00244433 -0.17374 0.187053 
v 0.193112 -0.132737 -0.0575401 
v 0.00244433 0.0520242 0.0105518 
v 0.193112 -0.132737 0.636886 
v 0.00244436 0.0520232 0.568794 
v 0.00244433 -0.17374 0.134744 
v 0.00244433 -0.0505958 0.187053 
v 0.00244433 -0.0367338 0.110101 
v 0.00244433 -0.17374 0.187053 
v 0.00244433 -0.0505958 0.0218629 
v 0.00244433 0.0520242 0.100514 
v 0.00244433 0.0520242 0.0105518 
v 0.00244435 -0.17374 0.444601 
v 0.00244435 -0.0367338 0.469244 
v 0.00244435 -0.0505958 0.392293 
v 0.00244435 -0.17374 0.392293 
v 0.00244436 -0.0505958 0.557483 
v 0.00244435 0.0520232 0.478832 
v 0.00244436 0.0520232 0.568794 
v 0.00244435 0.626694 0.392293 
v 0.00244435 0.688266 0.533912 
v 0.00244435 0.688266 0.392293 
v 0.00244435 0.50355 0.478832 
v 0.00244436 0.483026 0.646794 
v 0.00244436 0.380407 0.629777 
v 0.00244435 0.380407 0.478832 
v 0.00244433 0.380407 -0.0504312 
v 0.00244433 0.50355 0.100514 
v 0.00244433 0.483026 -0.0674481 
v 0.00244433 0.380407 0.100514 
v 0.00244433 0.688266 0.0454338 
v 0.00244433 0.626694 0.187053 
v 0.00244433 0.688266 0.187053 

vn -0.519685 0.858268 0 
vn -0.551181 0.708661 -0.440945 
vn -0.551181 0.724409 -0.417323 
vn -0.448819 0.181102 -0.874016 
vn -0.433071 0.110236 -0.897638 
vn -0.362205 -0.149606 -0.92126 
vn -0.362205 -0.149606 -0.92126 
vn -0.551181 -0.76378 -0.338583 
vn -0.519685 -0.858268 0 
vn -0.551181 -0.76378 -0.338583 
vn -0.496063 -0.385827 -0.779528 
vn -0.480315 -0.330709 -0.811024 
vn -0.425197 -0.110236 -0.897638 
vn -0.425197 -0.110236 -0.897638 
vn -0.519685 -0.858268 0 
vn -0.519685 -0.858268 0 
vn -1 0 0 
vn 1 0 0 
vn -1 0 0 
vn 1 0 0 
vn 1 0 0 
vn -1 0 0 
vn 0.00787402 0 -1 
vn 0.00787402 0 -1 
vn 0.00787402 0 -1 
vn 0.00787402 0 -1 
vn 0.267717 0 -0.96063 
vn 0.267717 0 -0.96063 
vn 0.267717 0 -0.96063 
vn 0.267717 0 -0.96063 
vn 0.425197 0.023622 -0.905512 
vn 0.425197 0.023622 -0.905512 
vn 0.425197 0.023622 -0.905512 
vn 0.425197 0.023622 -0.905512 
vn 0.181102 0.15748 -0.968504 
vn 0.181102 0.15748 -0.968504 
vn 0.181102 0.15748 -0.968504 
vn 0.181102 0.15748 -0.968504 
vn 0.496063 -0.527559 -0.685039 
vn 0.496063 -0.527559 -0.685039 
vn 0.496063 -0.527559 -0.685039 
vn 0.496063 -0.527559 -0.685039 
vn -0.551181 0.708661 0.440945 
vn -0.519685 0.858268 0 
vn -0.519685 0.858268 0 
vn -0.551181 0.724409 0.417323 
vn -0.519685 0.858268 0 
vn -0.551181 0.708661 -0.440945 
vn -0.519685 0.858268 0 
vn -0.551181 0.724409 -0.417323 
vn -0.425197 -0.110236 -0.897638 
vn -0.425197 -0.110236 -0.897638 
vn -0.425197 -0.110236 0.897638 
vn 1 0 0 
vn -1 0 0 
vn 1 0 0 
vn -1 0 0 
vn 1 0 0 
vn 1 0 0 
vn 0.275591 0.96063 0 
vn 0.275591 0.96063 0 
vn 0.275591 0.96063 0 
vn 0.275591 0.96063 0 
vn 0.275591 0.96063 0 
vn 0.275591 0.96063 0 
vn 0.275591 0.96063 0 
vn 0.275591 0.96063 0 
vn 0.425197 0.905512 0.0708661 
vn 0.425197 0.905512 0.0708661 
vn 0.425197 0.905512 0.0708661 
vn 0.425197 0.905512 0.0708661 
vn 0.425197 0.905512 -0.0708661 
vn 0.425197 0.905512 -0.0708661 
vn 0.425197 0.905512 -0.0708661 
vn 0.425197 0.905512 -0.0708661 
vn -0.551181 0.724409 0.417323 
vn -0.448819 0.181102 0.874016 
vn -0.362205 -0.149606 0.92126 
vn -0.519685 0.858268 0 
vn -0.551181 0.724409 -0.417323 
vn -0.448819 0.181102 -0.874016 
vn -0.362205 -0.149606 -0.92126 
vn -0.362205 -0.149606 -0.92126 
vn -0.519685 -0.858268 0 
vn -0.551181 -0.76378 -0.338583 
vn -0.496063 -0.385827 -0.779528 
vn -0.425197 -0.110236 -0.897638 
vn -0.519685 -0.858268 0 
vn -0.496063 -0.385827 0.779528 
vn -0.425197 -0.110236 0.897638 
vn -0.425197 -0.110236 0.897638 
vn 1 0 0 
vn 1 0 0 
vn 1 0 0 
vn 1 0 0 
vn 1 0 0 
vn 1 0 0 
vn 1 0 0 
vn -1 0 0 
vn 1 0 0 
vn 1 0 0 
vn 1 0 0 
vn 1 0 0 
vn 1 0 0 
vn 1 0 0 
vn 1 0 0 
vn 1 0 0 
vn 1 0 0 
vn 1 0 0 
vn 1 0 0 
vn 1 0 0 
vn 1 0 0 
vn 1 0 0 
vn 1 0 0 
vn 1 0 0 
vn 1 0 0 
vn 1 0 0 
vn 1 0 0 
vn 1 0 0 
vn 1 0 0 
vn -0.551181 0.708661 0.440945 
vn -0.551181 0.724409 0.417323 
vn -0.448819 0.181102 0.874016 
vn -0.433071 0.110236 0.897638 
vn -0.362205 -0.149606 0.92126 
vn -0.362205 -0.149606 0.92126 
vn -0.519685 0.858268 0 
vn -0.362205 -0.149606 -0.92126 
vn -0.519685 -0.858268 0 
vn -0.519685 -0.858268 0 
vn -0.519685 -0.858268 0 
vn -0.551181 -0.76378 0.338583 
vn -0.519685 -0.858268 0 
vn -0.551181 -0.76378 0.338583 
vn -0.496063 -0.385827 0.779528 
vn -0.480315 -0.330709 0.811024 
vn -0.425197 -0.110236 0.897638 
vn -0.425197 -0.110236 0.897638 
vn 1 0 0 
vn -1 0 0 
vn -1 0 0 
vn 1 0 0 
vn 1 0 0 
vn 0.00787402 0 1 
vn 0.00787402 0 1 
vn 0.00787402 0 1 
vn 0.00787402 0 1 
vn 0.267717 0 0.96063 
vn 0.267717 0 0.96063 
vn 0.267717 0 0.96063 
vn 0.267717 0 0.96063 
vn 0.425197 0.023622 0.905512 
vn 0.425197 0.023622 0.905512 
vn 0.425197 0.023622 0.905512 
vn 0.425197 0.023622 0.905512 
vn 0.181102 0.15748 0.968504 
vn 0.181102 0.15748 0.968504 
vn 0.181102 0.15748 0.968504 
vn 0.181102 0.15748 0.968504 
vn 0.496063 -0.527559 0.685039 
vn 0.496063 -0.527559 0.685039 
vn 0.496063 -0.527559 0.685039 
vn 0.496063 -0.527559 0.685039 
vn -0.362205 -0.149606 0.92126 
vn -0.362205 -0.149606 0.92126 
vn -0.362205 -0.149606 -0.92126 
vn -0.362205 -0.149606 -0.92126 
vn -0.551181 -0.76378 -0.338583 
vn -0.519685 -0.858268 0 
vn -0.519685 -0.858268 0 
vn -0.551181 -0.76378 -0.338583 
vn -0.519685 -0.858268 0 
vn -0.551181 -0.76378 0.338583 
vn -0.519685 -0.858268 0 
vn -0.551181 -0.76378 0.338583 
vn 1 0 0 
vn -1 0 0 
vn 1 0 0 
vn 0.173228 -0.984252 0 
vn 0.173228 -0.984252 0 
vn 0.173228 -0.984252 0 
vn 0.173228 -0.984252 0 
vn 0.173228 -0.984252 0 
vn 0.173228 -0.984252 0 
vn 0.173228 -0.984252 0 
vn 0.173228 -0.984252 0 
vn -0.519685 0.858268 0 
vn -0.551181 0.724409 0.417323 
vn -0.448819 0.181102 0.874016 
vn -0.362205 -0.149606 0.92126 
vn -0.551181 0.708661 -0.440945 
vn -0.519685 0.858268 0 
vn -0.448819 0.181102 -0.874016 
vn -0.362205 -0.149606 -0.92126 
vn -0.551181 -0.76378 -0.338583 
vn -0.519685 -0.858268 0 
vn -0.519685 -0.858268 0 
vn -0.496063 -0.385827 -0.779528 
vn -0.425197 -0.110236 -0.897638 
vn -0.496063 -0.385827 0.779528 
vn -0.425197 -0.110236 0.897638 
vn -1 0 0 
vn -1 0 0 
vn -1 0 0 
vn -1 0 0 
vn -1 0 0 
vn -1 0 0 
vn -1 0 0 
vn -1 0 0 
vn -1 0 0 
vn -1 0 0 
vn -1 0 0 
vn -1 0 0 
vn -1 0 0 
vn -1 0 0 
vn -1 0 0 
vn -1 0 0 
vn -1 0 0 
vn -1 0 0 
vn -1 0 0 
vn -1 0 0 
vn -1 0 0 
vn -1 0 0 
vn -1 0 0 
vn -1 0 0 
vn -1 0 0 
vn -1 0 0 
vn -1 0 0 
vn -1 0 0 

vt 34.0953 -8.569 
vt 34.0953 -8.569 
vt 33.9047 -8.454 
vt 33.9047 -8.714 
vt 34.0953 -8.77424 
vt 33.9047 -8.844 
vt 34.0953 -8.87686 
vt 34.0953 -9.431 
vt 33.9047 -9.546 
vt 33.9047 -9.546 
vt 33.9047 -9.39 
vt 34.0953 -9.30786 
vt 33.9047 -9.26 
vt 34.0953 -9.20524 
vt 33.9047 -9.546 
vt 34.0953 -9.431 
vt 34.0953 -9.30786 
vt 33.9047 -9.39 
vt 34.0953 -9.294 
vt 33.9047 -8.532 
vt 33.9047 -8.844 
vt 34.0953 -8.87686 
vt 33.9047 -9.39 
vt 34.0953 -9.431 
vt 34.0953 -9.30786 
vt 33.9047 -9.546 
vt 34.0953 -8.569 
vt 33.9047 -8.532 
vt 34.0953 -8.63057 
vt 33.9047 -8.454 
vt 33.9047 -8.844 
vt 34.0953 -8.87686 
vt 34.0953 -8.75371 
vt 33.9047 -8.688 
vt 34.0953 -9.20524 
vt 33.9047 -9.26 
vt 34.0953 -9.294 
vt 33.9047 -9.39 
vt 34.0953 -8.63057 
vt 33.9047 -8.688 
vt 34.0953 -8.75371 
vt 33.9047 -8.532 
vt 34.2442 -9.09533 
vt 34.156 -8.90467 
vt 34.1026 -9.09533 
vt 34.299 -8.90467 
vt 33.844 -8.90467 
vt 33.7558 -9.09533 
vt 33.8974 -9.09533 
vt 33.701 -8.90467 
vt 33.636 -8.90467 
vt 33.7209 -9.09533 
vt 34.364 -8.90467 
vt 33.896 -8.90467 
vt 33.8974 -9.09533 
vt 34.195 -8.90467 
vt 34.1796 -9.09533 
vt 34.156 -8.90467 
vt 33.844 -8.90467 
vt 33.8108 -9.09533 
vt 33.779 -8.90467 
vt 33.7209 -9.09533 
vt 33.636 -8.90467 
vt 34.2791 -9.09533 
vt 34.221 -8.90467 
vt 34.1892 -9.09533 
vt 34.364 -8.90467 
vt 33.8974 -9.09533 
vt 33.896 -8.90467 
vt 33.8204 -9.09533 
vt 33.805 -8.90467 
vt 34.1796 -9.09533 
vt 34.104 -8.90467 
vt 34.1026 -9.09533 
vt 34.195 -8.90467 
vt 33.701 -8.454 
vt 33.558 -8.714 
vt 33.5796 -8.844 
vt 34.1026 -8.569 
vt 34.299 -8.454 
vt 34.442 -8.714 
vt 34.4204 -8.844 
vt 34.3401 -8.87686 
vt 34.104 -9.546 
vt 34.2042 -9.546 
vt 34.3472 -9.39 
vt 34.364 -9.26 
vt 33.896 -9.546 
vt 33.6528 -9.39 
vt 33.636 -9.26 
vt 33.7209 -9.20524 
vt 34.221 -9.26 
vt 34.3472 -9.39 
vt 34.364 -9.26 
vt 34.195 -9.39 
vt 34.2042 -9.546 
vt 34.104 -9.546 
vt 34.104 -9.39 
vt 34.1026 -9.30786 
vt 33.896 -9.546 
vt 33.805 -9.39 
vt 33.7958 -9.546 
vt 33.896 -9.39 
vt 33.6528 -9.39 
vt 33.779 -9.26 
vt 33.636 -9.26 
vt 33.701 -8.454 
vt 33.7157 -8.688 
vt 33.844 -8.532 
vt 33.844 -8.454 
vt 33.558 -8.714 
vt 33.5796 -8.844 
vt 33.7226 -8.844 
vt 34.442 -8.714 
vt 34.2843 -8.688 
vt 34.4204 -8.844 
vt 34.2774 -8.844 
vt 34.299 -8.454 
vt 34.156 -8.532 
vt 34.156 -8.454 
vt 33.9047 -8.569 
vt 34.0953 -8.454 
vt 34.0953 -8.714 
vt 33.9047 -8.77424 
vt 34.0953 -8.844 
vt 33.9047 -8.87686 
vt 33.9047 -8.569 
vt 33.9047 -8.87686 
vt 34.0953 -9.546 
vt 33.9047 -9.431 
vt 34.0953 -9.546 
vt 33.9047 -9.431 
vt 33.9047 -9.431 
vt 34.0953 -9.546 
vt 34.0953 -9.39 
vt 33.9047 -9.30786 
vt 34.0953 -9.26 
vt 33.9047 -9.20524 
vt 34.0953 -9.39 
vt 33.9047 -9.30786 
vt 33.9047 -9.294 
vt 34.0953 -8.844 
vt 34.0953 -8.532 
vt 33.9047 -9.431 
vt 34.0953 -9.39 
vt 33.9047 -9.30786 
vt 34.0953 -9.546 
vt 34.0953 -8.532 
vt 33.9047 -8.569 
vt 33.9047 -8.63057 
vt 34.0953 -8.454 
vt 33.9047 -8.87686 
vt 34.0953 -8.844 
vt 33.9047 -8.75371 
vt 34.0953 -8.688 
vt 34.0953 -9.26 
vt 33.9047 -9.20524 
vt 33.9047 -9.294 
vt 34.0953 -9.39 
vt 34.0953 -8.688 
vt 33.9047 -8.63057 
vt 33.9047 -8.75371 
vt 34.0953 -8.532 
vt 33.5796 -8.90467 
vt 33.6599 -9.09533 
vt 34.4204 -8.90467 
vt 34.3401 -9.09533 
vt 34.1549 -9.09533 
vt 34.104 -8.90467 
vt 34.1026 -9.09533 
vt 34.2042 -8.90467 
vt 33.896 -8.90467 
vt 33.8451 -9.09533 
vt 33.8974 -9.09533 
vt 33.7958 -8.90467 
vt 33.7226 -8.90467 
vt 33.8108 -9.09533 
vt 34.2774 -8.90467 
vt 33.8108 -9.09533 
vt 33.7226 -8.90467 
vt 33.6599 -9.09533 
vt 33.5796 -8.90467 
vt 34.3401 -9.09533 
vt 34.2774 -8.90467 
vt 34.1892 -9.09533 
vt 34.4204 -8.90467 
vt 34.1026 -8.569 
vt 34.299 -8.454 
vt 34.442 -8.714 
vt 34.3401 -8.87686 
vt 33.7558 -8.569 
vt 33.8974 -8.569 
vt 33.558 -8.714 
vt 33.6599 -8.87686 
vt 33.8451 -9.431 
vt 33.896 -9.546 
vt 33.8974 -9.431 
vt 33.6528 -9.39 
vt 33.7209 -9.20524 
vt 34.3472 -9.39 
vt 34.2791 -9.20524 
vt 33.8451 -9.431 
vt 33.8974 -9.30786 
vt 33.8204 -9.294 
vt 33.8974 -9.431 
vt 33.7322 -9.30786 
vt 33.8108 -9.20524 
vt 33.7209 -9.20524 
vt 34.1549 -9.431 
vt 34.1796 -9.294 
vt 34.1026 -9.30786 
vt 34.1026 -9.431 
vt 34.2678 -9.30786 
vt 34.1892 -9.20524 
vt 34.2791 -9.20524 
vt 34.1026 -8.63057 
vt 34.2442 -8.569 
vt 34.1026 -8.569 
vt 34.1892 -8.75371 
vt 34.3571 -8.77424 
vt 34.3401 -8.87686 
vt 34.1892 -8.87686 
vt 33.6599 -8.87686 
vt 33.8108 -8.75371 
vt 33.6429 -8.77424 
vt 33.8108 -8.87686 
vt 33.7558 -8.569 
vt 33.8974 -8.63057 
vt 33.8974 -8.569 

usemtl Meshpart3Mtl

f 350/350/350 348/348/348 349/349/349 
f 348/348/348 350/350/350 351/351/351 
f 352/352/352 351/351/351 350/350/350 
f 351/351/351 352/352/352 353/353/353 
f 354/354/354 357/357/357 356/356/356 
f 357/357/357 354/354/354 358/358/358 
f 358/358/358 359/359/359 357/357/357 
f 359/359/359 358/358/358 360/360/360 
f 369/369/369 370/370/370 371/371/371 
f 370/370/370 369/369/369 372/372/372 
f 373/373/373 374/374/374 375/375/375 
f 374/374/374 373/373/373 376/376/376 
f 377/377/377 378/378/378 379/379/379 
f 379/379/379 380/380/380 377/377/377 
f 381/381/381 382/382/382 383/383/383 
f 383/383/383 382/382/382 384/384/384 
f 385/385/385 386/386/386 387/387/387 
f 386/386/386 385/385/385 388/388/388 
f 389/389/389 390/390/390 391/391/391 
f 390/390/390 389/389/389 392/392/392 
f 393/393/393 394/394/394 395/395/395 
f 394/394/394 393/393/393 396/396/396 
f 406/406/406 407/407/407 408/408/408 
f 407/407/407 409/409/409 408/408/408 
f 410/410/410 411/411/411 412/412/412 
f 411/411/411 410/410/410 413/413/413 
f 414/414/414 415/415/415 416/416/416 
f 416/416/416 415/415/415 417/417/417 
f 418/418/418 419/419/419 420/420/420 
f 419/419/419 418/418/418 421/421/421 
f 438/438/438 439/439/439 440/440/440 
f 439/439/439 438/438/438 441/441/441 
f 441/441/441 442/442/442 439/439/439 
f 442/442/442 441/441/441 443/443/443 
f 443/443/443 441/441/441 444/444/444 
f 446/446/446 447/447/447 448/448/448 
f 447/447/447 446/446/446 449/449/449 
f 450/450/450 448/448/448 447/447/447 
f 447/447/447 451/451/451 450/450/450 
f 450/450/450 451/451/451 452/452/452 
f 453/453/453 454/454/454 455/455/455 
f 455/455/455 456/456/456 453/453/453 
f 454/454/454 453/453/453 457/457/457 
f 458/458/458 454/454/454 457/457/457 
f 454/454/454 458/458/458 459/459/459 
f 460/460/460 461/461/461 462/462/462 
f 462/462/462 461/461/461 463/463/463 
f 461/461/461 460/460/460 464/464/464 
f 464/464/464 465/465/465 461/461/461 
f 465/465/465 464/464/464 466/466/466 
f 467/467/467 469/469/469 468/468/468 
f 469/469/469 467/467/467 470/470/470 
f 470/470/470 471/471/471 469/469/469 
f 471/471/471 470/470/470 472/472/472 
f 481/481/481 478/478/478 480/480/480 
f 478/478/478 481/481/481 482/482/482 
f 483/483/483 482/482/482 481/481/481 
f 482/482/482 483/483/483 484/484/484 
f 490/490/490 491/491/491 492/492/492 
f 491/491/491 490/490/490 493/493/493 
f 494/494/494 495/495/495 496/496/496 
f 495/495/495 494/494/494 497/497/497 
f 498/498/498 499/499/499 500/500/500 
f 500/500/500 499/499/499 501/501/501 
f 502/502/502 503/503/503 504/504/504 
f 504/504/504 505/505/505 502/502/502 
f 506/506/506 507/507/507 508/508/508 
f 507/507/507 506/506/506 509/509/509 
f 514/514/514 515/515/515 516/516/516 
f 515/515/515 514/514/514 517/517/517 
f 518/518/518 519/519/519 520/520/520 
f 519/519/519 518/518/518 521/521/521 
f 525/525/525 526/526/526 527/527/527 
f 526/526/526 528/528/528 527/527/527 
f 529/529/529 530/530/530 531/531/531 
f 530/530/530 529/529/529 532/532/532 
f 548/548/548 549/549/549 550/550/550 
f 549/549/549 548/548/548 551/551/551 
f 550/550/550 552/552/552 548/548/548 
f 553/553/553 552/552/552 550/550/550 
f 552/552/552 553/553/553 554/554/554 
f 555/555/555 556/556/556 557/557/557 
f 555/555/555 557/557/557 558/558/558 
f 556/556/556 555/555/555 559/559/559 
f 559/559/559 560/560/560 556/556/556 
f 560/560/560 559/559/559 561/561/561 
f 562/562/562 563/563/563 564/564/564 
f 565/565/565 563/563/563 562/562/562 
f 565/565/565 566/566/566 563/563/563 
f 566/566/566 565/565/565 567/567/567 
f 567/567/567 565/565/565 568/568/568 
f 569/569/569 570/570/570 571/571/571 
f 570/570/570 569/569/569 572/572/572 
f 570/570/570 573/573/573 571/571/571 
f 573/573/573 570/570/570 574/574/574 
f 575/575/575 573/573/573 574/574/574 

