# This file is brought to you by Roblox Corporation
# Generated by Roblox Studio

mtllib chamber.mtl

g Meshpart1

v -0.648653 0.480619 -0.00626041 
v -0.648653 0.431335 -0.0462064 
v -0.648653 0.4597 -0.00901441 
v -0.648653 0.442961 0.00382959 
v -0.648653 0.519942 -0.00950441 
v -0.648653 0.493464 0.0104786 
v -0.648653 0.41971 0.00382959 
v -0.648653 0.440207 0.0247486 
v -0.648653 0.40297 -0.00901441 
v -0.648653 0.422464 0.0247486 
v -0.648653 0.382051 -0.00626041 
v -0.648653 0.342729 -0.00950441 
v -0.648653 0.453051 0.0414886 
v -0.648653 0.369207 0.0104786 
v -0.648653 0.409619 0.0414886 
v -0.648653 0.340842 0.0596086 
v -0.648653 0.306027 0.0791016 
v -0.648653 0.360335 0.0515336 
v -0.648653 0.332767 0.0791016 
v -0.648653 0.371961 0.0313976 
v -0.648653 0.340842 0.0985946 
v -0.648653 0.3887 0.0442426 
v -0.648653 0.379829 0.0596086 
v -0.648653 0.342729 0.167708 
v -0.648653 0.387903 0.0791016 
v -0.648653 0.369207 0.147725 
v -0.648653 0.360335 0.10667 
v -0.648653 0.382051 0.164464 
v -0.648653 0.371961 0.126806 
v -0.648653 0.3887 0.113961 
v -0.648653 0.379829 0.0985946 
v -0.648653 0.431335 0.20441 
v -0.648653 0.409619 0.116715 
v -0.648653 0.40297 0.167218 
v -0.648653 0.453051 0.116715 
v -0.648653 0.41971 0.154374 
v -0.648653 0.422464 0.133455 
v -0.648653 0.440207 0.133455 
v -0.648653 0.442961 0.154374 
v -0.648653 0.4597 0.167218 
v -0.648653 0.480619 0.164464 
v -0.648653 0.519942 0.167708 
v -0.648653 0.493464 0.147725 
v -0.648653 0.521829 0.0985946 
v -0.648653 0.49071 0.126806 
v -0.648653 0.556644 0.0791016 
v -0.648653 0.502335 0.10667 
v -0.648653 0.529903 0.0791016 
v -0.648653 0.47397 0.113961 
v -0.648653 0.482842 0.0985946 
v -0.648653 0.521829 0.0596086 
v -0.648653 0.49071 0.0313976 
v -0.648653 0.502335 0.0515336 
v -0.648653 0.47397 0.0442426 
v -0.648653 0.482842 0.0596086 
v -0.648653 0.474768 0.0791016 
v -0.648653 0.519942 -0.00950441 
v -0.648653 0.556644 0.0791016 
v -0.458037 0.409619 0.116715 
v -0.648653 0.40297 -0.00901441 
v -0.458037 0.40297 -0.00901442 
v -0.648653 0.382051 -0.00626041 
v -0.458037 0.382051 -0.00626042 
v -0.648653 0.371961 0.0313976 
v -0.458037 0.369207 0.0104786 
v -0.458037 0.371961 0.0313976 
v -0.648653 0.369207 0.0104786 
v -0.458037 0.49071 0.126806 
v -0.648653 0.4597 0.167218 
v -0.648653 0.453051 0.116715 
v -0.458037 0.4597 0.167218 
v -0.458037 0.453051 0.116715 
v -0.648653 0.442961 0.154374 
v -0.458037 0.440207 0.133455 
v -0.458037 0.442961 0.154374 
v -0.648653 0.440207 0.133455 
v -0.648653 0.519942 -0.00950441 
v -0.458037 0.519942 -0.00950442 
v -0.648653 0.556644 0.0791016 
v -0.458037 0.556644 0.0791016 
v -0.648653 0.519942 0.167708 
v -0.458037 0.519942 0.167708 
v -0.458037 0.502335 0.0515336 
v -0.648653 0.502335 0.0515336 
v -0.648653 0.482842 0.0596086 
v -0.458037 0.482842 0.0596086 
v -0.458037 0.474768 0.0791016 
v -0.648653 0.474768 0.0791016 
v -0.458037 0.482842 0.0985946 
v -0.648653 0.482842 0.0985946 
v -0.648653 0.502335 0.10667 
v -0.648653 0.340842 0.0596086 
v -0.458037 0.379829 0.0596086 
v -0.458037 0.340842 0.0596086 
v -0.458037 0.332767 0.0791016 
v -0.648653 0.332767 0.0791016 
v -0.458037 0.340842 0.0985946 
v -0.648653 0.340842 0.0985946 
v -0.458037 0.360335 0.10667 
v -0.648653 0.360335 0.10667 
v -0.648653 0.40297 0.167218 
v -0.458037 0.40297 0.167218 
v -0.648653 0.382051 0.164464 
v -0.458037 0.382051 0.164464 
v -0.648653 0.369207 0.147725 
v -0.458037 0.369207 0.147725 
v -0.648653 0.371961 0.126806 
v -0.458037 0.371961 0.126806 
v -0.458037 0.47397 0.0442426 
v -0.648653 0.453051 0.0414886 
v -0.458037 0.453051 0.0414886 
v -0.648653 0.440207 0.0247486 
v -0.458037 0.440207 0.0247486 
v -0.648653 0.442961 0.00382959 
v -0.458037 0.442961 0.00382958 
v -0.648653 0.519942 -0.00950441 
v -0.648653 0.40297 -0.00901441 
v -0.458037 0.409619 0.116715 
v -0.458037 0.422464 0.0247486 
v -0.648653 0.422464 0.0247486 
v -0.458037 0.409619 0.0414886 
v -0.648653 0.409619 0.0414886 
v -0.648653 0.3887 0.0442426 
v -0.458037 0.3887 0.0442426 
v -0.648653 0.371961 0.0313976 
v -0.458037 0.371961 0.0313976 
v -0.648653 0.49071 0.126806 
v -0.458037 0.480619 0.164464 
v -0.648653 0.480619 0.164464 
v -0.648653 0.4597 0.167218 
v -0.458037 0.4597 0.167218 
v -0.648653 0.442961 0.154374 
v -0.458037 0.442961 0.154374 
v -0.648653 0.440207 0.133455 
v -0.458037 0.342729 -0.00950442 
v -0.648653 0.342729 -0.00950441 
v -0.648653 0.431335 -0.0462064 
v -0.458037 0.431335 -0.0462064 
v -0.648653 0.519942 -0.00950441 
v -0.458037 0.519942 -0.00950442 
v -0.648653 0.556644 0.0791016 
v -0.458037 0.556644 0.0791016 
v -0.458037 0.529903 0.0791016 
v -0.648653 0.529903 0.0791016 
v -0.458037 0.482842 0.0985946 
v -0.458037 0.521829 0.0985946 
v -0.648653 0.482842 0.0985946 
v -0.648653 0.521829 0.0985946 
v -0.458037 0.502335 0.10667 
v -0.648653 0.502335 0.10667 
v -0.458037 0.340842 0.0985946 
v -0.458037 0.379829 0.0985946 
v -0.648653 0.340842 0.0985946 
v -0.648653 0.379829 0.0985946 
v -0.458037 0.360335 0.10667 
v -0.648653 0.360335 0.10667 
v -0.648653 0.40297 0.167218 
v -0.458037 0.40297 0.167218 
v -0.648653 0.382051 0.164464 
v -0.458037 0.382051 0.164464 
v -0.458037 0.41971 0.154374 
v -0.648653 0.41971 0.154374 
v -0.648653 0.47397 0.0442426 
v -0.458037 0.47397 0.0442426 
v -0.648653 0.453051 0.0414886 
v -0.458037 0.453051 0.0414886 
v -0.458037 0.49071 0.0313976 
v -0.648653 0.440207 0.0247486 
v -0.648653 0.49071 0.0313976 
v -0.458037 0.47397 0.113961 
v -0.458037 0.474768 0.0791016 
v -0.458037 0.482842 0.0985946 
v -0.458037 0.502335 0.10667 
v -0.458037 0.49071 0.126806 
v -0.458037 0.521829 0.0985946 
v -0.458037 0.493464 0.147725 
v -0.458037 0.519942 0.167708 
v -0.458037 0.480619 0.164464 
v -0.458037 0.556644 0.0791016 
v -0.458037 0.529903 0.0791016 
v -0.458037 0.431335 0.20441 
v -0.458037 0.521829 0.0596086 
v -0.458037 0.4597 0.167218 
v -0.458037 0.519942 -0.00950442 
v -0.458037 0.442961 0.154374 
v -0.458037 0.41971 0.154374 
v -0.458037 0.440207 0.133455 
v -0.458037 0.40297 0.167218 
v -0.458037 0.422464 0.133455 
v -0.458037 0.382051 0.164464 
v -0.458037 0.342729 0.167708 
v -0.458037 0.369207 0.147725 
v -0.458037 0.453051 0.116715 
v -0.458037 0.340842 0.0985946 
v -0.458037 0.306027 0.0791016 
v -0.458037 0.360335 0.10667 
v -0.458037 0.332767 0.0791016 
v -0.458037 0.371961 0.126806 
v -0.458037 0.340842 0.0596086 
v -0.458037 0.3887 0.113961 
v -0.458037 0.379829 0.0985946 
v -0.458037 0.342729 -0.00950442 
v -0.458037 0.409619 0.116715 
v -0.458037 0.387903 0.0791016 
v -0.458037 0.369207 0.0104786 
v -0.458037 0.360335 0.0515336 
v -0.458037 0.382051 -0.00626042 
v -0.458037 0.371961 0.0313976 
v -0.458037 0.3887 0.0442426 
v -0.458037 0.379829 0.0596086 
v -0.458037 0.431335 -0.0462064 
v -0.458037 0.409619 0.0414886 
v -0.458037 0.40297 -0.00901442 
v -0.458037 0.41971 0.00382958 
v -0.458037 0.442961 0.00382958 
v -0.458037 0.440207 0.0247486 
v -0.458037 0.4597 -0.00901442 
v -0.458037 0.422464 0.0247486 
v -0.458037 0.480619 -0.00626042 
v -0.458037 0.493464 0.0104786 
v -0.458037 0.49071 0.0313976 
v -0.458037 0.502335 0.0515336 
v -0.458037 0.47397 0.0442426 
v -0.458037 0.482842 0.0596086 
v -0.458037 0.453051 0.0414886 
v -0.648653 0.519942 -0.00950441 
v -0.648653 0.556644 0.0791016 
v -0.458037 0.409619 0.116715 
v -0.648653 0.41971 0.00382959 
v -0.458037 0.422464 0.0247486 
v -0.648653 0.422464 0.0247486 
v -0.458037 0.41971 0.00382958 
v -0.458037 0.409619 0.0414886 
v -0.648653 0.40297 -0.00901441 
v -0.648653 0.409619 0.0414886 
v -0.458037 0.40297 -0.00901442 
v -0.648653 0.371961 0.0313976 
v -0.458037 0.371961 0.0313976 
v -0.648653 0.49071 0.126806 
v -0.458037 0.493464 0.147725 
v -0.648653 0.493464 0.147725 
v -0.458037 0.49071 0.126806 
v -0.458037 0.480619 0.164464 
v -0.648653 0.480619 0.164464 
v -0.648653 0.4597 0.167218 
v -0.458037 0.4597 0.167218 
v -0.458037 0.342729 -0.00950442 
v -0.648653 0.342729 -0.00950441 
v -0.648653 0.431335 -0.0462064 
v -0.458037 0.306027 0.0791016 
v -0.458037 0.431335 -0.0462064 
v -0.648653 0.306027 0.0791016 
v -0.458037 0.342729 0.167708 
v -0.648653 0.342729 0.167708 
v -0.458037 0.431335 0.20441 
v -0.648653 0.431335 0.20441 
v -0.648653 0.502335 0.0515336 
v -0.458037 0.521829 0.0596086 
v -0.648653 0.521829 0.0596086 
v -0.458037 0.529903 0.0791016 
v -0.648653 0.529903 0.0791016 
v -0.458037 0.521829 0.0985946 
v -0.648653 0.521829 0.0985946 
v -0.648653 0.502335 0.10667 
v -0.458037 0.379829 0.0596086 
v -0.648653 0.379829 0.0596086 
v -0.458037 0.387903 0.0791016 
v -0.648653 0.387903 0.0791016 
v -0.458037 0.379829 0.0985946 
v -0.648653 0.379829 0.0985946 
v -0.458037 0.360335 0.10667 
v -0.648653 0.360335 0.10667 
v -0.648653 0.40297 0.167218 
v -0.458037 0.40297 0.167218 
v -0.458037 0.41971 0.154374 
v -0.648653 0.41971 0.154374 
v -0.648653 0.422464 0.133455 
v -0.458037 0.422464 0.133455 
v -0.648653 0.409619 0.116715 
v -0.458037 0.409619 0.116715 
v -0.458037 0.47397 0.0442426 
v -0.458037 0.49071 0.0313976 
v -0.648653 0.49071 0.0313976 
v -0.648653 0.493464 0.0104786 
v -0.458037 0.493464 0.0104786 
v -0.648653 0.480619 -0.00626041 
v -0.458037 0.480619 -0.00626042 
v -0.648653 0.519942 -0.00950441 
v -0.648653 0.40297 -0.00901441 
v -0.458037 0.409619 0.116715 
v -0.648653 0.41971 0.00382959 
v -0.458037 0.41971 0.00382958 
v -0.648653 0.40297 -0.00901441 
v -0.458037 0.40297 -0.00901442 
v -0.648653 0.382051 -0.00626041 
v -0.458037 0.382051 -0.00626042 
v -0.648653 0.49071 0.126806 
v -0.458037 0.49071 0.126806 
v -0.648653 0.47397 0.113961 
v -0.458037 0.47397 0.113961 
v -0.648653 0.453051 0.116715 
v -0.458037 0.453051 0.116715 
v -0.458037 0.440207 0.133455 
v -0.648653 0.440207 0.133455 
v -0.458037 0.342729 0.167708 
v -0.648653 0.342729 0.167708 
v -0.648653 0.556644 0.0791016 
v -0.458037 0.431335 0.20441 
v -0.458037 0.556644 0.0791016 
v -0.648653 0.431335 0.20441 
v -0.648653 0.519942 0.167708 
v -0.458037 0.519942 0.167708 
v -0.458037 0.502335 0.0515336 
v -0.648653 0.502335 0.0515336 
v -0.648653 0.482842 0.0596086 
v -0.458037 0.521829 0.0596086 
v -0.458037 0.482842 0.0596086 
v -0.648653 0.521829 0.0596086 
v -0.458037 0.529903 0.0791016 
v -0.648653 0.529903 0.0791016 
v -0.458037 0.482842 0.0985946 
v -0.458037 0.360335 0.0515336 
v -0.648653 0.360335 0.0515336 
v -0.648653 0.340842 0.0596086 
v -0.458037 0.379829 0.0596086 
v -0.458037 0.340842 0.0596086 
v -0.648653 0.379829 0.0596086 
v -0.648653 0.332767 0.0791016 
v -0.648653 0.422464 0.133455 
v -0.648653 0.371961 0.126806 
v -0.458037 0.422464 0.133455 
v -0.458037 0.371961 0.126806 
v -0.648653 0.409619 0.116715 
v -0.458037 0.3887 0.113961 
v -0.458037 0.409619 0.116715 
v -0.648653 0.3887 0.113961 
v -0.648653 0.442961 0.00382959 
v -0.458037 0.493464 0.0104786 
v -0.458037 0.442961 0.00382958 
v -0.648653 0.480619 -0.00626041 
v -0.458037 0.4597 -0.00901442 
v -0.458037 0.480619 -0.00626042 
v -0.648653 0.4597 -0.00901441 

vn -1 0 0 
vn -1 0 0 
vn -1 0 0 
vn -1 0 0 
vn -1 0 0 
vn -1 0 0 
vn -1 0 0 
vn -1 0 0 
vn -1 0 0 
vn -1 0 0 
vn -1 0 0 
vn -1 0 0 
vn -1 0 0 
vn -1 0 0 
vn -1 0 0 
vn -1 0 0 
vn -1 0 0 
vn -1 0 0 
vn -1 0 0 
vn -1 0 0 
vn -1 0 0 
vn -1 0 0 
vn -1 0 0 
vn -1 0 0 
vn -1 0 0 
vn -1 0 0 
vn -1 0 0 
vn -1 0 0 
vn -1 0 0 
vn -1 0 0 
vn -1 0 0 
vn -1 0 0 
vn -1 0 0 
vn -1 0 0 
vn -1 0 0 
vn -1 0 0 
vn -1 0 0 
vn -1 0 0 
vn -1 0 0 
vn -1 0 0 
vn -1 0 0 
vn -1 0 0 
vn -1 0 0 
vn -1 0 0 
vn -1 0 0 
vn -1 0 0 
vn -1 0 0 
vn -1 0 0 
vn -1 0 0 
vn -1 0 0 
vn -1 0 0 
vn -1 0 0 
vn -1 0 0 
vn -1 0 0 
vn -1 0 0 
vn -1 0 0 
vn -1 0 0 
vn -1 0 0 
vn 1 0 0 
vn 0 -0.259843 0.968504 
vn 0 -0.259843 0.968504 
vn 0 0.496063 0.866142 
vn 0 0.496063 0.866142 
vn 0 0.866142 -0.496063 
vn 0 0.968504 0.259843 
vn 0 0.866142 -0.496063 
vn 0 0.968504 0.259843 
vn 0 -0.866142 0.496063 
vn 0 0.259843 -0.968504 
vn 0 0.496063 0.866142 
vn 0 0.259843 -0.968504 
vn 0 0.496063 0.866142 
vn 0 0.866142 -0.496063 
vn 0 0.968504 0.259843 
vn 0 0.866142 -0.496063 
vn 0 0.968504 0.259843 
vn 0 0.708661 -0.708661 
vn 0 0.708661 -0.708661 
vn 0 1 0 
vn 0 1 0 
vn 0 0.708661 0.708661 
vn 0 0.708661 0.708661 
vn 0 0 1 
vn 0 0 1 
vn 0 0.708661 0.708661 
vn 0 0.708661 0.708661 
vn 0 1 0 
vn 0 1 0 
vn 0 0.708661 -0.708661 
vn 0 0.708661 -0.708661 
vn 0 0 -1 
vn 0 0.708661 0.708661 
vn 0 -0.708661 0.708661 
vn 0 0.708661 0.708661 
vn 0 1 0 
vn 0 1 0 
vn 0 0.708661 -0.708661 
vn 0 0.708661 -0.708661 
vn 0 0 -1 
vn 0 0 -1 
vn 0 -0.259843 -0.968504 
vn 0 -0.259843 -0.968504 
vn 0 0.496063 -0.866142 
vn 0 0.496063 -0.866142 
vn 0 0.968504 -0.259843 
vn 0 0.968504 -0.259843 
vn 0 0.866142 0.496063 
vn 0 0.866142 0.496063 
vn 0 -0.259843 -0.968504 
vn 0 0.496063 -0.866142 
vn 0 0.496063 -0.866142 
vn 0 0.968504 -0.259843 
vn 0 0.968504 -0.259843 
vn 0 0.866142 0.496063 
vn 0 0.866142 0.496063 
vn -1 0 0 
vn -1 0 0 
vn 1 0 0 
vn 0 -0.968504 -0.259843 
vn 0 -0.968504 -0.259843 
vn 0 -0.496063 -0.866142 
vn 0 -0.496063 -0.866142 
vn 0 0.259843 -0.968504 
vn 0 0.259843 -0.968504 
vn 0 0.866142 -0.496063 
vn 0 0.866142 -0.496063 
vn 0 -0.866142 0.496063 
vn 0 -0.496063 -0.866142 
vn 0 -0.496063 -0.866142 
vn 0 0.259843 -0.968504 
vn 0 0.259843 -0.968504 
vn 0 0.866142 -0.496063 
vn 0 0.866142 -0.496063 
vn 0 0.968504 0.259843 
vn 0 -0.708661 -0.708661 
vn 0 -0.708661 -0.708661 
vn 0 0 -1 
vn 0 0 -1 
vn 0 0.708661 -0.708661 
vn 0 0.708661 -0.708661 
vn 0 1 0 
vn 0 1 0 
vn 0 -1 0 
vn 0 -1 0 
vn 0 0.708661 -0.708661 
vn 0 -0.708661 -0.708661 
vn 0 0.708661 -0.708661 
vn 0 -0.708661 -0.708661 
vn 0 0 -1 
vn 0 0 -1 
vn 0 0.708661 -0.708661 
vn 0 -0.708661 -0.708661 
vn 0 0.708661 -0.708661 
vn 0 -0.708661 -0.708661 
vn 0 0 -1 
vn 0 0 -1 
vn 0 -0.259843 -0.968504 
vn 0 -0.259843 -0.968504 
vn 0 0.496063 -0.866142 
vn 0 0.496063 -0.866142 
vn 0 -0.866142 -0.496063 
vn 0 -0.866142 -0.496063 
vn 0 -0.259843 -0.968504 
vn 0 -0.259843 -0.968504 
vn 0 0.496063 -0.866142 
vn 0 0.496063 -0.866142 
vn 0 -0.866142 -0.496063 
vn 0 0.968504 -0.259843 
vn 0 -0.866142 -0.496063 
vn 1 0 0 
vn 1 0 0 
vn 1 0 0 
vn 1 0 0 
vn 1 0 0 
vn 1 0 0 
vn 1 0 0 
vn 1 0 0 
vn 1 0 0 
vn 1 0 0 
vn 1 0 0 
vn 1 0 0 
vn 1 0 0 
vn 1 0 0 
vn 1 0 0 
vn 1 0 0 
vn 1 0 0 
vn 1 0 0 
vn 1 0 0 
vn 1 0 0 
vn 1 0 0 
vn 1 0 0 
vn 1 0 0 
vn 1 0 0 
vn 1 0 0 
vn 1 0 0 
vn 1 0 0 
vn 1 0 0 
vn 1 0 0 
vn 1 0 0 
vn 1 0 0 
vn 1 0 0 
vn 1 0 0 
vn 1 0 0 
vn 1 0 0 
vn 1 0 0 
vn 1 0 0 
vn 1 0 0 
vn 1 0 0 
vn 1 0 0 
vn 1 0 0 
vn 1 0 0 
vn 1 0 0 
vn 1 0 0 
vn 1 0 0 
vn 1 0 0 
vn 1 0 0 
vn 1 0 0 
vn 1 0 0 
vn 1 0 0 
vn 1 0 0 
vn 1 0 0 
vn 1 0 0 
vn 1 0 0 
vn 1 0 0 
vn 1 0 0 
vn -1 0 0 
vn -1 0 0 
vn 1 0 0 
vn 0 -0.866142 0.496063 
vn 0 -0.968504 -0.259843 
vn 0 -0.968504 -0.259843 
vn 0 -0.866142 0.496063 
vn 0 -0.496063 -0.866142 
vn 0 -0.259843 0.968504 
vn 0 -0.496063 -0.866142 
vn 0 -0.259843 0.968504 
vn 0 0.866142 -0.496063 
vn 0 0.866142 -0.496063 
vn 0 -0.866142 0.496063 
vn 0 -0.968504 -0.259843 
vn 0 -0.968504 -0.259843 
vn 0 -0.866142 0.496063 
vn 0 -0.496063 -0.866142 
vn 0 -0.496063 -0.866142 
vn 0 0.259843 -0.968504 
vn 0 0.259843 -0.968504 
vn 0 -0.708661 -0.708661 
vn 0 -0.708661 -0.708661 
vn 0 0 -1 
vn 0 -1 0 
vn 0 0 -1 
vn 0 -1 0 
vn 0 -0.708661 0.708661 
vn 0 -0.708661 0.708661 
vn 0 0 1 
vn 0 0 1 
vn 0 0 1 
vn 0 -0.708661 0.708661 
vn 0 -0.708661 0.708661 
vn 0 -1 0 
vn 0 -1 0 
vn 0 -0.708661 -0.708661 
vn 0 -0.708661 -0.708661 
vn 0 0 -1 
vn 0 -0.708661 0.708661 
vn 0 -0.708661 0.708661 
vn 0 -1 0 
vn 0 -1 0 
vn 0 -0.708661 -0.708661 
vn 0 -0.708661 -0.708661 
vn 0 0 -1 
vn 0 0 -1 
vn 0 -0.259843 -0.968504 
vn 0 -0.259843 -0.968504 
vn 0 -0.866142 -0.496063 
vn 0 -0.866142 -0.496063 
vn 0 -0.968504 0.259843 
vn 0 -0.968504 0.259843 
vn 0 -0.496063 0.866142 
vn 0 -0.496063 0.866142 
vn 0 -0.259843 -0.968504 
vn 0 -0.866142 -0.496063 
vn 0 -0.866142 -0.496063 
vn 0 -0.968504 0.259843 
vn 0 -0.968504 0.259843 
vn 0 -0.496063 0.866142 
vn 0 -0.496063 0.866142 
vn -1 0 0 
vn -1 0 0 
vn 1 0 0 
vn 0 -0.866142 0.496063 
vn 0 -0.866142 0.496063 
vn 0 -0.259843 0.968504 
vn 0 -0.259843 0.968504 
vn 0 0.496063 0.866142 
vn 0 0.496063 0.866142 
vn 0 -0.866142 0.496063 
vn 0 -0.866142 0.496063 
vn 0 -0.259843 0.968504 
vn 0 -0.259843 0.968504 
vn 0 0.496063 0.866142 
vn 0 0.496063 0.866142 
vn 0 0.968504 0.259843 
vn 0 0.968504 0.259843 
vn 0 -0.708661 0.708661 
vn 0 -0.708661 0.708661 
vn 0 1 0 
vn 0 0 1 
vn 0 1 0 
vn 0 0 1 
vn 0 0.708661 0.708661 
vn 0 0.708661 0.708661 
vn 0 0 1 
vn 0 0 1 
vn 0 0.708661 0.708661 
vn 0 -0.708661 0.708661 
vn 0 0.708661 0.708661 
vn 0 -0.708661 0.708661 
vn 0 -1 0 
vn 0 -1 0 
vn 0 0.708661 -0.708661 
vn 0 0 1 
vn 0 0 1 
vn 0 0.708661 0.708661 
vn 0 -0.708661 0.708661 
vn 0 0.708661 0.708661 
vn 0 -0.708661 0.708661 
vn 0 1 0 
vn 0 -0.968504 0.259843 
vn 0 0.866142 0.496063 
vn 0 -0.968504 0.259843 
vn 0 0.866142 0.496063 
vn 0 -0.496063 0.866142 
vn 0 0.259843 0.968504 
vn 0 -0.496063 0.866142 
vn 0 0.259843 0.968504 
vn 0 0.866142 0.496063 
vn 0 -0.968504 0.259843 
vn 0 0.866142 0.496063 
vn 0 -0.496063 0.866142 
vn 0 0.259843 0.968504 
vn 0 -0.496063 0.866142 
vn 0 0.259843 0.968504 

vt 5.91464 -10.9507 
vt 5.87469 -11 
vt 5.91188 -10.9716 
vt 5.92473 -10.9884 
vt 5.91139 -10.9114 
vt 5.93138 -10.9379 
vt 5.92473 -11.0116 
vt 5.94565 -10.9911 
vt 5.91188 -11.0284 
vt 5.94565 -11.0089 
vt 5.91464 -11.0493 
vt 5.91139 -11.0886 
vt 5.96239 -10.9783 
vt 5.93138 -11.0621 
vt 5.96239 -11.0217 
vt 5.98051 -11.0905 
vt 6 -11.1253 
vt 5.97243 -11.071 
vt 6 -11.0986 
vt 5.9523 -11.0594 
vt 6.01949 -11.0905 
vt 5.96514 -11.0426 
vt 5.98051 -11.0515 
vt 6.08861 -11.0886 
vt 6 -11.0434 
vt 6.06862 -11.0621 
vt 6.02757 -11.071 
vt 6.08536 -11.0493 
vt 6.0477 -11.0594 
vt 6.03486 -11.0426 
vt 6.01949 -11.0515 
vt 6.12531 -11 
vt 6.03761 -11.0217 
vt 6.08812 -11.0284 
vt 6.03761 -10.9783 
vt 6.07527 -11.0116 
vt 6.05435 -11.0089 
vt 6.05435 -10.9911 
vt 6.07527 -10.9884 
vt 6.08812 -10.9716 
vt 6.08536 -10.9507 
vt 6.08861 -10.9114 
vt 6.06862 -10.9379 
vt 6.01949 -10.9095 
vt 6.0477 -10.9406 
vt 6 -10.8747 
vt 6.02757 -10.929 
vt 6 -10.9014 
vt 6.03486 -10.9574 
vt 6.01949 -10.9485 
vt 5.98051 -10.9095 
vt 5.9523 -10.9406 
vt 5.97243 -10.929 
vt 5.96514 -10.9574 
vt 5.98051 -10.9485 
vt 6 -10.9566 
vt 5.90469 -10.9114 
vt 5.90469 -11 
vt 6.09531 -11.0376 
vt 5.90469 -10.9119 
vt 6.09531 -10.9119 
vt 5.90469 -10.9146 
vt 6.09531 -10.9146 
vt 5.90469 -10.9523 
vt 6.09531 -10.9314 
vt 6.09531 -10.9523 
vt 5.90469 -10.9314 
vt 6.09531 -11.0477 
vt 5.90469 -11.0881 
vt 5.90469 -11.0376 
vt 6.09531 -11.0881 
vt 6.09531 -11.0376 
vt 5.90469 -11.0753 
vt 6.09531 -11.0544 
vt 6.09531 -11.0753 
vt 5.90469 -11.0544 
vt 5.90469 -10.9114 
vt 6.09531 -10.9114 
vt 5.90469 -11 
vt 6.09531 -11 
vt 5.90469 -11.0886 
vt 6.09531 -11.0886 
vt 6.09531 -10.9724 
vt 5.90469 -10.9724 
vt 5.90469 -10.9805 
vt 6.09531 -10.9805 
vt 6.09531 -11 
vt 5.90469 -11 
vt 6.09531 -11.0195 
vt 5.90469 -11.0195 
vt 5.90469 -11.0276 
vt 5.90469 -10.9805 
vt 6.09531 -10.9805 
vt 6.09531 -10.9805 
vt 6.09531 -11 
vt 5.90469 -11 
vt 6.09531 -11.0195 
vt 5.90469 -11.0195 
vt 6.09531 -11.0276 
vt 5.90469 -11.0276 
vt 5.90469 -11.0881 
vt 6.09531 -11.0881 
vt 5.90469 -11.0854 
vt 6.09531 -11.0854 
vt 5.90469 -11.0686 
vt 6.09531 -11.0686 
vt 5.90469 -11.0477 
vt 6.09531 -11.0477 
vt 6.09531 -10.9651 
vt 5.90469 -10.9624 
vt 6.09531 -10.9624 
vt 5.90469 -10.9456 
vt 6.09531 -10.9456 
vt 5.90469 -10.9247 
vt 6.09531 -10.9247 
vt 6.09531 -10.9114 
vt 6.09531 -11.0284 
vt 5.90469 -11.0217 
vt 5.90469 -11.0089 
vt 6.09531 -11.0089 
vt 5.90469 -11.0217 
vt 6.09531 -11.0217 
vt 6.09531 -11.0426 
vt 5.90469 -11.0426 
vt 6.09531 -11.0594 
vt 5.90469 -11.0594 
vt 6.09531 -10.9406 
vt 5.90469 -10.9507 
vt 6.09531 -10.9507 
vt 6.09531 -10.9716 
vt 5.90469 -10.9716 
vt 6.09531 -10.9884 
vt 5.90469 -10.9884 
vt 6.09531 -10.9911 
vt 5.90469 -11.0886 
vt 6.09531 -11.0886 
vt 6.09531 -11 
vt 5.90469 -11 
vt 6.09531 -10.9114 
vt 5.90469 -10.9114 
vt 6.09531 -10.8747 
vt 5.90469 -10.8747 
vt 5.90469 -10.9014 
vt 6.09531 -10.9014 
vt 5.90469 -10.9485 
vt 5.90469 -10.9095 
vt 6.09531 -10.9485 
vt 6.09531 -10.9095 
vt 5.90469 -10.929 
vt 6.09531 -10.929 
vt 5.90469 -11.0905 
vt 5.90469 -11.0515 
vt 6.09531 -11.0905 
vt 6.09531 -11.0515 
vt 5.90469 -11.071 
vt 6.09531 -11.071 
vt 6.09531 -11.0284 
vt 5.90469 -11.0284 
vt 6.09531 -11.0493 
vt 5.90469 -11.0493 
vt 5.90469 -11.0116 
vt 6.09531 -11.0116 
vt 6.09531 -10.9574 
vt 5.90469 -10.9574 
vt 6.09531 -10.9783 
vt 5.90469 -10.9783 
vt 5.90469 -10.9406 
vt 6.09531 -10.9911 
vt 6.09531 -10.9406 
vt 5.96514 -10.9574 
vt 6 -10.9566 
vt 5.98051 -10.9485 
vt 5.97243 -10.929 
vt 5.9523 -10.9406 
vt 5.98051 -10.9095 
vt 5.93138 -10.9379 
vt 5.91139 -10.9114 
vt 5.91464 -10.9507 
vt 6 -10.8747 
vt 6 -10.9014 
vt 5.87469 -11 
vt 6.01949 -10.9095 
vt 5.91188 -10.9716 
vt 6.08861 -10.9114 
vt 5.92473 -10.9884 
vt 5.92473 -11.0116 
vt 5.94565 -10.9911 
vt 5.91188 -11.0284 
vt 5.94565 -11.0089 
vt 5.91464 -11.0493 
vt 5.91139 -11.0886 
vt 5.93138 -11.0621 
vt 5.96239 -10.9783 
vt 5.98051 -11.0905 
vt 6 -11.1253 
vt 5.97243 -11.071 
vt 6 -11.0986 
vt 5.9523 -11.0594 
vt 6.01949 -11.0905 
vt 5.96514 -11.0426 
vt 5.98051 -11.0515 
vt 6.08861 -11.0886 
vt 5.96239 -11.0217 
vt 6 -11.0434 
vt 6.06862 -11.0621 
vt 6.02757 -11.071 
vt 6.08536 -11.0493 
vt 6.0477 -11.0594 
vt 6.03486 -11.0426 
vt 6.01949 -11.0515 
vt 6.12531 -11 
vt 6.03761 -11.0217 
vt 6.08812 -11.0284 
vt 6.07527 -11.0116 
vt 6.07527 -10.9884 
vt 6.05435 -10.9911 
vt 6.08812 -10.9716 
vt 6.05435 -11.0089 
vt 6.08536 -10.9507 
vt 6.06862 -10.9379 
vt 6.0477 -10.9406 
vt 6.02757 -10.929 
vt 6.03486 -10.9574 
vt 6.01949 -10.9485 
vt 6.03761 -10.9783 
vt 6.09531 -10.9114 
vt 6.09531 -11 
vt 5.90469 -11.0376 
vt 6.09531 -10.9247 
vt 5.90469 -10.9456 
vt 6.09531 -10.9456 
vt 5.90469 -10.9247 
vt 5.90469 -10.9624 
vt 6.09531 -10.9119 
vt 6.09531 -10.9624 
vt 5.90469 -10.9119 
vt 6.09531 -10.9523 
vt 5.90469 -10.9523 
vt 6.09531 -11.0477 
vt 5.90469 -11.0686 
vt 6.09531 -11.0686 
vt 5.90469 -11.0477 
vt 5.90469 -11.0854 
vt 6.09531 -11.0854 
vt 6.09531 -11.0881 
vt 5.90469 -11.0881 
vt 5.90469 -10.9114 
vt 6.09531 -10.9114 
vt 6.09531 -10.8747 
vt 5.90469 -11 
vt 5.90469 -10.8747 
vt 6.09531 -11 
vt 5.90469 -11.0886 
vt 6.09531 -11.0886 
vt 5.90469 -11.1253 
vt 6.09531 -11.1253 
vt 6.09531 -10.9724 
vt 5.90469 -10.9805 
vt 6.09531 -10.9805 
vt 5.90469 -11 
vt 6.09531 -11 
vt 5.90469 -11.0195 
vt 6.09531 -11.0195 
vt 6.09531 -11.0276 
vt 5.90469 -10.9805 
vt 6.09531 -10.9805 
vt 5.90469 -11 
vt 6.09531 -11 
vt 5.90469 -11.0195 
vt 6.09531 -11.0195 
vt 5.90469 -11.0276 
vt 6.09531 -11.0276 
vt 6.09531 -11.0881 
vt 5.90469 -11.0881 
vt 5.90469 -11.0753 
vt 6.09531 -11.0753 
vt 6.09531 -11.0544 
vt 5.90469 -11.0544 
vt 6.09531 -11.0376 
vt 5.90469 -11.0376 
vt 5.90469 -10.9651 
vt 5.90469 -10.9523 
vt 6.09531 -10.9523 
vt 6.09531 -10.9314 
vt 5.90469 -10.9314 
vt 6.09531 -10.9146 
vt 5.90469 -10.9146 
vt 5.90469 -10.9114 
vt 5.90469 -11.0284 
vt 6.09531 -11.0217 
vt 5.90469 -11.0116 
vt 6.09531 -11.0116 
vt 5.90469 -11.0284 
vt 6.09531 -11.0284 
vt 5.90469 -11.0493 
vt 6.09531 -11.0493 
vt 5.90469 -10.9406 
vt 6.09531 -10.9406 
vt 5.90469 -10.9574 
vt 6.09531 -10.9574 
vt 5.90469 -10.9783 
vt 6.09531 -10.9783 
vt 6.09531 -10.9911 
vt 5.90469 -10.9911 
vt 6.09531 -11.0886 
vt 5.90469 -11.0886 
vt 5.90469 -10.8747 
vt 6.09531 -11 
vt 6.09531 -10.8747 
vt 5.90469 -11 
vt 5.90469 -10.9114 
vt 6.09531 -10.9114 
vt 6.09531 -10.929 
vt 5.90469 -10.929 
vt 5.90469 -10.9485 
vt 6.09531 -10.9095 
vt 6.09531 -10.9485 
vt 5.90469 -10.9095 
vt 6.09531 -10.9014 
vt 5.90469 -10.9014 
vt 6.09531 -10.9485 
vt 6.09531 -11.071 
vt 5.90469 -11.071 
vt 5.90469 -11.0905 
vt 6.09531 -11.0515 
vt 6.09531 -11.0905 
vt 5.90469 -11.0515 
vt 5.90469 -11.0986 
vt 5.90469 -11.0089 
vt 5.90469 -11.0594 
vt 6.09531 -11.0089 
vt 6.09531 -11.0594 
vt 5.90469 -11.0217 
vt 6.09531 -11.0426 
vt 6.09531 -11.0217 
vt 5.90469 -11.0426 
vt 5.90469 -10.9884 
vt 6.09531 -10.9379 
vt 6.09531 -10.9884 
vt 5.90469 -10.9507 
vt 6.09531 -10.9716 
vt 6.09531 -10.9507 
vt 5.90469 -10.9716 

usemtl Meshpart1Mtl

f 1/1/1 2/2/2 3/3/3 
f 2/2/2 4/4/4 3/3/3 
f 2/2/2 1/1/1 5/5/5 
f 6/6/6 5/5/5 1/1/1 
f 7/7/7 4/4/4 2/2/2 
f 4/4/4 7/7/7 8/8/8 
f 2/2/2 9/9/9 7/7/7 
f 8/8/8 7/7/7 10/10/10 
f 2/2/2 11/11/11 9/9/9 
f 2/2/2 12/12/12 11/11/11 
f 13/13/13 8/8/8 10/10/10 
f 12/12/12 14/14/14 11/11/11 
f 15/15/15 13/13/13 10/10/10 
f 16/16/16 14/14/14 12/12/12 
f 17/17/17 16/16/16 12/12/12 
f 18/18/18 14/14/14 16/16/16 
f 16/16/16 17/17/17 19/19/19 
f 14/14/14 18/18/18 20/20/20 
f 19/19/19 17/17/17 21/21/21 
f 18/18/18 22/22/22 20/20/20 
f 22/22/22 18/18/18 23/23/23 
f 23/23/23 15/15/15 22/22/22 
f 24/24/24 21/21/21 17/17/17 
f 15/15/15 23/23/23 25/25/25 
f 21/21/21 24/24/24 26/26/26 
f 26/26/26 27/27/27 21/21/21 
f 24/24/24 28/28/28 26/26/26 
f 27/27/27 26/26/26 29/29/29 
f 30/30/30 27/27/27 29/29/29 
f 27/27/27 30/30/30 31/31/31 
f 32/32/32 28/28/28 24/24/24 
f 33/33/33 31/31/31 30/30/30 
f 31/31/31 33/33/33 25/25/25 
f 33/33/33 15/15/15 25/25/25 
f 28/28/28 32/32/32 34/34/34 
f 15/15/15 33/33/33 35/35/35 
f 32/32/32 36/36/36 34/34/34 
f 15/15/15 35/35/35 13/13/13 
f 37/37/37 35/35/35 33/33/33 
f 36/36/36 38/38/38 37/37/37 
f 35/35/35 37/37/37 38/38/38 
f 38/38/38 36/36/36 39/39/39 
f 32/32/32 39/39/39 36/36/36 
f 39/39/39 32/32/32 40/40/40 
f 32/32/32 41/41/41 40/40/40 
f 41/41/41 32/32/32 42/42/42 
f 43/43/43 41/41/41 42/42/42 
f 44/44/44 43/43/43 42/42/42 
f 43/43/43 44/44/44 45/45/45 
f 46/46/46 44/44/44 42/42/42 
f 45/45/45 44/44/44 47/47/47 
f 44/44/44 46/46/46 48/48/48 
f 47/47/47 49/49/49 45/45/45 
f 49/49/49 47/47/47 50/50/50 
f 51/51/51 48/48/48 46/46/46 
f 5/5/5 51/51/51 46/46/46 
f 51/51/51 5/5/5 6/6/6 
f 52/52/52 51/51/51 6/6/6 
f 51/51/51 52/52/52 53/53/53 
f 54/54/54 53/53/53 52/52/52 
f 53/53/53 54/54/54 55/55/55 
f 54/54/54 56/56/56 55/55/55 
f 56/56/56 49/49/49 50/50/50 
f 56/56/56 54/54/54 13/13/13 
f 35/35/35 49/49/49 56/56/56 
f 13/13/13 35/35/35 56/56/56 
f 62/62/62 65/65/65 63/63/63 
f 65/65/65 62/62/62 67/67/67 
f 66/66/66 67/67/67 64/64/64 
f 67/67/67 66/66/66 65/65/65 
f 70/70/70 74/74/74 72/72/72 
f 74/74/74 70/70/70 76/76/76 
f 75/75/75 76/76/76 73/73/73 
f 76/76/76 75/75/75 74/74/74 
f 79/79/79 78/78/78 77/77/77 
f 79/79/79 80/80/80 78/78/78 
f 81/81/81 80/80/80 79/79/79 
f 81/81/81 82/82/82 80/80/80 
f 85/85/85 87/87/87 86/86/86 
f 87/87/87 85/85/85 88/88/88 
f 88/88/88 89/89/89 87/87/87 
f 89/89/89 88/88/88 90/90/90 
f 92/92/92 95/95/95 94/94/94 
f 95/95/95 92/92/92 96/96/96 
f 96/96/96 97/97/97 95/95/95 
f 97/97/97 96/96/96 98/98/98 
f 104/104/104 105/105/105 103/103/103 
f 105/105/105 104/104/104 106/106/106 
f 106/106/106 107/107/107 105/105/105 
f 107/107/107 106/106/106 108/108/108 
f 111/111/111 112/112/112 110/110/110 
f 112/112/112 111/111/111 113/113/113 
f 113/113/113 114/114/114 112/112/112 
f 114/114/114 113/113/113 115/115/115 
f 122/122/122 121/121/121 123/123/123 
f 124/124/124 123/123/123 121/121/121 
f 123/123/123 124/124/124 125/125/125 
f 126/126/126 125/125/125 124/124/124 
f 129/129/129 128/128/128 130/130/130 
f 131/131/131 130/130/130 128/128/128 
f 130/130/130 131/131/131 132/132/132 
f 133/133/133 132/132/132 131/131/131 
f 135/135/135 136/136/136 137/137/137 
f 135/135/135 137/137/137 138/138/138 
f 138/138/138 137/137/137 139/139/139 
f 138/138/138 139/139/139 140/140/140 
f 145/145/145 147/147/147 149/149/149 
f 148/148/148 146/146/146 150/150/150 
f 150/150/150 149/149/149 147/147/147 
f 149/149/149 150/150/150 146/146/146 
f 151/151/151 153/153/153 155/155/155 
f 154/154/154 152/152/152 156/156/156 
f 156/156/156 155/155/155 153/153/153 
f 155/155/155 156/156/156 152/152/152 
f 157/157/157 158/158/158 159/159/159 
f 160/160/160 159/159/159 158/158/158 
f 158/158/158 157/157/157 161/161/161 
f 162/162/162 161/161/161 157/157/157 
f 163/163/163 164/164/164 165/165/165 
f 166/166/166 165/165/165 164/164/164 
f 164/164/164 163/163/163 167/167/167 
f 169/169/169 167/167/167 163/163/163 
f 170/170/170 171/171/171 172/172/172 
f 173/173/173 170/170/170 172/172/172 
f 170/170/170 173/173/173 174/174/174 
f 175/175/175 174/174/174 173/173/173 
f 175/175/175 176/176/176 174/174/174 
f 175/175/175 177/177/177 176/176/176 
f 177/177/177 178/178/178 176/176/176 
f 177/177/177 175/175/175 179/179/179 
f 180/180/180 179/179/179 175/175/175 
f 181/181/181 178/178/178 177/177/177 
f 182/182/182 179/179/179 180/180/180 
f 178/178/178 181/181/181 183/183/183 
f 179/179/179 182/182/182 184/184/184 
f 181/181/181 185/185/185 183/183/183 
f 181/181/181 186/186/186 185/185/185 
f 186/186/186 187/187/187 185/185/185 
f 186/186/186 181/181/181 188/188/188 
f 187/187/187 186/186/186 189/189/189 
f 181/181/181 190/190/190 188/188/188 
f 190/190/190 181/181/181 191/191/191 
f 191/191/191 192/192/192 190/190/190 
f 189/189/189 193/193/193 187/187/187 
f 194/194/194 192/192/192 191/191/191 
f 195/195/195 194/194/194 191/191/191 
f 196/196/196 192/192/192 194/194/194 
f 194/194/194 195/195/195 197/197/197 
f 192/192/192 196/196/196 198/198/198 
f 195/195/195 199/199/199 197/197/197 
f 196/196/196 200/200/200 198/198/198 
f 200/200/200 196/196/196 201/201/201 
f 202/202/202 199/199/199 195/195/195 
f 203/203/203 200/200/200 201/201/201 
f 193/193/193 189/189/189 203/203/203 
f 204/204/204 203/203/203 201/201/201 
f 199/199/199 202/202/202 205/205/205 
f 205/205/205 206/206/206 199/199/199 
f 207/207/207 205/205/205 202/202/202 
f 206/206/206 205/205/205 208/208/208 
f 209/209/209 206/206/206 208/208/208 
f 206/206/206 209/209/209 210/210/210 
f 211/211/211 207/207/207 202/202/202 
f 212/212/212 210/210/210 209/209/209 
f 210/210/210 212/212/212 204/204/204 
f 212/212/212 203/203/203 204/204/204 
f 203/203/203 212/212/212 193/193/193 
f 207/207/207 211/211/211 213/213/213 
f 211/211/211 214/214/214 213/213/213 
f 211/211/211 215/215/215 214/214/214 
f 216/216/216 214/214/214 215/215/215 
f 215/215/215 211/211/211 217/217/217 
f 214/214/214 216/216/216 218/218/218 
f 211/211/211 219/219/219 217/217/217 
f 219/219/219 211/211/211 184/184/184 
f 220/220/220 219/219/219 184/184/184 
f 182/182/182 220/220/220 184/184/184 
f 220/220/220 182/182/182 221/221/221 
f 221/221/221 182/182/182 222/222/222 
f 222/222/222 223/223/223 221/221/221 
f 223/223/223 222/222/222 224/224/224 
f 171/171/171 223/223/223 224/224/224 
f 171/171/171 225/225/225 223/223/223 
f 225/225/225 218/218/218 216/216/216 
f 218/218/218 225/225/225 212/212/212 
f 225/225/225 193/193/193 212/212/212 
f 193/193/193 225/225/225 171/171/171 
f 171/171/171 170/170/170 193/193/193 
f 229/229/229 230/230/230 231/231/231 
f 230/230/230 229/229/229 232/232/232 
f 233/233/233 231/231/231 230/230/230 
f 231/231/231 233/233/233 235/235/235 
f 239/239/239 240/240/240 241/241/241 
f 240/240/240 239/239/239 242/242/242 
f 243/243/243 241/241/241 240/240/240 
f 241/241/241 243/243/243 244/244/244 
f 250/250/250 248/248/248 247/247/247 
f 250/250/250 252/252/252 248/248/248 
f 253/253/253 252/252/252 250/250/250 
f 253/253/253 254/254/254 252/252/252 
f 260/260/260 259/259/259 258/258/258 
f 260/260/260 261/261/261 259/259/259 
f 262/262/262 261/261/261 260/260/260 
f 262/262/262 263/263/263 261/261/261 
f 267/267/267 266/266/266 265/265/265 
f 267/267/267 268/268/268 266/266/266 
f 269/269/269 268/268/268 267/267/267 
f 269/269/269 270/270/270 268/268/268 
f 277/277/277 275/275/275 276/276/276 
f 275/275/275 277/277/277 278/278/278 
f 279/279/279 278/278/278 277/277/277 
f 278/278/278 279/279/279 280/280/280 
f 284/284/284 282/282/282 283/283/283 
f 282/282/282 284/284/284 285/285/285 
f 286/286/286 285/285/285 284/284/284 
f 285/285/285 286/286/286 287/287/287 
f 293/293/293 292/292/292 291/291/291 
f 292/292/292 293/293/293 294/294/294 
f 295/295/295 294/294/294 293/293/293 
f 294/294/294 295/295/295 296/296/296 
f 299/299/299 298/298/298 297/297/297 
f 298/298/298 299/299/299 300/300/300 
f 301/301/301 300/300/300 299/299/299 
f 300/300/300 301/301/301 302/302/302 
f 308/308/308 306/306/306 305/305/305 
f 308/308/308 310/310/310 306/306/306 
f 312/312/312 310/310/310 308/308/308 
f 312/312/312 311/311/311 310/310/310 
f 313/313/313 314/314/314 315/315/315 
f 316/316/316 314/314/314 313/313/313 
f 313/313/313 315/315/315 317/317/317 
f 316/316/316 318/318/318 314/314/314 
f 322/322/322 323/323/323 324/324/324 
f 325/325/325 323/323/323 322/322/322 
f 322/322/322 324/324/324 326/326/326 
f 325/325/325 327/327/327 323/323/323 
f 334/334/334 330/330/330 332/332/332 
f 330/330/330 334/334/334 336/336/336 
f 336/336/336 335/335/335 333/333/333 
f 335/335/335 336/336/336 334/334/334 
f 341/341/341 337/337/337 339/339/339 
f 337/337/337 341/341/341 343/343/343 
f 343/343/343 342/342/342 340/340/340 
f 342/342/342 343/343/343 341/341/341 

g Meshpart2

v -0.61869 0.307579 0.0791016 
v -0.595895 0.35515 0.00300758 
v -0.61869 0.3438 -0.00834341 
v -0.595895 0.323631 0.0791016 
v -0.595895 0.35515 0.155196 
v -0.61869 0.3438 0.166547 
v -0.510795 0.35515 0.00300758 
v -0.510795 0.323631 0.0791016 
v -0.488 0.307579 0.0791016 
v -0.510795 0.35515 0.155196 
v -0.488 0.3438 -0.00834341 
v -0.488 0.3438 0.166547 
v -0.61869 0.518689 -0.00834341 
v -0.591377 0.530883 -0.0205364 
v -0.591377 0.572154 0.0791016 
v -0.61869 0.554909 0.0791016 
v -0.61869 0.518689 0.166547 
v -0.591377 0.530883 0.17874 
v -0.488 0.518689 -0.00834341 
v -0.488 0.518689 0.166547 
v -0.515313 0.530883 -0.0205364 
v -0.515313 0.530883 0.17874 
v -0.515313 0.572154 0.0791016 
v -0.488 0.554909 0.0791016 
v -0.564063 0.518689 -0.00834341 
v -0.564063 0.518689 0.166547 
v -0.591377 0.530883 -0.0205364 
v -0.591377 0.530883 0.17874 
v -0.591377 0.572154 0.0791016 
v -0.564063 0.554909 0.0791016 
v -0.542627 0.518689 -0.00834341 
v -0.515313 0.530883 -0.0205364 
v -0.515313 0.572154 0.0791016 
v -0.542627 0.554909 0.0791016 
v -0.542627 0.518689 0.166547 
v -0.515313 0.530883 0.17874 
v -0.595895 0.35515 0.00300758 
v -0.595895 0.323631 0.0791016 
v -0.564063 0.307579 0.0791016 
v -0.595895 0.35515 0.155196 
v -0.564063 0.3438 -0.00834341 
v -0.564063 0.3438 0.166547 
v -0.564063 0.431244 -0.0445634 
v -0.564063 0.431244 0.202767 
v -0.595895 0.431244 -0.0285114 
v -0.595895 0.431244 0.186715 
v -0.542627 0.307579 0.0791016 
v -0.510795 0.35515 0.00300758 
v -0.542627 0.3438 -0.00834341 
v -0.542627 0.431244 -0.0445634 
v -0.510795 0.323631 0.0791016 
v -0.510795 0.431244 -0.0285114 
v -0.510795 0.35515 0.155196 
v -0.542627 0.3438 0.166547 
v -0.595895 0.35515 0.155196 
v -0.61869 0.3438 0.166547 
v -0.61869 0.431244 0.202767 
v -0.595895 0.431244 0.186715 
v -0.595895 0.507338 0.155196 
v -0.61869 0.518689 0.166547 
v -0.510795 0.35515 0.155196 
v -0.488 0.3438 0.166547 
v -0.488 0.431244 0.202767 
v -0.510795 0.431244 0.186715 
v -0.510795 0.507338 0.155196 
v -0.488 0.518689 0.166547 
v -0.61869 0.3438 -0.00834341 
v -0.591377 0.331606 -0.0205364 
v -0.591377 0.431244 -0.0618084 
v -0.61869 0.431244 -0.0445634 
v -0.61869 0.518689 -0.00834341 
v -0.591377 0.530883 -0.0205364 
v -0.488 0.3438 -0.00834341 
v -0.515313 0.331606 -0.0205364 
v -0.515313 0.431244 -0.0618084 
v -0.488 0.431244 -0.0445634 
v -0.488 0.518689 -0.00834341 
v -0.515313 0.530883 -0.0205364 
v -0.564063 0.3438 -0.00834341 
v -0.591377 0.331606 -0.0205364 
v -0.591377 0.431244 -0.0618084 
v -0.564063 0.431244 -0.0445634 
v -0.564063 0.518689 -0.00834341 
v -0.591377 0.530883 -0.0205364 
v -0.542627 0.3438 -0.00834341 
v -0.515313 0.331606 -0.0205364 
v -0.515313 0.431244 -0.0618084 
v -0.542627 0.431244 -0.0445634 
v -0.542627 0.518689 -0.00834341 
v -0.515313 0.530883 -0.0205364 
v -0.595895 0.35515 0.155196 
v -0.564063 0.3438 0.166547 
v -0.564063 0.431244 0.202767 
v -0.595895 0.431244 0.186715 
v -0.595895 0.507338 0.155196 
v -0.564063 0.518689 0.166547 
v -0.510795 0.35515 0.155196 
v -0.542627 0.3438 0.166547 
v -0.542627 0.431244 0.202767 
v -0.510795 0.431244 0.186715 
v -0.510795 0.507338 0.155196 
v -0.542627 0.518689 0.166547 
v -0.595895 0.507338 0.00300758 
v -0.61869 0.518689 -0.00834341 
v -0.61869 0.554909 0.0791016 
v -0.595895 0.538857 0.0791016 
v -0.595895 0.507338 0.155196 
v -0.61869 0.518689 0.166547 
v -0.510795 0.507338 0.00300758 
v -0.510795 0.507338 0.155196 
v -0.488 0.518689 -0.00834341 
v -0.488 0.518689 0.166547 
v -0.488 0.554909 0.0791016 
v -0.510795 0.538857 0.0791016 
v -0.591377 0.290334 0.0791016 
v -0.61869 0.3438 -0.00834341 
v -0.591377 0.331606 -0.0205364 
v -0.61869 0.307579 0.0791016 
v -0.61869 0.3438 0.166547 
v -0.591377 0.331606 0.178741 
v -0.488 0.3438 -0.00834341 
v -0.488 0.307579 0.0791016 
v -0.515313 0.290334 0.0791016 
v -0.488 0.3438 0.166547 
v -0.515313 0.331606 -0.0205364 
v -0.515313 0.331606 0.178741 
v -0.564063 0.3438 -0.00834341 
v -0.564063 0.307579 0.0791016 
v -0.591377 0.290334 0.0791016 
v -0.564063 0.3438 0.166547 
v -0.591377 0.331606 -0.0205364 
v -0.591377 0.331606 0.178741 
v -0.515313 0.290334 0.0791016 
v -0.542627 0.3438 -0.00834341 
v -0.515313 0.331606 -0.0205364 
v -0.542627 0.307579 0.0791016 
v -0.542627 0.3438 0.166547 
v -0.515313 0.331606 0.178741 
v -0.564063 0.431244 -0.0445634 
v -0.564063 0.431244 0.202767 
v -0.595895 0.431244 -0.0285114 
v -0.595895 0.431244 0.186715 
v -0.595895 0.507338 0.00300758 
v -0.595895 0.507338 0.155196 
v -0.564063 0.518689 -0.00834341 
v -0.564063 0.518689 0.166547 
v -0.564063 0.554909 0.0791016 
v -0.595895 0.538857 0.0791016 
v -0.542627 0.431244 -0.0445634 
v -0.510795 0.431244 -0.0285114 
v -0.510795 0.507338 0.00300758 
v -0.542627 0.518689 -0.00834341 
v -0.542627 0.431244 0.202767 
v -0.542627 0.554909 0.0791016 
v -0.510795 0.431244 0.186715 
v -0.510795 0.538857 0.0791016 
v -0.510795 0.507338 0.155196 
v -0.542627 0.518689 0.166547 
v -0.595895 0.35515 0.00300758 
v -0.61869 0.3438 -0.00834341 
v -0.61869 0.431244 -0.0445634 
v -0.595895 0.431244 -0.0285114 
v -0.595895 0.507338 0.00300758 
v -0.61869 0.518689 -0.00834341 
v -0.510795 0.35515 0.00300758 
v -0.488 0.3438 -0.00834341 
v -0.488 0.431244 -0.0445634 
v -0.510795 0.431244 -0.0285114 
v -0.510795 0.507338 0.00300758 
v -0.488 0.518689 -0.00834341 
v -0.61869 0.3438 0.166547 
v -0.591377 0.331606 0.178741 
v -0.591377 0.431244 0.220012 
v -0.61869 0.431244 0.202767 
v -0.61869 0.518689 0.166547 
v -0.591377 0.530883 0.17874 
v -0.488 0.3438 0.166547 
v -0.515313 0.331606 0.178741 
v -0.515313 0.431244 0.220012 
v -0.488 0.431244 0.202767 
v -0.488 0.518689 0.166547 
v -0.515313 0.530883 0.17874 
v -0.564063 0.3438 0.166547 
v -0.591377 0.331606 0.178741 
v -0.591377 0.431244 0.220012 
v -0.564063 0.431244 0.202767 
v -0.564063 0.518689 0.166547 
v -0.591377 0.530883 0.17874 
v -0.542627 0.3438 0.166547 
v -0.515313 0.331606 0.178741 
v -0.515313 0.431244 0.220012 
v -0.542627 0.431244 0.202767 
v -0.542627 0.518689 0.166547 
v -0.515313 0.530883 0.17874 
v -0.595895 0.35515 0.00300758 
v -0.564063 0.3438 -0.00834341 
v -0.564063 0.431244 -0.0445634 
v -0.595895 0.431244 -0.0285114 
v -0.595895 0.507338 0.00300758 
v -0.564063 0.518689 -0.00834341 
v -0.510795 0.35515 0.00300758 
v -0.542627 0.3438 -0.00834341 
v -0.542627 0.431244 -0.0445634 
v -0.510795 0.431244 -0.0285114 
v -0.510795 0.507338 0.00300758 
v -0.542627 0.518689 -0.00834341 

vn -0.574803 0.818898 0 
vn -0.574803 0.574803 0.574803 
vn -0.574803 0.574803 0.574803 
vn -0.574803 0.818898 0 
vn -0.574803 0.574803 -0.574803 
vn -0.574803 0.574803 -0.574803 
vn 0.574803 0.574803 0.574803 
vn 0.574803 0.818898 0 
vn 0.574803 0.818898 0 
vn 0.574803 0.574803 -0.574803 
vn 0.574803 0.574803 0.574803 
vn 0.574803 0.574803 -0.574803 
vn -0.535433 0.598425 -0.598425 
vn -0.535433 0.598425 -0.598425 
vn -0.535433 0.84252 0 
vn -0.535433 0.84252 0 
vn -0.535433 0.598425 0.598425 
vn -0.535433 0.598425 0.598425 
vn 0.535433 0.598425 -0.598425 
vn 0.535433 0.598425 0.598425 
vn 0.535433 0.598425 -0.598425 
vn 0.535433 0.598425 0.598425 
vn 0.535433 0.84252 0 
vn 0.535433 0.84252 0 
vn 0.535433 0.598425 -0.598425 
vn 0.535433 0.598425 0.598425 
vn 0.535433 0.598425 -0.598425 
vn 0.535433 0.598425 0.598425 
vn 0.535433 0.84252 0 
vn 0.535433 0.84252 0 
vn -0.535433 0.598425 -0.598425 
vn -0.535433 0.598425 -0.598425 
vn -0.535433 0.84252 0 
vn -0.535433 0.84252 0 
vn -0.535433 0.598425 0.598425 
vn -0.535433 0.598425 0.598425 
vn 0.448819 0.629921 0.629921 
vn 0.448819 0.889764 0 
vn 0.448819 0.889764 0 
vn 0.448819 0.629921 -0.629921 
vn 0.448819 0.629921 0.629921 
vn 0.448819 0.629921 -0.629921 
vn 0.448819 0 0.889764 
vn 0.448819 0 -0.889764 
vn 0.448819 0 0.889764 
vn 0.448819 0 -0.889764 
vn -0.448819 0.889764 0 
vn -0.448819 0.629921 0.629921 
vn -0.448819 0.629921 0.629921 
vn -0.448819 0 0.889764 
vn -0.448819 0.889764 0 
vn -0.448819 0 0.889764 
vn -0.448819 0.629921 -0.629921 
vn -0.448819 0.629921 -0.629921 
vn -0.574803 0.574803 -0.574803 
vn -0.574803 0.574803 -0.574803 
vn -0.574803 0 -0.818898 
vn -0.574803 0 -0.818898 
vn -0.574803 -0.574803 -0.574803 
vn -0.574803 -0.574803 -0.574803 
vn 0.574803 0.574803 -0.574803 
vn 0.574803 0.574803 -0.574803 
vn 0.574803 0 -0.818898 
vn 0.574803 0 -0.818898 
vn 0.574803 -0.574803 -0.574803 
vn 0.574803 -0.574803 -0.574803 
vn -0.535433 -0.598425 -0.598425 
vn -0.535433 -0.598425 -0.598425 
vn -0.535433 0 -0.84252 
vn -0.535433 0 -0.84252 
vn -0.535433 0.598425 -0.598425 
vn -0.535433 0.598425 -0.598425 
vn 0.535433 -0.598425 -0.598425 
vn 0.535433 -0.598425 -0.598425 
vn 0.535433 0 -0.84252 
vn 0.535433 0 -0.84252 
vn 0.535433 0.598425 -0.598425 
vn 0.535433 0.598425 -0.598425 
vn 0.535433 -0.598425 -0.598425 
vn 0.535433 -0.598425 -0.598425 
vn 0.535433 0 -0.84252 
vn 0.535433 0 -0.84252 
vn 0.535433 0.598425 -0.598425 
vn 0.535433 0.598425 -0.598425 
vn -0.535433 -0.598425 -0.598425 
vn -0.535433 -0.598425 -0.598425 
vn -0.535433 0 -0.84252 
vn -0.535433 0 -0.84252 
vn -0.535433 0.598425 -0.598425 
vn -0.535433 0.598425 -0.598425 
vn 0.448819 0.629921 -0.629921 
vn 0.448819 0.629921 -0.629921 
vn 0.448819 0 -0.889764 
vn 0.448819 0 -0.889764 
vn 0.448819 -0.629921 -0.629921 
vn 0.448819 -0.629921 -0.629921 
vn -0.448819 0.629921 -0.629921 
vn -0.448819 0.629921 -0.629921 
vn -0.448819 0 -0.889764 
vn -0.448819 0 -0.889764 
vn -0.448819 -0.629921 -0.629921 
vn -0.448819 -0.629921 -0.629921 
vn -0.574803 -0.574803 0.574803 
vn -0.574803 -0.574803 0.574803 
vn -0.574803 -0.818898 0 
vn -0.574803 -0.818898 0 
vn -0.574803 -0.574803 -0.574803 
vn -0.574803 -0.574803 -0.574803 
vn 0.574803 -0.574803 0.574803 
vn 0.574803 -0.574803 -0.574803 
vn 0.574803 -0.574803 0.574803 
vn 0.574803 -0.574803 -0.574803 
vn 0.574803 -0.818898 0 
vn 0.574803 -0.818898 0 
vn -0.535433 -0.84252 0 
vn -0.535433 -0.598425 -0.598425 
vn -0.535433 -0.598425 -0.598425 
vn -0.535433 -0.84252 0 
vn -0.535433 -0.598425 0.598425 
vn -0.535433 -0.598425 0.598425 
vn 0.535433 -0.598425 -0.598425 
vn 0.535433 -0.84252 0 
vn 0.535433 -0.84252 0 
vn 0.535433 -0.598425 0.598425 
vn 0.535433 -0.598425 -0.598425 
vn 0.535433 -0.598425 0.598425 
vn 0.535433 -0.598425 -0.598425 
vn 0.535433 -0.84252 0 
vn 0.535433 -0.84252 0 
vn 0.535433 -0.598425 0.598425 
vn 0.535433 -0.598425 -0.598425 
vn 0.535433 -0.598425 0.598425 
vn -0.535433 -0.84252 0 
vn -0.535433 -0.598425 -0.598425 
vn -0.535433 -0.598425 -0.598425 
vn -0.535433 -0.84252 0 
vn -0.535433 -0.598425 0.598425 
vn -0.535433 -0.598425 0.598425 
vn 0.448819 0 0.889764 
vn 0.448819 0 -0.889764 
vn 0.448819 0 0.889764 
vn 0.448819 0 -0.889764 
vn 0.448819 -0.629921 0.629921 
vn 0.448819 -0.629921 -0.629921 
vn 0.448819 -0.629921 0.629921 
vn 0.448819 -0.629921 -0.629921 
vn 0.448819 -0.889764 0 
vn 0.448819 -0.889764 0 
vn -0.448819 0 0.889764 
vn -0.448819 0 0.889764 
vn -0.448819 -0.629921 0.629921 
vn -0.448819 -0.629921 0.629921 
vn -0.448819 0 -0.889764 
vn -0.448819 -0.889764 0 
vn -0.448819 0 -0.889764 
vn -0.448819 -0.889764 0 
vn -0.448819 -0.629921 -0.629921 
vn -0.448819 -0.629921 -0.629921 
vn -0.574803 0.574803 0.574803 
vn -0.574803 0.574803 0.574803 
vn -0.574803 0 0.818898 
vn -0.574803 0 0.818898 
vn -0.574803 -0.574803 0.574803 
vn -0.574803 -0.574803 0.574803 
vn 0.574803 0.574803 0.574803 
vn 0.574803 0.574803 0.574803 
vn 0.574803 0 0.818898 
vn 0.574803 0 0.818898 
vn 0.574803 -0.574803 0.574803 
vn 0.574803 -0.574803 0.574803 
vn -0.535433 -0.598425 0.598425 
vn -0.535433 -0.598425 0.598425 
vn -0.535433 0 0.84252 
vn -0.535433 0 0.84252 
vn -0.535433 0.598425 0.598425 
vn -0.535433 0.598425 0.598425 
vn 0.535433 -0.598425 0.598425 
vn 0.535433 -0.598425 0.598425 
vn 0.535433 0 0.84252 
vn 0.535433 0 0.84252 
vn 0.535433 0.598425 0.598425 
vn 0.535433 0.598425 0.598425 
vn 0.535433 -0.598425 0.598425 
vn 0.535433 -0.598425 0.598425 
vn 0.535433 0 0.84252 
vn 0.535433 0 0.84252 
vn 0.535433 0.598425 0.598425 
vn 0.535433 0.598425 0.598425 
vn -0.535433 -0.598425 0.598425 
vn -0.535433 -0.598425 0.598425 
vn -0.535433 0 0.84252 
vn -0.535433 0 0.84252 
vn -0.535433 0.598425 0.598425 
vn -0.535433 0.598425 0.598425 
vn 0.448819 0.629921 0.629921 
vn 0.448819 0.629921 0.629921 
vn 0.448819 0 0.889764 
vn 0.448819 0 0.889764 
vn 0.448819 -0.629921 0.629921 
vn 0.448819 -0.629921 0.629921 
vn -0.448819 0.629921 0.629921 
vn -0.448819 0.629921 0.629921 
vn -0.448819 0 0.889764 
vn -0.448819 0 0.889764 
vn -0.448819 -0.629921 0.629921 
vn -0.448819 -0.629921 0.629921 

vt 51.9347 -11 
vt 51.9575 -10.9239 
vt 51.9347 -10.9126 
vt 51.9575 -11 
vt 51.9575 -11.0761 
vt 51.9347 -11.0874 
vt 52.0425 -10.9239 
vt 52.0425 -11 
vt 52.0653 -11 
vt 52.0425 -11.0761 
vt 52.0653 -10.9126 
vt 52.0653 -11.0874 
vt 51.9347 -10.9126 
vt 51.962 -10.9004 
vt 51.962 -11 
vt 51.9347 -11 
vt 51.9347 -11.0874 
vt 51.962 -11.0996 
vt 52.0653 -10.9126 
vt 52.0653 -11.0874 
vt 52.038 -10.9004 
vt 52.038 -11.0996 
vt 52.038 -11 
vt 52.0653 -11 
vt 51.9893 -10.9126 
vt 51.9893 -11.0874 
vt 51.962 -10.9004 
vt 51.962 -11.0996 
vt 51.962 -11 
vt 51.9893 -11 
vt 52.0107 -10.9126 
vt 52.038 -10.9004 
vt 52.038 -11 
vt 52.0107 -11 
vt 52.0107 -11.0874 
vt 52.038 -11.0996 
vt 51.9575 -10.9239 
vt 51.9575 -11 
vt 51.9893 -11 
vt 51.9575 -11.0761 
vt 51.9893 -10.9126 
vt 51.9893 -11.0874 
vt 51.9893 -10.8763 
vt 51.9893 -11.1237 
vt 51.9575 -10.8924 
vt 51.9575 -11.1076 
vt 52.0107 -11 
vt 52.0425 -10.9239 
vt 52.0107 -10.9126 
vt 52.0107 -10.8763 
vt 52.0425 -11 
vt 52.0425 -10.8924 
vt 52.0425 -11.0761 
vt 52.0107 -11.0874 
vt 52.0425 -11.0761 
vt 52.0653 -11.0874 
vt 52.0653 -11 
vt 52.0425 -11 
vt 52.0425 -10.9239 
vt 52.0653 -10.9126 
vt 51.9575 -11.0761 
vt 51.9347 -11.0874 
vt 51.9347 -11 
vt 51.9575 -11 
vt 51.9575 -10.9239 
vt 51.9347 -10.9126 
vt 52.0653 -11.0874 
vt 52.038 -11.0996 
vt 52.038 -11 
vt 52.0653 -11 
vt 52.0653 -10.9126 
vt 52.038 -10.9004 
vt 51.9347 -11.0874 
vt 51.962 -11.0996 
vt 51.962 -11 
vt 51.9347 -11 
vt 51.9347 -10.9126 
vt 51.962 -10.9004 
vt 52.0107 -11.0874 
vt 52.038 -11.0996 
vt 52.038 -11 
vt 52.0107 -11 
vt 52.0107 -10.9126 
vt 52.038 -10.9004 
vt 51.9893 -11.0874 
vt 51.962 -11.0996 
vt 51.962 -11 
vt 51.9893 -11 
vt 51.9893 -10.9126 
vt 51.962 -10.9004 
vt 52.0425 -11.0761 
vt 52.0107 -11.0874 
vt 52.0107 -11 
vt 52.0425 -11 
vt 52.0425 -10.9239 
vt 52.0107 -10.9126 
vt 51.9575 -11.0761 
vt 51.9893 -11.0874 
vt 51.9893 -11 
vt 51.9575 -11 
vt 51.9575 -10.9239 
vt 51.9893 -10.9126 
vt 52.0425 -10.9239 
vt 52.0653 -10.9126 
vt 52.0653 -11 
vt 52.0425 -11 
vt 52.0425 -11.0761 
vt 52.0653 -11.0874 
vt 51.9575 -10.9239 
vt 51.9575 -11.0761 
vt 51.9347 -10.9126 
vt 51.9347 -11.0874 
vt 51.9347 -11 
vt 51.9575 -11 
vt 52.038 -11 
vt 52.0653 -10.9126 
vt 52.038 -10.9004 
vt 52.0653 -11 
vt 52.0653 -11.0874 
vt 52.038 -11.0996 
vt 51.9347 -10.9126 
vt 51.9347 -11 
vt 51.962 -11 
vt 51.9347 -11.0874 
vt 51.962 -10.9004 
vt 51.962 -11.0996 
vt 52.0107 -10.9126 
vt 52.0107 -11 
vt 52.038 -11 
vt 52.0107 -11.0874 
vt 52.038 -10.9004 
vt 52.038 -11.0996 
vt 51.962 -11 
vt 51.9893 -10.9126 
vt 51.962 -10.9004 
vt 51.9893 -11 
vt 51.9893 -11.0874 
vt 51.962 -11.0996 
vt 52.0107 -10.8763 
vt 52.0107 -11.1237 
vt 52.0425 -10.8924 
vt 52.0425 -11.1076 
vt 52.0425 -10.9239 
vt 52.0425 -11.0761 
vt 52.0107 -10.9126 
vt 52.0107 -11.0874 
vt 52.0107 -11 
vt 52.0425 -11 
vt 51.9893 -10.8763 
vt 51.9575 -10.8924 
vt 51.9575 -10.9239 
vt 51.9893 -10.9126 
vt 51.9893 -11.1237 
vt 51.9893 -11 
vt 51.9575 -11.1076 
vt 51.9575 -11 
vt 51.9575 -11.0761 
vt 51.9893 -11.0874 
vt 51.9575 -11.0761 
vt 51.9347 -11.0874 
vt 51.9347 -11 
vt 51.9575 -11 
vt 51.9575 -10.9239 
vt 51.9347 -10.9126 
vt 52.0425 -11.0761 
vt 52.0653 -11.0874 
vt 52.0653 -11 
vt 52.0425 -11 
vt 52.0425 -10.9239 
vt 52.0653 -10.9126 
vt 51.9347 -11.0874 
vt 51.962 -11.0996 
vt 51.962 -11 
vt 51.9347 -11 
vt 51.9347 -10.9126 
vt 51.962 -10.9004 
vt 52.0653 -11.0874 
vt 52.038 -11.0996 
vt 52.038 -11 
vt 52.0653 -11 
vt 52.0653 -10.9126 
vt 52.038 -10.9004 
vt 51.9893 -11.0874 
vt 51.962 -11.0996 
vt 51.962 -11 
vt 51.9893 -11 
vt 51.9893 -10.9126 
vt 51.962 -10.9004 
vt 52.0107 -11.0874 
vt 52.038 -11.0996 
vt 52.038 -11 
vt 52.0107 -11 
vt 52.0107 -10.9126 
vt 52.038 -10.9004 
vt 51.9575 -11.0761 
vt 51.9893 -11.0874 
vt 51.9893 -11 
vt 51.9575 -11 
vt 51.9575 -10.9239 
vt 51.9893 -10.9126 
vt 52.0425 -11.0761 
vt 52.0107 -11.0874 
vt 52.0107 -11 
vt 52.0425 -11 
vt 52.0425 -10.9239 
vt 52.0107 -10.9126 

usemtl Meshpart2Mtl

f 344/344/344 345/345/345 346/346/346 
f 345/345/345 344/344/344 347/347/347 
f 348/348/348 347/347/347 344/344/344 
f 344/344/344 349/349/349 348/348/348 
f 350/350/350 351/351/351 352/352/352 
f 353/353/353 352/352/352 351/351/351 
f 352/352/352 354/354/354 350/350/350 
f 352/352/352 353/353/353 355/355/355 
f 358/358/358 357/357/357 356/356/356 
f 358/358/358 356/356/356 359/359/359 
f 360/360/360 358/358/358 359/359/359 
f 358/358/358 360/360/360 361/361/361 
f 366/366/366 362/362/362 364/364/364 
f 363/363/363 366/366/366 365/365/365 
f 362/362/362 366/366/366 367/367/367 
f 366/366/366 363/363/363 367/367/367 
f 372/372/372 368/368/368 370/370/370 
f 369/369/369 372/372/372 371/371/371 
f 368/368/368 372/372/372 373/373/373 
f 372/372/372 369/369/369 373/373/373 
f 376/376/376 375/375/375 374/374/374 
f 376/376/376 374/374/374 377/377/377 
f 378/378/378 376/376/376 377/377/377 
f 376/376/376 378/378/378 379/379/379 
f 380/380/380 381/381/381 382/382/382 
f 383/383/383 382/382/382 381/381/381 
f 382/382/382 384/384/384 380/380/380 
f 382/382/382 383/383/383 385/385/385 
f 390/390/390 391/391/391 392/392/392 
f 391/391/391 390/390/390 394/394/394 
f 396/396/396 394/394/394 390/390/390 
f 390/390/390 397/397/397 396/396/396 
f 400/400/400 398/398/398 399/399/399 
f 398/398/398 400/400/400 401/401/401 
f 400/400/400 402/402/402 401/401/401 
f 400/400/400 403/403/403 402/402/402 
f 404/404/404 406/406/406 405/405/405 
f 406/406/406 404/404/404 407/407/407 
f 408/408/408 406/406/406 407/407/407 
f 406/406/406 408/408/408 409/409/409 
f 412/412/412 411/411/411 410/410/410 
f 410/410/410 413/413/413 412/412/412 
f 414/414/414 412/412/412 413/413/413 
f 412/412/412 414/414/414 415/415/415 
f 418/418/418 416/416/416 417/417/417 
f 416/416/416 418/418/418 419/419/419 
f 420/420/420 419/419/419 418/418/418 
f 418/418/418 421/421/421 420/420/420 
f 424/424/424 422/422/422 423/423/423 
f 422/422/422 424/424/424 425/425/425 
f 426/426/426 425/425/425 424/424/424 
f 424/424/424 427/427/427 426/426/426 
f 430/430/430 429/429/429 428/428/428 
f 428/428/428 431/431/431 430/430/430 
f 432/432/432 430/430/430 431/431/431 
f 430/430/430 432/432/432 433/433/433 
f 434/434/434 436/436/436 435/435/435 
f 436/436/436 434/434/434 437/437/437 
f 438/438/438 436/436/436 437/437/437 
f 436/436/436 438/438/438 439/439/439 
f 442/442/442 440/440/440 441/441/441 
f 440/440/440 442/442/442 443/443/443 
f 442/442/442 444/444/444 443/443/443 
f 442/442/442 445/445/445 444/444/444 
f 448/448/448 447/447/447 446/446/446 
f 448/448/448 446/446/446 449/449/449 
f 450/450/450 448/448/448 449/449/449 
f 448/448/448 450/450/450 451/451/451 
f 456/456/456 452/452/452 454/454/454 
f 453/453/453 456/456/456 455/455/455 
f 452/452/452 456/456/456 457/457/457 
f 456/456/456 453/453/453 457/457/457 
f 458/458/458 459/459/459 460/460/460 
f 459/459/459 458/458/458 461/461/461 
f 462/462/462 461/461/461 458/458/458 
f 458/458/458 463/463/463 462/462/462 
f 464/464/464 465/465/465 466/466/466 
f 467/467/467 466/466/466 465/465/465 
f 466/466/466 468/468/468 464/464/464 
f 466/466/466 467/467/467 469/469/469 
f 470/470/470 471/471/471 472/472/472 
f 473/473/473 472/472/472 471/471/471 
f 472/472/472 474/474/474 470/470/470 
f 472/472/472 473/473/473 475/475/475 
f 476/476/476 477/477/477 478/478/478 
f 477/477/477 476/476/476 479/479/479 
f 480/480/480 479/479/479 476/476/476 
f 476/476/476 481/481/481 480/480/480 
f 490/490/490 486/486/486 488/488/488 
f 487/487/487 490/490/490 489/489/489 
f 486/486/486 490/490/490 491/491/491 
f 490/490/490 487/487/487 491/491/491 
f 497/497/497 495/495/495 494/494/494 
f 497/497/497 494/494/494 499/499/499 
f 500/500/500 497/497/497 499/499/499 
f 497/497/497 500/500/500 501/501/501 
f 504/504/504 503/503/503 502/502/502 
f 504/504/504 502/502/502 505/505/505 
f 506/506/506 504/504/504 505/505/505 
f 504/504/504 506/506/506 507/507/507 
f 510/510/510 508/508/508 509/509/509 
f 508/508/508 510/510/510 511/511/511 
f 510/510/510 512/512/512 511/511/511 
f 512/512/512 510/510/510 513/513/513 
f 516/516/516 514/514/514 515/515/515 
f 514/514/514 516/516/516 517/517/517 
f 518/518/518 517/517/517 516/516/516 
f 516/516/516 519/519/519 518/518/518 
f 522/522/522 521/521/521 520/520/520 
f 520/520/520 523/523/523 522/522/522 
f 524/524/524 522/522/522 523/523/523 
f 522/522/522 524/524/524 525/525/525 
f 528/528/528 527/527/527 526/526/526 
f 526/526/526 529/529/529 528/528/528 
f 530/530/530 528/528/528 529/529/529 
f 528/528/528 530/530/530 531/531/531 
f 534/534/534 532/532/532 533/533/533 
f 532/532/532 534/534/534 535/535/535 
f 536/536/536 535/535/535 534/534/534 
f 534/534/534 537/537/537 536/536/536 
f 540/540/540 538/538/538 539/539/539 
f 538/538/538 540/540/540 541/541/541 
f 540/540/540 542/542/542 541/541/541 
f 542/542/542 540/540/540 543/543/543 
f 546/546/546 545/545/545 544/544/544 
f 546/546/546 544/544/544 547/547/547 
f 548/548/548 546/546/546 547/547/547 
f 546/546/546 548/548/548 549/549/549 

