# This file is brought to you by Roblox Corporation
# Generated by Roblox Studio

mtllib fizz bomb.mtl

g Meshpart1

v -0.156313 0.483722 0.050815 
v -0.156313 0.483722 -0.050815 
v -0.156313 0.477669 0.050815 
v -0.156313 0.477669 -0.050815 
v 0.034973 0.483722 0.054616 
v -0.063563 0.483722 0.025029 
v -0.063563 0.483722 -0.025029 
v -0.063563 0.477669 0.025029 
v -0.063563 0.477669 -0.025029 
v 0.016565 0.483722 -0.036329 
v -0.036349 0.483722 0.016585 
v -0.074863 0.483722 0.036329 
v -0.063563 0.477669 0.025029 
v -0.074863 0.477669 0.036329 
v -0.063563 0.483722 0.025029 
v -0.036349 0.477669 0.016585 
v 0.016565 0.477669 -0.036329 
v 0.016565 0.477669 0.036329 
v 0.016565 0.483722 0.036329 
v 0.036309 0.477669 0.016585 
v 0.036309 0.483722 0.016585 
v 0.036309 0.483722 -0.016585 
v 0.016565 0.477669 -0.036329 
v 0.036309 0.477669 -0.016585 
v 0.016565 0.483722 -0.036329 
v 0.036309 0.483722 0.016585 
v 0.036309 0.477669 -0.016585 
v 0.036309 0.477669 0.016585 
v 0.036309 0.483722 -0.016585 
v -0.074863 0.477669 -0.036329 
v -0.074863 0.483722 -0.036329 
v -0.063563 0.483722 -0.025029 
v -0.063563 0.477669 -0.025029 
v 0.040579 0.474839 0.06743 
v 0.040579 0.478012 0.06743 
v 0.040579 0.478012 -0.06743 
v 0.040579 0.474839 -0.06743 
v 0.159501 0.478012 -0.067837 
v 0.127639 0.478012 -0.08637 
v 0.171938 0.478012 -7.64826e-17 
v 0.159501 0.478012 0.067837 
v 0.127639 0.478012 0.08637 
v -0.156313 0.483722 0.050815 
v -0.156313 0.483722 -0.050815 
v -0.128291 0.483722 -0.076738 
v -0.128291 0.477669 -0.076738 
v -0.128291 0.483722 0.076738 
v 0.075127 0.478012 -0.08637 
v 0.013861 0.483722 -0.068598 
v 0.013861 0.483722 0.068598 
v 0.034973 0.483722 -0.054616 
v 0.054934 0.483722 -0.029175 
v 0.034973 0.483722 0.054616 
v 0.054934 0.483722 0.029175 
v 0.061843 0.483722 -7.86038e-17 
v -0.063563 0.483722 -0.025029 
v 0.034973 0.483722 0.054616 
v 0.016565 0.483722 0.036329 
v 0.013861 0.483722 0.068598 
v 0.036309 0.483722 0.016585 
v 0.054934 0.483722 0.029175 
v 0.061843 0.483722 -7.86038e-17 
v 0.036309 0.483722 0.016585 
v 0.061843 0.483722 -7.86038e-17 
v 0.036309 0.483722 -0.016585 
v 0.054934 0.483722 -0.029175 
v 0.034973 0.483722 -0.054616 
v 0.016565 0.483722 -0.036329 
v 0.036309 0.483722 -0.016585 
v 0.013861 0.483722 -0.068598 
v 0.016565 0.483722 0.036329 
v -0.016605 0.483722 0.036329 
v 0.013861 0.483722 0.068598 
v 0.016565 0.483722 -0.036329 
v 0.013861 0.483722 -0.068598 
v -0.016605 0.483722 -0.036329 
v 0.013861 0.483722 -0.068598 
v -0.128291 0.483722 -0.076738 
v -0.016605 0.483722 -0.036329 
v 0.013861 0.483722 0.068598 
v -0.016605 0.483722 0.036329 
v -0.128291 0.483722 0.076738 
v -0.128291 0.483722 0.076738 
v -0.106605 0.483722 0.036329 
v -0.156313 0.483722 0.050815 
v -0.106605 0.483722 0.036329 
v -0.128291 0.483722 0.076738 
v -0.074863 0.483722 0.036329 
v -0.156313 0.483722 -0.050815 
v -0.106605 0.483722 -0.036329 
v -0.128291 0.483722 -0.076738 
v -0.074863 0.483722 -0.036329 
v -0.128291 0.483722 -0.076738 
v -0.106605 0.483722 -0.036329 
v -0.106605 0.483722 -0.036329 
v -0.156313 0.483722 -0.050815 
v -0.126349 0.483722 -0.016585 
v -0.156313 0.483722 0.050815 
v -0.126349 0.483722 -0.016585 
v -0.156313 0.483722 -0.050815 
v -0.126349 0.483722 0.016585 
v -0.106605 0.483722 0.036329 
v -0.126349 0.483722 0.016585 
v -0.156313 0.483722 0.050815 
v -0.016605 0.483722 0.036329 
v -0.074863 0.483722 0.036329 
v -0.128291 0.483722 0.076738 
v -0.016605 0.483722 -0.036329 
v -0.128291 0.483722 -0.076738 
v -0.074863 0.483722 -0.036329 
v -0.063563 0.483722 -0.025029 
v -0.036349 0.483722 -0.016585 
v -0.016605 0.483722 -0.036329 
v -0.063563 0.483722 -0.025029 
v -0.016605 0.483722 -0.036329 
v -0.074863 0.483722 -0.036329 
v -0.016605 0.483722 0.036329 
v -0.063563 0.483722 0.025029 
v -0.074863 0.483722 0.036329 
v -0.036349 0.483722 0.016585 
v -0.063563 0.483722 0.025029 
v -0.036349 0.483722 0.016585 
v -0.036349 0.483722 -0.016585 
v -0.063563 0.483722 -0.025029 
v 0.040579 0.478012 0.06743 
v 0.171938 0.478012 -7.64826e-17 
v 0.040579 0.478012 -0.06743 
v 0.075127 0.478012 -0.08637 
v 0.075127 0.478012 0.08637 
v 0.127639 0.478012 -0.08637 
v 0.159501 0.478012 -0.067837 
v 0.127639 0.478012 0.08637 
v 0.159501 0.478012 0.067837 
v 0.127639 0.474839 -0.08637 
v 0.159501 0.478012 -0.067837 
v 0.159501 0.474839 -0.067837 
v 0.127639 0.478012 -0.08637 
v -0.156313 0.483722 0.050815 
v -0.156313 0.477669 0.050815 
v -0.156313 0.477669 -0.050815 
v -0.128291 0.483722 -0.076738 
v -0.128291 0.477669 -0.076738 
v -0.156313 0.483722 -0.050815 
v 0.075127 0.474839 -0.08637 
v 0.127639 0.478012 -0.08637 
v 0.127639 0.474839 -0.08637 
v 0.075127 0.478012 -0.08637 
v -0.128291 0.483722 -0.076738 
v 0.013861 0.483722 -0.068598 
v -0.128291 0.477669 -0.076738 
v 0.013861 0.477669 -0.068598 
v 0.034973 0.477669 -0.054616 
v 0.013861 0.477669 -0.068598 
v 0.034973 0.483722 -0.054616 
v 0.013861 0.483722 -0.068598 
v 0.054934 0.483722 -0.029175 
v 0.034973 0.483722 0.054616 
v -0.074863 0.483722 0.036329 
v -0.036349 0.483722 0.016585 
v -0.074863 0.483722 0.036329 
v -0.074863 0.477669 0.036329 
v -0.106605 0.483722 0.036329 
v -0.106605 0.477669 0.036329 
v -0.036349 0.477669 0.016585 
v 0.016565 0.477669 0.036329 
v 0.013861 0.477669 0.036329 
v 0.016565 0.483722 0.036329 
v -0.016605 0.483722 0.036329 
v -0.016605 0.477669 0.036329 
v 0.040579 0.478012 -0.06743 
v 0.040579 0.474839 -0.06743 
v 0.075127 0.478012 -0.08637 
v 0.075127 0.474839 -0.08637 
v 0.159501 0.478012 -0.067837 
v 0.159501 0.474839 -0.067837 
v 0.171938 0.478012 -7.64826e-17 
v 0.171938 0.474839 -7.53037e-17 
v 0.159501 0.478012 0.067837 
v 0.159501 0.474839 0.067837 
v -0.156313 0.483722 0.050815 
v -0.156313 0.477669 0.050815 
v 0.013861 0.477669 -0.068598 
v 0.013861 0.477669 0.068598 
v 0.013861 0.483722 0.068598 
v 0.034973 0.477669 -0.054616 
v 0.034973 0.483722 -0.054616 
v 0.054934 0.483722 -0.029175 
v 0.054934 0.477669 -0.029175 
v 0.034973 0.477669 0.054616 
v 0.054934 0.477669 0.029175 
v 0.034973 0.483722 0.054616 
v 0.054934 0.483722 0.029175 
v 0.054934 0.483722 0.029175 
v 0.054934 0.477669 0.029175 
v 0.061843 0.477669 -7.63549e-17 
v 0.061843 0.483722 -7.86038e-17 
v 0.054934 0.477669 -0.029175 
v 0.054934 0.483722 -0.029175 
v -0.106605 0.483722 -0.036329 
v -0.126349 0.483722 -0.016585 
v -0.036349 0.483722 0.016585 
v -0.016605 0.477669 0.036329 
v -0.036349 0.477669 0.016585 
v -0.016605 0.483722 0.036329 
v -0.036349 0.483722 0.016585 
v -0.036349 0.477669 -0.016585 
v -0.036349 0.483722 0.016585 
v -0.036349 0.483722 -0.016585 
v -0.036349 0.483722 -0.016585 
v -0.036349 0.477669 -0.016585 
v -0.016605 0.477669 -0.036329 
v -0.016605 0.483722 -0.036329 
v 0.016565 0.477669 0.036329 
v -0.126349 0.483722 -0.016585 
v -0.126349 0.477669 -0.016585 
v -0.106605 0.477669 -0.036329 
v -0.106605 0.483722 -0.036329 
v -0.106605 0.483722 0.036329 
v -0.106605 0.477669 0.036329 
v -0.126349 0.483722 0.016585 
v -0.126349 0.477669 0.016585 
v -0.126349 0.477669 -0.016585 
v -0.126349 0.483722 0.016585 
v -0.126349 0.483722 -0.016585 
v 0.159501 0.478012 0.067837 
v 0.159501 0.474839 0.067837 
v 0.127639 0.478012 0.08637 
v 0.127639 0.474839 0.08637 
v -0.156313 0.483722 0.050815 
v -0.156313 0.477669 0.050815 
v -0.156313 0.483722 0.050815 
v -0.128291 0.477669 0.076738 
v -0.128291 0.483722 0.076738 
v -0.156313 0.477669 0.050815 
v 0.075127 0.474839 0.08637 
v 0.127639 0.474839 0.08637 
v 0.075127 0.478012 0.08637 
v 0.127639 0.478012 0.08637 
v -0.128291 0.483722 0.076738 
v 0.013861 0.477669 0.068598 
v 0.013861 0.483722 0.068598 
v -0.128291 0.477669 0.076738 
v 0.034973 0.477669 0.054616 
v 0.034973 0.483722 0.054616 
v 0.013861 0.483722 0.068598 
v 0.013861 0.477669 0.068598 
v -0.063563 0.483722 -0.025029 
v 0.016565 0.483722 -0.036329 
v -0.106605 0.483722 -0.036329 
v -0.036349 0.477669 -0.016585 
v -0.016605 0.477669 -0.036329 
v 0.013861 0.477669 -0.036329 
v -0.016605 0.483722 -0.036329 
v 0.016565 0.483722 -0.036329 
v 0.016565 0.477669 -0.036329 
v -0.106605 0.477669 -0.036329 
v -0.106605 0.483722 -0.036329 
v -0.074863 0.477669 -0.036329 
v -0.074863 0.483722 -0.036329 
v 0.040579 0.474839 0.06743 
v 0.075127 0.474839 0.08637 
v 0.040579 0.478012 0.06743 
v 0.075127 0.478012 0.08637 

vn -0.913386 0 0.401575 
vn -0.913386 0 -0.401575 
vn -0.913386 0 0.401575 
vn -0.913386 0 -0.401575 
vn 0.677165 0 0.732283 
vn -0.92126 0 -0.385827 
vn -0.92126 0 0.385827 
vn -0.92126 0 -0.385827 
vn -0.92126 0 0.385827 
vn 0 1 0 
vn 0 1 0 
vn -0.385827 0 -0.92126 
vn -0.92126 0 -0.385827 
vn -0.385827 0 -0.92126 
vn -0.92126 0 -0.385827 
vn 0.92126 0 -0.385827 
vn -0.385827 0 0.92126 
vn -0.385827 0 -0.92126 
vn -0.385827 0 -0.92126 
vn -0.92126 0 -0.385827 
vn -0.92126 0 -0.385827 
vn -0.92126 0 0.385827 
vn -0.385827 0 0.92126 
vn -0.92126 0 0.385827 
vn -0.385827 0 0.92126 
vn -0.92126 0 -0.385827 
vn -0.92126 0 0.385827 
vn -0.92126 0 -0.385827 
vn -0.92126 0 0.385827 
vn -0.385827 0 0.92126 
vn -0.385827 0 0.92126 
vn -0.92126 0 0.385827 
vn -0.92126 0 0.385827 
vn -0.858268 0 0.511811 
vn -0.858268 0 0.511811 
vn -0.858268 0 -0.511811 
vn -0.858268 0 -0.511811 
vn 0.818898 0 -0.574803 
vn 0.259843 0 -0.968504 
vn 1 0 0 
vn 0.818898 0 0.574803 
vn 0.259843 0 0.968504 
vn -0.913386 0 0.401575 
vn -0.913386 0 -0.401575 
vn -0.338583 0 -0.944882 
vn -0.338583 0 -0.944882 
vn -0.338583 0 0.944882 
vn -0.244094 0 -0.968504 
vn 0.314961 0 -0.944882 
vn 0.314961 0 0.944882 
vn 0.677165 0 -0.732283 
vn 0.897638 0 -0.433071 
vn 0.677165 0 0.732283 
vn 0.897638 0 0.433071 
vn 1 0 0 
vn -0.92126 0 0.385827 
vn 0 1 0 
vn 0 1 0 
vn 0 1 0 
vn 0 1 0 
vn 0 1 0 
vn 0 1 0 
vn 0 1 0 
vn 0 1 0 
vn 0 1 0 
vn 0 1 0 
vn 0 1 0 
vn 0 1 0 
vn 0 1 0 
vn 0 1 0 
vn 0 1 0 
vn 0 1 0 
vn 0 1 0 
vn 0 1 0 
vn 0 1 0 
vn 0 1 0 
vn 0 1 0 
vn 0 1 0 
vn 0 1 0 
vn 0 1 0 
vn 0 1 0 
vn 0 1 0 
vn 0 1 0 
vn 0 1 0 
vn 0 1 0 
vn 0 1 0 
vn 0 1 0 
vn 0 1 0 
vn 0 1 0 
vn 0 1 0 
vn 0 1 0 
vn 0 1 0 
vn 0 1 0 
vn 0 1 0 
vn 0 1 0 
vn 0 1 0 
vn 0 1 0 
vn 0 1 0 
vn 0 1 0 
vn 0 1 0 
vn 0 1 0 
vn 0 1 0 
vn 0 1 0 
vn 0 1 0 
vn 0 1 0 
vn 0 1 0 
vn 0 1 0 
vn 0 1 0 
vn 0 1 0 
vn 0 1 0 
vn 0 1 0 
vn 0 1 0 
vn 0 1 0 
vn 0 1 0 
vn 0 1 0 
vn 0 1 0 
vn 0 1 0 
vn 0 1 0 
vn 0 1 0 
vn 0 1 0 
vn 0 1 0 
vn 0 1 0 
vn 0 1 0 
vn 0 1 0 
vn 0 1 0 
vn 0 1 0 
vn 0 1 0 
vn 0 1 0 
vn 0 1 0 
vn 0 1 0 
vn 0 1 0 
vn 0 1 0 
vn 0 1 0 
vn 0.259843 0 -0.968504 
vn 0.818898 0 -0.574803 
vn 0.818898 0 -0.574803 
vn 0.259843 0 -0.968504 
vn -0.913386 0 0.401575 
vn -0.913386 0 0.401575 
vn -0.913386 0 -0.401575 
vn -0.338583 0 -0.944882 
vn -0.338583 0 -0.944882 
vn -0.913386 0 -0.401575 
vn -0.244094 0 -0.968504 
vn 0.259843 0 -0.968504 
vn 0.259843 0 -0.968504 
vn -0.244094 0 -0.968504 
vn -0.338583 0 -0.944882 
vn 0.314961 0 -0.944882 
vn -0.338583 0 -0.944882 
vn 0.314961 0 -0.944882 
vn 0.677165 0 -0.732283 
vn 0.314961 0 -0.944882 
vn 0.677165 0 -0.732283 
vn 0.314961 0 -0.944882 
vn 0.897638 0 -0.433071 
vn 0.677165 0 0.732283 
vn 0 1 0 
vn 0 1 0 
vn -0.385827 0 -0.92126 
vn -0.385827 0 -0.92126 
vn 0.385827 0 -0.92126 
vn 0.385827 0 -0.92126 
vn 0.92126 0 -0.385827 
vn -0.385827 0 -0.92126 
vn 0 0 -1 
vn -0.385827 0 -0.92126 
vn 0.385827 0 -0.92126 
vn 0.385827 0 -0.92126 
vn -0.858268 0 -0.511811 
vn -0.858268 0 -0.511811 
vn -0.244094 0 -0.968504 
vn -0.244094 0 -0.968504 
vn 0.818898 0 -0.574803 
vn 0.818898 0 -0.574803 
vn 1 0 0 
vn 1 0 0 
vn 0.818898 0 0.574803 
vn 0.818898 0 0.574803 
vn -0.913386 0 0.401575 
vn -0.913386 0 0.401575 
vn 0.314961 0 -0.944882 
vn 0.314961 0 0.944882 
vn 0.314961 0 0.944882 
vn 0.677165 0 -0.732283 
vn 0.677165 0 -0.732283 
vn 0.897638 0 -0.433071 
vn 0.897638 0 -0.433071 
vn 0.677165 0 0.732283 
vn 0.897638 0 0.433071 
vn 0.677165 0 0.732283 
vn 0.897638 0 0.433071 
vn 0.897638 0 0.433071 
vn 0.897638 0 0.433071 
vn 1 0 0 
vn 1 0 0 
vn 0.897638 0 -0.433071 
vn 0.897638 0 -0.433071 
vn 0 1 0 
vn 0 1 0 
vn 0 1 0 
vn 0.385827 0 -0.92126 
vn 0.92126 0 -0.385827 
vn 0.385827 0 -0.92126 
vn 0.92126 0 -0.385827 
vn 0.92126 0 0.385827 
vn 0.92126 0 -0.385827 
vn 0.92126 0 0.385827 
vn 0.92126 0 0.385827 
vn 0.92126 0 0.385827 
vn 0.385827 0 0.92126 
vn 0.385827 0 0.92126 
vn -0.385827 0 -0.92126 
vn 0.92126 0 0.385827 
vn 0.92126 0 0.385827 
vn 0.385827 0 0.92126 
vn 0.385827 0 0.92126 
vn 0.385827 0 -0.92126 
vn 0.385827 0 -0.92126 
vn 0.92126 0 -0.385827 
vn 0.92126 0 -0.385827 
vn 0.92126 0 0.385827 
vn 0.92126 0 -0.385827 
vn 0.92126 0 0.385827 
vn 0.818898 0 0.574803 
vn 0.818898 0 0.574803 
vn 0.259843 0 0.968504 
vn 0.259843 0 0.968504 
vn -0.913386 0 0.401575 
vn -0.913386 0 0.401575 
vn -0.913386 0 0.401575 
vn -0.338583 0 0.944882 
vn -0.338583 0 0.944882 
vn -0.913386 0 0.401575 
vn -0.244094 0 0.968504 
vn 0.259843 0 0.968504 
vn -0.244094 0 0.968504 
vn 0.259843 0 0.968504 
vn -0.338583 0 0.944882 
vn 0.314961 0 0.944882 
vn 0.314961 0 0.944882 
vn -0.338583 0 0.944882 
vn 0.677165 0 0.732283 
vn 0.677165 0 0.732283 
vn 0.314961 0 0.944882 
vn 0.314961 0 0.944882 
vn -0.92126 0 0.385827 
vn 0 1 0 
vn 0 1 0 
vn 0.92126 0 0.385827 
vn 0.385827 0 0.92126 
vn 0 0 1 
vn 0.385827 0 0.92126 
vn -0.385827 0 0.92126 
vn -0.385827 0 0.92126 
vn 0.385827 0 0.92126 
vn 0.385827 0 0.92126 
vn -0.385827 0 0.92126 
vn -0.385827 0 0.92126 
vn -0.858268 0 0.511811 
vn -0.244094 0 0.968504 
vn -0.858268 0 0.511811 
vn -0.244094 0 0.968504 

vt 0.0677533 1.00592 
vt -0.0677533 1.00592 
vt 0.0677533 0.997851 
vt -0.0677533 0.997851 
vt 0.0728213 1.00592 
vt 0.033372 1.00592 
vt -0.033372 1.00592 
vt 0.033372 0.997851 
vt -0.033372 0.997851 
vt -0.0484387 1.00592 
vt 0.0221133 1.00592 
vt 0.0484387 1.00592 
vt 0.033372 0.997851 
vt 0.0484387 0.997851 
vt 0.033372 1.00592 
vt 0.0221133 0.997851 
vt -0.0484387 0.997851 
vt 0.0484387 0.997851 
vt 0.0484387 1.00592 
vt 0.0221133 0.997851 
vt 0.0221133 1.00592 
vt -0.0221133 1.00592 
vt -0.0484387 0.997851 
vt -0.0221133 0.997851 
vt -0.0484387 1.00592 
vt 0.0221133 1.00592 
vt -0.0221133 0.997851 
vt 0.0221133 0.997851 
vt -0.0221133 1.00592 
vt -0.0484387 0.997851 
vt -0.0484387 1.00592 
vt -0.033372 1.00592 
vt -0.033372 0.997851 
vt 0.0899067 0.994078 
vt 0.0899067 0.998309 
vt -0.0899067 0.998309 
vt -0.0899067 0.994078 
vt 0.202251 1.09045 
vt 0.159769 1.11516 
vt 0.218834 1 
vt 0.202251 0.909551 
vt 0.159769 0.88484 
vt -0.218834 0.932247 
vt -0.218834 1.06775 
vt -0.181471 1.10232 
vt -0.181471 1.10232 
vt -0.181471 0.897683 
vt 0.0897527 1.11516 
vt 0.00806467 1.09146 
vt 0.00806467 0.908536 
vt 0.036214 1.07282 
vt 0.0628287 1.0389 
vt 0.036214 0.927179 
vt 0.0628287 0.9611 
vt 0.0720407 1 
vt -0.0951673 1.03337 
vt 0.036214 0.927179 
vt 0.01167 0.951561 
vt 0.00806467 0.908536 
vt 0.0379953 0.977887 
vt 0.0628287 0.9611 
vt 0.0720407 1 
vt 0.0379953 0.977887 
vt 0.0720407 1 
vt 0.0379953 1.02211 
vt 0.0628287 1.0389 
vt 0.036214 1.07282 
vt 0.01167 1.04844 
vt 0.0379953 1.02211 
vt 0.00806467 1.09146 
vt 0.01167 0.951561 
vt -0.0325567 0.951561 
vt 0.00806467 0.908536 
vt 0.01167 1.04844 
vt 0.00806467 1.09146 
vt -0.0325567 1.04844 
vt 0.00806467 1.09146 
vt -0.181471 1.10232 
vt -0.0325567 1.04844 
vt 0.00806467 0.908536 
vt -0.0325567 0.951561 
vt -0.181471 0.897683 
vt -0.181471 0.897683 
vt -0.152557 0.951561 
vt -0.218834 0.932247 
vt -0.152557 0.951561 
vt -0.181471 0.897683 
vt -0.110234 0.951561 
vt -0.218834 1.06775 
vt -0.152557 1.04844 
vt -0.181471 1.10232 
vt -0.110234 1.04844 
vt -0.181471 1.10232 
vt -0.152557 1.04844 
vt -0.152557 1.04844 
vt -0.218834 1.06775 
vt -0.178882 1.02211 
vt -0.218834 0.932247 
vt -0.178882 1.02211 
vt -0.218834 1.06775 
vt -0.178882 0.977887 
vt -0.152557 0.951561 
vt -0.178882 0.977887 
vt -0.218834 0.932247 
vt -0.0325567 0.951561 
vt -0.110234 0.951561 
vt -0.181471 0.897683 
vt -0.0325567 1.04844 
vt -0.181471 1.10232 
vt -0.110234 1.04844 
vt -0.0951673 1.03337 
vt -0.058882 1.02211 
vt -0.0325567 1.04844 
vt -0.0951673 1.03337 
vt -0.0325567 1.04844 
vt -0.110234 1.04844 
vt -0.0325567 0.951561 
vt -0.0951673 0.966628 
vt -0.110234 0.951561 
vt -0.058882 0.977887 
vt -0.0951673 0.966628 
vt -0.058882 0.977887 
vt -0.058882 1.02211 
vt -0.0951673 1.03337 
vt 0.0436887 0.910093 
vt 0.218834 1 
vt 0.0436887 1.08991 
vt 0.0897527 1.11516 
vt 0.0897527 0.88484 
vt 0.159769 1.11516 
vt 0.202251 1.09045 
vt 0.159769 0.88484 
vt 0.202251 0.909551 
vt -0.159769 0.994078 
vt -0.202251 0.998309 
vt -0.202251 0.994078 
vt -0.159769 0.998309 
vt 0.218834 1.00592 
vt 0.218834 0.997851 
vt 0.218834 0.997851 
vt 0.181471 1.00592 
vt 0.181471 0.997851 
vt 0.218834 1.00592 
vt -0.0897527 0.994078 
vt -0.159769 0.998309 
vt -0.159769 0.994078 
vt -0.0897527 0.998309 
vt 0.181471 1.00592 
vt -0.00806467 1.00592 
vt 0.181471 0.997851 
vt -0.00806467 0.997851 
vt -0.036214 0.997851 
vt -0.00806467 0.997851 
vt -0.036214 1.00592 
vt -0.00806467 1.00592 
vt -0.0628287 1.00592 
vt -0.036214 1.00592 
vt 0.110234 1.00592 
vt 0.058882 1.00592 
vt 0.110234 1.00592 
vt 0.110234 0.997851 
vt 0.152557 1.00592 
vt 0.152557 0.997851 
vt 0.058882 0.997851 
vt -0.01167 0.997851 
vt -0.00806467 0.997851 
vt -0.01167 1.00592 
vt 0.0325567 1.00592 
vt 0.0325567 0.997851 
vt -0.0436887 0.998309 
vt -0.0436887 0.994078 
vt -0.0897527 0.998309 
vt -0.0897527 0.994078 
vt 0.0904493 0.998309 
vt 0.0904493 0.994078 
vt 1.01977e-16 0.998309 
vt 1.00405e-16 0.994078 
vt -0.0904493 0.998309 
vt -0.0904493 0.994078 
vt -0.0677533 1.00592 
vt -0.0677533 0.997851 
vt 0.091464 0.997851 
vt -0.091464 0.997851 
vt -0.091464 1.00592 
vt 0.0728213 0.997851 
vt 0.0728213 1.00592 
vt 0.0389 1.00592 
vt 0.0389 0.997851 
vt -0.0728213 0.997851 
vt -0.0389 0.997851 
vt -0.0728213 1.00592 
vt -0.0389 1.00592 
vt -0.0389 1.00592 
vt -0.0389 0.997851 
vt 1.01807e-16 0.997851 
vt 1.04805e-16 1.00592 
vt 0.0389 0.997851 
vt 0.0389 1.00592 
vt 0.0484387 1.00592 
vt 0.0221133 1.00592 
vt -0.0221133 1.00592 
vt -0.0484387 0.997851 
vt -0.0221133 0.997851 
vt -0.0484387 1.00592 
vt -0.0221133 1.00592 
vt 0.0221133 0.997851 
vt -0.0221133 1.00592 
vt 0.0221133 1.00592 
vt 0.0221133 1.00592 
vt 0.0221133 0.997851 
vt 0.0484387 0.997851 
vt 0.0484387 1.00592 
vt -0.0484387 0.997851 
vt 0.0221133 1.00592 
vt 0.0221133 0.997851 
vt 0.0484387 0.997851 
vt 0.0484387 1.00592 
vt -0.0484387 1.00592 
vt -0.0484387 0.997851 
vt -0.0221133 1.00592 
vt -0.0221133 0.997851 
vt 0.0221133 0.997851 
vt -0.0221133 1.00592 
vt 0.0221133 1.00592 
vt 0.202251 0.998309 
vt 0.202251 0.994078 
vt 0.159769 0.998309 
vt 0.159769 0.994078 
vt -0.218834 1.00592 
vt -0.218834 0.997851 
vt -0.218834 1.00592 
vt -0.181471 0.997851 
vt -0.181471 1.00592 
vt -0.218834 0.997851 
vt 0.0897527 0.994078 
vt 0.159769 0.994078 
vt 0.0897527 0.998309 
vt 0.159769 0.998309 
vt -0.181471 1.00592 
vt 0.00806467 0.997851 
vt 0.00806467 1.00592 
vt -0.181471 0.997851 
vt 0.036214 0.997851 
vt 0.036214 1.00592 
vt 0.00806467 1.00592 
vt 0.00806467 0.997851 
vt -0.0951673 1.00592 
vt 0.01167 1.00592 
vt -0.152557 1.00592 
vt -0.058882 0.997851 
vt -0.0325567 0.997851 
vt 0.00806467 0.997851 
vt -0.0325567 1.00592 
vt 0.01167 1.00592 
vt 0.01167 0.997851 
vt -0.152557 0.997851 
vt -0.152557 1.00592 
vt -0.110234 0.997851 
vt -0.110234 1.00592 
vt 0.0436887 0.994078 
vt 0.0897527 0.994078 
vt 0.0436887 0.998309 
vt 0.0897527 0.998309 

usemtl Meshpart1Mtl

f 1/1/1 2/2/2 3/3/3 
f 3/3/3 2/2/2 4/4/4 
f 6/6/6 7/7/7 8/8/8 
f 8/8/8 7/7/7 9/9/9 
f 12/12/12 13/13/13 14/14/14 
f 13/13/13 12/12/12 15/15/15 
f 18/18/18 19/19/19 20/20/20 
f 19/19/19 21/21/21 20/20/20 
f 22/22/22 23/23/23 24/24/24 
f 23/23/23 22/22/22 25/25/25 
f 26/26/26 27/27/27 28/28/28 
f 27/27/27 26/26/26 29/29/29 
f 32/32/32 31/31/31 30/30/30 
f 33/33/33 32/32/32 30/30/30 
f 35/35/35 36/36/36 34/34/34 
f 34/34/34 36/36/36 37/37/37 
f 57/57/57 58/58/58 59/59/59 
f 57/57/57 60/60/60 58/58/58 
f 61/61/61 60/60/60 57/57/57 
f 60/60/60 61/61/61 62/62/62 
f 63/63/63 64/64/64 65/65/65 
f 64/64/64 66/66/66 65/65/65 
f 67/67/67 65/65/65 66/66/66 
f 67/67/67 68/68/68 69/69/69 
f 68/68/68 67/67/67 70/70/70 
f 71/71/71 72/72/72 73/73/73 
f 74/74/74 75/75/75 76/76/76 
f 77/77/77 78/78/78 79/79/79 
f 80/80/80 81/81/81 82/82/82 
f 83/83/83 84/84/84 85/85/85 
f 86/86/86 87/87/87 88/88/88 
f 89/89/89 90/90/90 91/91/91 
f 92/92/92 93/93/93 94/94/94 
f 95/95/95 96/96/96 97/97/97 
f 98/98/98 99/99/99 100/100/100 
f 99/99/99 98/98/98 101/101/101 
f 102/102/102 103/103/103 104/104/104 
f 105/105/105 106/106/106 107/107/107 
f 108/108/108 109/109/109 110/110/110 
f 111/111/111 112/112/112 113/113/113 
f 114/114/114 115/115/115 116/116/116 
f 117/117/117 118/118/118 119/119/119 
f 118/118/118 117/117/117 120/120/120 
f 121/121/121 122/122/122 123/123/123 
f 121/121/121 123/123/123 124/124/124 
f 125/125/125 126/126/126 127/127/127 
f 127/127/127 126/126/126 128/128/128 
f 126/126/126 125/125/125 129/129/129 
f 128/128/128 126/126/126 130/130/130 
f 130/130/130 126/126/126 131/131/131 
f 132/132/132 126/126/126 129/129/129 
f 126/126/126 132/132/132 133/133/133 
f 134/134/134 135/135/135 136/136/136 
f 135/135/135 134/134/134 137/137/137 
f 140/140/140 141/141/141 142/142/142 
f 141/141/141 140/140/140 143/143/143 
f 144/144/144 145/145/145 146/146/146 
f 145/145/145 144/144/144 147/147/147 
f 148/148/148 149/149/149 150/150/150 
f 151/151/151 150/150/150 149/149/149 
f 152/152/152 153/153/153 154/154/154 
f 153/153/153 155/155/155 154/154/154 
f 161/161/161 162/162/162 160/160/160 
f 163/163/163 162/162/162 161/161/161 
f 166/166/166 167/167/167 165/165/165 
f 166/166/166 168/168/168 167/167/167 
f 168/168/168 166/166/166 169/169/169 
f 172/172/172 171/171/171 170/170/170 
f 171/171/171 172/172/172 173/173/173 
f 176/176/176 175/175/175 174/174/174 
f 175/175/175 176/176/176 177/177/177 
f 178/178/178 177/177/177 176/176/176 
f 177/177/177 178/178/178 179/179/179 
f 187/187/187 185/185/185 186/186/186 
f 187/187/187 188/188/188 185/185/185 
f 189/189/189 190/190/190 191/191/191 
f 191/191/191 190/190/190 192/192/192 
f 193/193/193 194/194/194 195/195/195 
f 193/193/193 195/195/195 196/196/196 
f 196/196/196 195/195/195 197/197/197 
f 196/196/196 197/197/197 198/198/198 
f 202/202/202 203/203/203 204/204/204 
f 204/204/204 203/203/203 205/205/205 
f 206/206/206 207/207/207 203/203/203 
f 207/207/207 206/206/206 208/208/208 
f 209/209/209 210/210/210 211/211/211 
f 209/209/209 211/211/211 212/212/212 
f 214/214/214 215/215/215 216/216/216 
f 214/214/214 216/216/216 217/217/217 
f 218/218/218 219/219/219 220/220/220 
f 219/219/219 221/221/221 220/220/220 
f 222/222/222 223/223/223 221/221/221 
f 223/223/223 222/222/222 224/224/224 
f 225/225/225 227/227/227 226/226/226 
f 228/228/228 226/226/226 227/227/227 
f 231/231/231 232/232/232 233/233/233 
f 232/232/232 231/231/231 234/234/234 
f 235/235/235 236/236/236 237/237/237 
f 238/238/238 237/237/237 236/236/236 
f 239/239/239 240/240/240 241/241/241 
f 240/240/240 239/239/239 242/242/242 
f 244/244/244 245/245/245 243/243/243 
f 245/245/245 246/246/246 243/243/243 
f 252/252/252 253/253/253 251/251/251 
f 253/253/253 252/252/252 254/254/254 
f 254/254/254 252/252/252 255/255/255 
f 258/258/258 257/257/257 256/256/256 
f 257/257/257 258/258/258 259/259/259 
f 260/260/260 261/261/261 262/262/262 
f 263/263/263 262/262/262 261/261/261 

g Meshpart2

v -0.106726 -0.385563 0.257659 
v 0.089953 -0.44975 0.217166 
v 0.106726 -0.385563 0.257659 
v -0.106726 0.331828 0.257659 
v 0.106726 0.331828 0.257659 
v 0.08612 0.425633 0.207912 
v 0.106726 0.331828 -0.257659 
v -0.08612 0.425633 -0.207912 
v 0.08612 0.425633 -0.207912 
v 0.106726 0.331828 -0.257659 
v 0.106726 -0.385563 -0.257659 
v -0.106726 -0.385563 -0.257659 
v -0.089953 -0.44975 -0.217166 
v 0.089953 -0.44975 -0.217166 
v -0.106726 0.331828 -0.257659 
v -0.08612 0.425633 -0.207912 
v 0.08612 0.425633 -0.207912 
v -0.08612 0.443224 -0.207912 
v 0.08612 0.443224 -0.207912 
v -0.106726 0.331828 0.257659 
v 0.106726 -0.385563 0.257659 
v 0.106726 0.331828 0.257659 
v -0.106726 -0.385563 0.257659 
v 0.089953 -0.44975 0.217166 
v -0.089953 -0.44975 0.217166 
v 0.08612 0.425633 0.207912 
v -0.08612 0.425633 0.207912 
v 0.08612 0.443224 0.207912 
v -0.08612 0.443224 0.207912 
v 0.257659 0.331828 -0.106726 
v 0.257659 -0.385563 -0.106726 
v 0.106726 -0.385563 -0.257659 
v 0.217166 -0.44975 -0.089953 
v 0.089953 -0.44975 -0.217166 
v 0.106726 0.331828 -0.257659 
v 0.207912 0.425633 -0.08612 
v 0.08612 0.425633 -0.207912 
v 0.08612 0.443224 -0.207912 
v 0.207912 0.443224 -0.08612 
v 0.207912 0.425633 0.08612 
v 0.207912 0.425633 -0.08612 
v 0.207912 0.443224 0.08612 
v 0.257659 0.331828 0.106726 
v 0.257659 0.331828 -0.106726 
v 0.257659 -0.385563 -0.106726 
v 0.257659 -0.385563 0.106726 
v 0.217166 -0.44975 -0.089953 
v 0.217166 -0.44975 0.089953 
v 0.08612 0.443224 0.207912 
v 0.08612 0.425633 0.207912 
v 0.207912 0.425633 0.08612 
v 0.106726 0.331828 0.257659 
v 0.257659 0.331828 0.106726 
v 0.257659 -0.385563 0.106726 
v 0.106726 -0.385563 0.257659 
v 0.217166 -0.44975 0.089953 
v 0.089953 -0.44975 0.217166 
v -0.257659 0.331828 0.106726 
v -0.106726 -0.385563 0.257659 
v -0.106726 0.331828 0.257659 
v -0.257659 -0.385563 0.106726 
v -0.217166 -0.44975 0.089953 
v -0.089953 -0.44975 0.217166 
v -0.207912 0.425633 0.08612 
v -0.08612 0.425633 0.207912 
v -0.08612 0.443224 0.207912 
v -0.207912 0.443224 0.08612 
v -0.207912 0.425633 -0.08612 
v -0.207912 0.443224 -0.08612 
v -0.207912 0.425633 0.08612 
v -0.257659 0.331828 -0.106726 
v -0.257659 0.331828 0.106726 
v -0.257659 -0.385563 0.106726 
v -0.257659 -0.385563 -0.106726 
v -0.217166 -0.44975 0.089953 
v -0.217166 -0.44975 -0.089953 
v -0.08612 0.425633 -0.207912 
v -0.08612 0.443224 -0.207912 
v -0.207912 0.425633 -0.08612 
v -0.106726 0.331828 -0.257659 
v -0.257659 0.331828 -0.106726 
v -0.257659 -0.385563 -0.106726 
v -0.106726 -0.385563 -0.257659 
v -0.217166 -0.44975 -0.089953 
v -0.089953 -0.44975 -0.217166 

vn -0.370079 -0.275591 0.889764 
vn 0.314961 -0.566929 0.76378 
vn 0.370079 -0.275591 0.889764 
vn -0.370079 0.244094 0.897638 
vn 0.370079 0.244094 0.897638 
vn 0.370079 0.275591 0.889764 
vn 0.370079 0.244094 -0.897638 
vn -0.370079 0.275591 -0.889764 
vn 0.370079 0.275591 -0.889764 
vn 0.370079 0.244094 -0.897638 
vn 0.370079 -0.275591 -0.889764 
vn -0.370079 -0.275591 -0.889764 
vn -0.314961 -0.566929 -0.76378 
vn 0.314961 -0.566929 -0.76378 
vn -0.370079 0.244094 -0.897638 
vn -0.370079 0.275591 -0.889764 
vn 0.370079 0.275591 -0.889764 
vn -0.385827 0 -0.92126 
vn 0.385827 0 -0.92126 
vn -0.370079 0.244094 0.897638 
vn 0.370079 -0.275591 0.889764 
vn 0.370079 0.244094 0.897638 
vn -0.370079 -0.275591 0.889764 
vn 0.314961 -0.566929 0.76378 
vn -0.314961 -0.566929 0.76378 
vn 0.370079 0.275591 0.889764 
vn -0.370079 0.275591 0.889764 
vn 0.385827 0 0.92126 
vn -0.385827 0 0.92126 
vn 0.897638 0.244094 -0.370079 
vn 0.889764 -0.275591 -0.370079 
vn 0.370079 -0.275591 -0.889764 
vn 0.76378 -0.566929 -0.314961 
vn 0.314961 -0.566929 -0.76378 
vn 0.370079 0.244094 -0.897638 
vn 0.889764 0.275591 -0.370079 
vn 0.370079 0.275591 -0.889764 
vn 0.385827 0 -0.92126 
vn 0.92126 0 -0.385827 
vn 0.889764 0.275591 0.370079 
vn 0.889764 0.275591 -0.370079 
vn 0.92126 0 0.385827 
vn 0.897638 0.244094 0.370079 
vn 0.897638 0.244094 -0.370079 
vn 0.889764 -0.275591 -0.370079 
vn 0.889764 -0.275591 0.370079 
vn 0.76378 -0.566929 -0.314961 
vn 0.76378 -0.566929 0.314961 
vn 0.385827 0 0.92126 
vn 0.370079 0.275591 0.889764 
vn 0.889764 0.275591 0.370079 
vn 0.370079 0.244094 0.897638 
vn 0.897638 0.244094 0.370079 
vn 0.889764 -0.275591 0.370079 
vn 0.370079 -0.275591 0.889764 
vn 0.76378 -0.566929 0.314961 
vn 0.314961 -0.566929 0.76378 
vn -0.897638 0.244094 0.370079 
vn -0.370079 -0.275591 0.889764 
vn -0.370079 0.244094 0.897638 
vn -0.889764 -0.275591 0.370079 
vn -0.76378 -0.566929 0.314961 
vn -0.314961 -0.566929 0.76378 
vn -0.889764 0.275591 0.370079 
vn -0.370079 0.275591 0.889764 
vn -0.385827 0 0.92126 
vn -0.92126 0 0.385827 
vn -0.889764 0.275591 -0.370079 
vn -0.92126 0 -0.385827 
vn -0.889764 0.275591 0.370079 
vn -0.897638 0.244094 -0.370079 
vn -0.897638 0.244094 0.370079 
vn -0.889764 -0.275591 0.370079 
vn -0.889764 -0.275591 -0.370079 
vn -0.76378 -0.566929 0.314961 
vn -0.76378 -0.566929 -0.314961 
vn -0.370079 0.275591 -0.889764 
vn -0.385827 0 -0.92126 
vn -0.889764 0.275591 -0.370079 
vn -0.370079 0.244094 -0.897638 
vn -0.897638 0.244094 -0.370079 
vn -0.889764 -0.275591 -0.370079 
vn -0.370079 -0.275591 -0.889764 
vn -0.76378 -0.566929 -0.314961 
vn -0.314961 -0.566929 -0.76378 

vt 0.073243 0.074091 
vt 0.079208 0.00301701 
vt 0.073243 0.074091 
vt 0.073243 0.868449 
vt 0.073243 0.868449 
vt 0.080571 0.972319 
vt 0.149149 0.868449 
vt 0.141822 0.972319 
vt 0.141822 0.972319 
vt 0.149149 0.868449 
vt 0.149149 0.074091 
vt 0.149149 0.074091 
vt 0.143185 0.00301701 
vt 0.143185 0.00301701 
vt 0.149149 0.868449 
vt 0.141822 0.972319 
vt 0.141822 0.972319 
vt 0.141822 0.991798 
vt 0.141822 0.991798 
vt 0.073243 0.868449 
vt 0.073243 0.074091 
vt 0.073243 0.868449 
vt 0.073243 0.074091 
vt 0.079208 0.00301701 
vt 0.079208 0.00301701 
vt 0.080571 0.972319 
vt 0.080571 0.972319 
vt 0.080571 0.991798 
vt 0.080571 0.991798 
vt 0.618176 0.868449 
vt 0.618176 0.074091 
vt 0.785303 0.074091 
vt 0.599604 0.00301701 
vt 0.740465 0.00301701 
vt 0.785303 0.868449 
vt 0.59536 0.972319 
vt 0.730219 0.972319 
vt 0.730219 0.991798 
vt 0.59536 0.991798 
vt 0.404641 0.972319 
vt 0.59536 0.972319 
vt 0.404641 0.991798 
vt 0.381824 0.868449 
vt 0.618176 0.868449 
vt 0.618176 0.074091 
vt 0.381824 0.074091 
vt 0.599604 0.00301701 
vt 0.400396 0.00301701 
vt 0.269782 0.991798 
vt 0.269782 0.972319 
vt 0.404641 0.972319 
vt 0.214698 0.868449 
vt 0.381824 0.868449 
vt 0.381824 0.074091 
vt 0.214698 0.074091 
vt 0.400396 0.00301701 
vt 0.259535 0.00301701 
vt 0.095476 0.868449 
vt 0.073243 0.074091 
vt 0.073243 0.868449 
vt 0.095476 0.074091 
vt 0.097946 0.00301701 
vt 0.079208 0.00301701 
vt 0.098511 0.972319 
vt 0.080571 0.972319 
vt 0.080571 0.991798 
vt 0.098511 0.991798 
vt 0.123882 0.972319 
vt 0.123882 0.991798 
vt 0.098511 0.972319 
vt 0.126917 0.868449 
vt 0.095476 0.868449 
vt 0.095476 0.074091 
vt 0.126917 0.074091 
vt 0.097946 0.00301701 
vt 0.124446 0.00301701 
vt 0.141822 0.972319 
vt 0.141822 0.991798 
vt 0.123882 0.972319 
vt 0.149149 0.868449 
vt 0.126917 0.868449 
vt 0.126917 0.074091 
vt 0.149149 0.074091 
vt 0.124446 0.00301701 
vt 0.143185 0.00301701 

usemtl Meshpart2Mtl

f 264/264/264 265/265/265 266/266/266 
f 267/267/267 268/268/268 269/269/269 
f 270/270/270 271/271/271 272/272/272 
f 273/273/273 274/274/274 275/275/275 
f 274/274/274 276/276/276 275/275/275 
f 276/276/276 274/274/274 277/277/277 
f 275/275/275 278/278/278 273/273/273 
f 279/279/279 273/273/273 278/278/278 
f 280/280/280 279/279/279 281/281/281 
f 280/280/280 281/281/281 282/282/282 
f 283/283/283 284/284/284 285/285/285 
f 284/284/284 283/283/283 286/286/286 
f 287/287/287 286/286/286 288/288/288 
f 283/283/283 289/289/289 290/290/290 
f 291/291/291 290/290/290 289/289/289 
f 291/291/291 292/292/292 290/290/290 
f 293/293/293 294/294/294 295/295/295 
f 295/295/295 294/294/294 296/296/296 
f 296/296/296 297/297/297 295/295/295 
f 295/295/295 298/298/298 293/293/293 
f 298/298/298 299/299/299 293/293/293 
f 299/299/299 298/298/298 300/300/300 
f 299/299/299 300/300/300 301/301/301 
f 301/301/301 302/302/302 299/299/299 
f 303/303/303 304/304/304 302/302/302 
f 302/302/302 305/305/305 303/303/303 
f 304/304/304 303/303/303 306/306/306 
f 306/306/306 307/307/307 304/304/304 
f 306/306/306 308/308/308 307/307/307 
f 306/306/306 309/309/309 308/308/308 
f 309/309/309 310/310/310 308/308/308 
f 310/310/310 309/309/309 311/311/311 
f 305/305/305 312/312/312 313/313/313 
f 313/313/313 314/314/314 305/305/305 
f 314/314/314 313/313/313 315/315/315 
f 315/315/315 316/316/316 314/314/314 
f 315/315/315 317/317/317 316/316/316 
f 317/317/317 315/315/315 318/318/318 
f 318/318/318 319/319/319 317/317/317 
f 319/319/319 318/318/318 320/320/320 
f 321/321/321 322/322/322 323/323/323 
f 322/322/322 321/321/321 324/324/324 
f 324/324/324 325/325/325 322/322/322 
f 322/322/322 325/325/325 326/326/326 
f 323/323/323 327/327/327 321/321/321 
f 327/327/327 323/323/323 328/328/328 
f 329/329/329 327/327/327 328/328/328 
f 327/327/327 329/329/329 330/330/330 
f 331/331/331 330/330/330 332/332/332 
f 330/330/330 331/331/331 333/333/333 
f 334/334/334 333/333/333 331/331/331 
f 333/333/333 334/334/334 335/335/335 
f 334/334/334 336/336/336 335/335/335 
f 336/336/336 334/334/334 337/337/337 
f 337/337/337 338/338/338 336/336/336 
f 338/338/338 337/337/337 339/339/339 
f 340/340/340 332/332/332 341/341/341 
f 332/332/332 340/340/340 342/342/342 
f 343/343/343 342/342/342 340/340/340 
f 344/344/344 342/342/342 343/343/343 
f 345/345/345 344/344/344 343/343/343 
f 343/343/343 346/346/346 345/345/345 
f 346/346/346 347/347/347 345/345/345 
f 347/347/347 346/346/346 348/348/348 

g Meshpart3

v -0.089953 -0.449718 0.217166 
v -0.095776 -0.476654 0.231223 
v -0.089953 -0.50359 0.217166 
v -0.217166 -0.449718 0.089953 
v -0.217166 -0.50359 0.089953 
v -0.231223 -0.476654 0.095776 
v -0.217166 -0.449718 -0.089953 
v -0.231223 -0.476654 -0.095776 
v -0.217166 -0.50359 -0.089953 
v -0.089953 -0.50359 -0.217166 
v -0.095776 -0.476654 -0.231223 
v -0.089953 -0.449718 -0.217166 
v -0.091874 0.497064 0.221803 
v -0.221803 0.497064 0.091874 
v -0.091874 0.497064 -0.221803 
v -0.221803 0.497064 -0.091874 
v -0.076522 0.497064 0.184739 
v -0.073591 0.474838 0.177663 
v 0.073591 0.474838 0.177663 
v 0.076522 0.497064 0.184739 
v 0.177663 0.474838 0.073591 
v 0.184739 0.497064 0.076522 
v 0.177663 0.474838 -0.073591 
v 0.184739 0.497064 -0.076522 
v 0.076522 0.497064 -0.184739 
v 0.073591 0.474838 -0.177663 
v -0.221803 0.497064 0.091874 
v -0.230419 0.47016 -0.095443 
v -0.230419 0.47016 0.095443 
v -0.221803 0.497064 -0.091874 
v -0.095443 0.47016 -0.230419 
v -0.091874 0.443256 -0.221803 
v -0.221803 0.443256 -0.091874 
v -0.221803 0.443256 0.091874 
v -0.091874 0.443256 0.221803 
v -0.095443 0.47016 0.230419 
v -0.091874 0.497064 0.221803 
v -0.217166 -0.449718 0.089953 
v -0.217166 -0.50359 -0.089953 
v -0.095776 -0.476654 -0.231223 
v 0.091874 0.497064 0.221803 
v 0.184739 0.497064 0.076522 
v 0.076522 0.497064 0.184739 
v 0.221803 0.497064 0.091874 
v -0.091874 0.497064 0.221803 
v 0.184739 0.497064 -0.076522 
v -0.076522 0.497064 0.184739 
v 0.221803 0.497064 -0.091874 
v -0.221803 0.497064 0.091874 
v 0.076522 0.497064 -0.184739 
v -0.184739 0.497064 0.076522 
v 0.091874 0.497064 -0.221803 
v -0.076522 0.497064 -0.184739 
v -0.091874 0.497064 -0.221803 
v -0.221803 0.497064 -0.091874 
v -0.184739 0.497064 -0.076522 
v -0.091874 0.497064 -0.221803 
v -0.076522 0.497064 -0.184739 
v -0.177663 0.474838 0.073591 
v -0.184739 0.497064 -0.076522 
v -0.076522 0.497064 -0.184739 
v 0.073591 0.474838 0.177663 
v -0.177663 0.474838 0.073591 
v -0.073591 0.474838 0.177663 
v -0.177663 0.474838 -0.073591 
v -0.073591 0.474838 -0.177663 
v 0.073591 0.474838 -0.177663 
v 0.177663 0.474838 0.073591 
v 0.177663 0.474838 -0.073591 
v 0.095776 -0.476654 -0.231223 
v 0.089953 -0.50359 -0.217166 
v -0.089953 -0.50359 -0.217166 
v -0.095776 -0.476654 -0.231223 
v 0.089953 -0.449718 -0.217166 
v -0.089953 -0.449718 -0.217166 
v 0.091874 0.497064 -0.221803 
v -0.091874 0.497064 -0.221803 
v -0.076522 0.497064 0.184739 
v -0.073591 0.474838 0.177663 
v 0.073591 0.474838 0.177663 
v 0.076522 0.497064 0.184739 
v -0.221803 0.497064 -0.091874 
v -0.095443 0.47016 -0.230419 
v -0.091874 0.497064 -0.221803 
v -0.091874 0.443256 -0.221803 
v 0.091874 0.443256 -0.221803 
v 0.095443 0.47016 -0.230419 
v 0.091874 0.497064 -0.221803 
v -0.091874 0.497064 -0.221803 
v -0.095443 0.47016 -0.230419 
v -0.091874 0.443256 -0.221803 
v 0.231223 -0.476654 0.095776 
v 0.217166 -0.50359 -0.089953 
v 0.231223 -0.476654 -0.095776 
v 0.217166 -0.50359 0.089953 
v 0.089953 -0.50359 0.217166 
v 0.095776 -0.476654 -0.231223 
v 0.089953 -0.50359 -0.217166 
v 0.089953 -0.449718 -0.217166 
v 0.217166 -0.449718 -0.089953 
v 0.217166 -0.449718 0.089953 
v 0.095776 -0.476654 0.231223 
v 0.089953 -0.449718 0.217166 
v 0.091874 0.497064 0.221803 
v 0.221803 0.497064 0.091874 
v 0.221803 0.497064 -0.091874 
v 0.091874 0.497064 -0.221803 
v -0.177663 0.474838 0.073591 
v -0.184739 0.497064 -0.076522 
v -0.184739 0.497064 0.076522 
v -0.076522 0.497064 0.184739 
v -0.177663 0.474838 -0.073591 
v -0.076522 0.497064 -0.184739 
v -0.073591 0.474838 -0.177663 
v -0.073591 0.474838 0.177663 
v 0.091874 0.497064 0.221803 
v 0.095443 0.47016 0.230419 
v 0.091874 0.443256 0.221803 
v 0.221803 0.497064 0.091874 
v 0.230419 0.47016 0.095443 
v 0.221803 0.443256 0.091874 
v 0.221803 0.497064 -0.091874 
v 0.230419 0.47016 -0.095443 
v 0.221803 0.443256 -0.091874 
v 0.091874 0.443256 -0.221803 
v 0.095443 0.47016 -0.230419 
v 0.091874 0.497064 -0.221803 
v -0.089953 -0.50359 0.217166 
v 0.217166 -0.50359 0.089953 
v 0.089953 -0.50359 0.217166 
v 0.217166 -0.50359 -0.089953 
v 0.089953 -0.50359 -0.217166 
v -0.089953 -0.50359 -0.217166 
v -0.217166 -0.50359 0.089953 
v -0.217166 -0.50359 -0.089953 
v 0.231223 -0.476654 0.095776 
v 0.217166 -0.50359 -0.089953 
v 0.231223 -0.476654 -0.095776 
v 0.089953 -0.50359 0.217166 
v -0.089953 -0.50359 -0.217166 
v 0.089953 -0.449718 -0.217166 
v 0.095776 -0.476654 0.231223 
v -0.089953 -0.449718 0.217166 
v -0.217166 -0.449718 0.089953 
v -0.231223 -0.476654 -0.095776 
v -0.217166 -0.50359 -0.089953 
v -0.177663 0.474838 0.073591 
v -0.184739 0.497064 -0.076522 
v -0.076522 0.497064 0.184739 
v 0.091874 0.443256 0.221803 
v 0.221803 0.497064 0.091874 
v 0.221803 0.443256 -0.091874 
v -0.091874 0.443256 -0.221803 
v 0.08612 0.443256 -0.207912 
v -0.08612 0.443256 -0.207912 
v 0.091874 0.443256 -0.221803 
v 0.221803 0.443256 -0.091874 
v 0.207912 0.443256 -0.08612 
v 0.207912 0.443256 0.08612 
v 0.221803 0.443256 0.091874 
v 0.091874 0.443256 0.221803 
v 0.08612 0.443256 0.207912 
v -0.08612 0.443256 0.207912 
v -0.091874 0.443256 0.221803 
v -0.221803 0.443256 0.091874 
v -0.207912 0.443256 0.08612 
v -0.207912 0.443256 -0.08612 
v -0.221803 0.443256 -0.091874 
v -0.091874 0.443256 -0.221803 
v -0.08612 0.443256 -0.207912 
v 0.231223 -0.476654 0.095776 
v 0.217166 -0.50359 0.089953 
v 0.089953 -0.50359 0.217166 
v 0.095776 -0.476654 0.231223 
v 0.089953 -0.449718 0.217166 
v -0.089953 -0.449718 0.217166 
v -0.095776 -0.476654 0.231223 
v -0.089953 -0.50359 0.217166 
v 0.091874 0.497064 0.221803 
v -0.091874 0.497064 0.221803 
v 0.177663 0.474838 -0.073591 
v 0.184739 0.497064 -0.076522 
v 0.076522 0.497064 -0.184739 
v 0.073591 0.474838 -0.177663 
v -0.073591 0.474838 -0.177663 
v -0.076522 0.497064 -0.184739 
v -0.091874 0.443256 0.221803 
v -0.095443 0.47016 0.230419 
v -0.091874 0.497064 0.221803 
v 0.091874 0.497064 0.221803 
v 0.095443 0.47016 0.230419 
v 0.091874 0.443256 0.221803 

vn -0.330709 0.488189 0.80315 
vn -0.385827 0 0.92126 
vn -0.330709 -0.488189 0.80315 
vn -0.80315 0.488189 0.330709 
vn -0.80315 -0.488189 0.330709 
vn -0.92126 0 0.385827 
vn -0.80315 0.488189 -0.330709 
vn -0.92126 0 -0.385827 
vn -0.80315 -0.488189 -0.330709 
vn -0.330709 -0.488189 -0.80315 
vn -0.385827 0 -0.92126 
vn -0.330709 0.488189 -0.80315 
vn 0 1 0 
vn 0 1 0 
vn 0 1 0 
vn 0 1 0 
vn 0.362205 0.322835 -0.874016 
vn 0.362205 0.322835 -0.874016 
vn -0.362205 0.322835 -0.874016 
vn -0.362205 0.322835 -0.874016 
vn -0.874016 0.322835 -0.362205 
vn -0.874016 0.322835 -0.362205 
vn -0.874016 0.322835 0.362205 
vn -0.874016 0.322835 0.362205 
vn -0.362205 0.322835 0.874016 
vn -0.362205 0.322835 0.874016 
vn -0.874016 0.330709 0.362205 
vn -0.92126 0 -0.385827 
vn -0.92126 0 0.385827 
vn -0.874016 0.330709 -0.362205 
vn -0.385827 0 -0.92126 
vn -0.362205 -0.330709 -0.874016 
vn -0.874016 -0.330709 -0.362205 
vn -0.874016 -0.330709 0.362205 
vn -0.362205 -0.330709 0.874016 
vn -0.385827 0 0.92126 
vn -0.362205 0.330709 0.874016 
vn -0.80315 0.488189 0.330709 
vn -0.80315 -0.488189 -0.330709 
vn -0.385827 0 -0.92126 
vn 0 1 0 
vn 0 1 0 
vn 0 1 0 
vn 0 1 0 
vn 0 1 0 
vn 0 1 0 
vn 0 1 0 
vn 0 1 0 
vn 0 1 0 
vn 0 1 0 
vn 0 1 0 
vn 0 1 0 
vn 0 1 0 
vn 0 1 0 
vn 0 1 0 
vn 0 1 0 
vn 0 1 0 
vn 0 1 0 
vn 0.874016 0.322835 -0.362205 
vn 0.874016 0.322835 0.362205 
vn 0.362205 0.322835 0.874016 
vn 0 1 0 
vn 0 1 0 
vn 0 1 0 
vn 0 1 0 
vn 0 1 0 
vn 0 1 0 
vn 0 1 0 
vn 0 1 0 
vn 0.385827 0 -0.92126 
vn 0.330709 -0.488189 -0.80315 
vn -0.330709 -0.488189 -0.80315 
vn -0.385827 0 -0.92126 
vn 0.330709 0.488189 -0.80315 
vn -0.330709 0.488189 -0.80315 
vn 0 1 0 
vn 0 1 0 
vn 0.362205 0.322835 -0.874016 
vn 0.362205 0.322835 -0.874016 
vn -0.362205 0.322835 -0.874016 
vn -0.362205 0.322835 -0.874016 
vn -0.874016 0.330709 -0.362205 
vn -0.385827 0 -0.92126 
vn -0.362205 0.330709 -0.874016 
vn -0.362205 -0.330709 -0.874016 
vn 0.362205 -0.330709 -0.874016 
vn 0.385827 0 -0.92126 
vn 0.362205 0.330709 -0.874016 
vn -0.362205 0.330709 -0.874016 
vn -0.385827 0 -0.92126 
vn -0.362205 -0.330709 -0.874016 
vn 0.92126 0 0.385827 
vn 0.80315 -0.488189 -0.330709 
vn 0.92126 0 -0.385827 
vn 0.80315 -0.488189 0.330709 
vn 0.330709 -0.488189 0.80315 
vn 0.385827 0 -0.92126 
vn 0.330709 -0.488189 -0.80315 
vn 0.330709 0.488189 -0.80315 
vn 0.80315 0.488189 -0.330709 
vn 0.80315 0.488189 0.330709 
vn 0.385827 0 0.92126 
vn 0.330709 0.488189 0.80315 
vn 0 1 0 
vn 0 1 0 
vn 0 1 0 
vn 0 1 0 
vn 0.874016 0.322835 -0.362205 
vn 0.874016 0.322835 0.362205 
vn 0.874016 0.322835 -0.362205 
vn 0.362205 0.322835 -0.874016 
vn 0.874016 0.322835 0.362205 
vn 0.362205 0.322835 0.874016 
vn 0.362205 0.322835 0.874016 
vn 0.362205 0.322835 -0.874016 
vn 0.362205 0.330709 0.874016 
vn 0.385827 0 0.92126 
vn 0.362205 -0.330709 0.874016 
vn 0.874016 0.330709 0.362205 
vn 0.92126 0 0.385827 
vn 0.874016 -0.330709 0.362205 
vn 0.874016 0.330709 -0.362205 
vn 0.92126 0 -0.385827 
vn 0.874016 -0.330709 -0.362205 
vn 0.362205 -0.330709 -0.874016 
vn 0.385827 0 -0.92126 
vn 0.362205 0.330709 -0.874016 
vn 0 -1 0 
vn 0 -1 0 
vn 0 -1 0 
vn 0 -1 0 
vn 0 -1 0 
vn 0 -1 0 
vn 0 -1 0 
vn 0 -1 0 
vn 0.92126 0 0.385827 
vn 0.80315 -0.488189 -0.330709 
vn 0.92126 0 -0.385827 
vn 0.330709 -0.488189 0.80315 
vn -0.330709 -0.488189 -0.80315 
vn 0.330709 0.488189 -0.80315 
vn 0.385827 0 0.92126 
vn -0.330709 0.488189 0.80315 
vn -0.80315 0.488189 0.330709 
vn -0.92126 0 -0.385827 
vn -0.80315 -0.488189 -0.330709 
vn 0.874016 0.322835 -0.362205 
vn 0.874016 0.322835 0.362205 
vn 0.362205 0.322835 -0.874016 
vn 0.362205 -0.330709 0.874016 
vn 0.874016 0.330709 0.362205 
vn 0.874016 -0.330709 -0.362205 
vn 0 -1 0 
vn 0 -1 0 
vn 0 -1 0 
vn 0 -1 0 
vn 0 -1 0 
vn 0 -1 0 
vn 0 -1 0 
vn 0 -1 0 
vn 0 -1 0 
vn 0 -1 0 
vn 0 -1 0 
vn 0 -1 0 
vn 0 -1 0 
vn 0 -1 0 
vn 0 -1 0 
vn 0 -1 0 
vn 0 -1 0 
vn 0 -1 0 
vn 0.92126 0 0.385827 
vn 0.80315 -0.488189 0.330709 
vn 0.330709 -0.488189 0.80315 
vn 0.385827 0 0.92126 
vn 0.330709 0.488189 0.80315 
vn -0.330709 0.488189 0.80315 
vn -0.385827 0 0.92126 
vn -0.330709 -0.488189 0.80315 
vn 0 1 0 
vn 0 1 0 
vn -0.874016 0.322835 0.362205 
vn -0.874016 0.322835 0.362205 
vn -0.362205 0.322835 0.874016 
vn -0.362205 0.322835 0.874016 
vn 0.362205 0.322835 0.874016 
vn 0.362205 0.322835 0.874016 
vn -0.362205 -0.330709 0.874016 
vn -0.385827 0 0.92126 
vn -0.362205 0.330709 0.874016 
vn 0.362205 0.330709 0.874016 
vn 0.385827 0 0.92126 
vn 0.362205 -0.330709 0.874016 

vt 0.289555 0.404727 
vt 0.308297 0.368812 
vt 0.289555 0.332897 
vt 0.119937 0.404727 
vt 0.119937 0.332897 
vt 0.127701 0.368812 
vt -0.119937 0.404727 
vt -0.127701 0.368812 
vt -0.119937 0.332897 
vt -0.289555 0.332897 
vt -0.308297 0.368812 
vt -0.289555 0.404727 
vt 0.295737 1.6671 
vt 0.122499 1.6671 
vt -0.295737 1.6671 
vt -0.122499 1.6671 
vt 0.246319 1.6671 
vt 0.236884 1.63747 
vt 0.236884 1.63747 
vt 0.246319 1.6671 
vt 0.0981213 1.63747 
vt 0.102029 1.6671 
vt -0.0981213 1.63747 
vt -0.102029 1.6671 
vt -0.246319 1.6671 
vt -0.236884 1.63747 
vt 0.122499 1.6671 
vt -0.127257 1.63123 
vt 0.127257 1.63123 
vt -0.122499 1.6671 
vt -0.307225 1.63123 
vt -0.295737 1.59536 
vt -0.122499 1.59536 
vt 0.122499 1.59536 
vt 0.295737 1.59536 
vt 0.307225 1.63123 
vt 0.295737 1.6671 
vt -0.289555 0.880063 
vt -0.289555 1.11994 
vt -0.127701 1.3083 
vt 0.122499 0.704263 
vt 0.246319 0.897971 
vt 0.102029 0.753681 
vt 0.295737 0.877501 
vt -0.122499 0.704263 
vt 0.246319 1.10203 
vt -0.102029 0.753681 
vt 0.295737 1.1225 
vt -0.295737 0.877501 
vt 0.102029 1.24632 
vt -0.246319 0.897971 
vt 0.122499 1.29574 
vt -0.102029 1.24632 
vt -0.122499 1.29574 
vt -0.295737 1.1225 
vt -0.246319 1.10203 
vt -0.122499 1.29574 
vt -0.102029 1.24632 
vt -0.236884 0.901879 
vt -0.246319 1.10203 
vt -0.102029 1.24632 
vt 0.0981213 0.763116 
vt -0.236884 0.901879 
vt -0.0981213 0.763116 
vt -0.236884 1.09812 
vt -0.0981213 1.23688 
vt 0.0981213 1.23688 
vt 0.236884 0.901879 
vt 0.236884 1.09812 
vt -0.127701 0.368812 
vt -0.119937 0.332897 
vt 0.119937 0.332897 
vt 0.127701 0.368812 
vt -0.119937 0.404727 
vt 0.119937 0.404727 
vt -0.122499 1.6671 
vt 0.122499 1.6671 
vt 0.102029 1.6671 
vt 0.0981213 1.63747 
vt -0.0981213 1.63747 
vt -0.102029 1.6671 
vt 0.295737 1.6671 
vt 0.127257 1.63123 
vt 0.122499 1.6671 
vt 0.122499 1.59536 
vt -0.122499 1.59536 
vt -0.127257 1.63123 
vt -0.122499 1.6671 
vt 0.122499 1.6671 
vt 0.127257 1.63123 
vt 0.122499 1.59536 
vt -0.127701 0.368812 
vt 0.119937 0.332897 
vt 0.127701 0.368812 
vt -0.119937 0.332897 
vt -0.289555 0.332897 
vt 0.308297 0.368812 
vt 0.289555 0.332897 
vt 0.289555 0.404727 
vt 0.119937 0.404727 
vt -0.119937 0.404727 
vt -0.308297 0.368812 
vt -0.289555 0.404727 
vt -0.295737 1.6671 
vt -0.122499 1.6671 
vt 0.122499 1.6671 
vt 0.295737 1.6671 
vt -0.0981213 1.63747 
vt 0.102029 1.6671 
vt -0.102029 1.6671 
vt -0.246319 1.6671 
vt 0.0981213 1.63747 
vt 0.246319 1.6671 
vt 0.236884 1.63747 
vt -0.236884 1.63747 
vt -0.295737 1.6671 
vt -0.307225 1.63123 
vt -0.295737 1.59536 
vt -0.122499 1.6671 
vt -0.127257 1.63123 
vt -0.122499 1.59536 
vt 0.122499 1.6671 
vt 0.127257 1.63123 
vt 0.122499 1.59536 
vt 0.295737 1.59536 
vt 0.307225 1.63123 
vt 0.295737 1.6671 
vt 0.119937 0.710445 
vt -0.289555 0.880063 
vt -0.119937 0.710445 
vt -0.289555 1.11994 
vt -0.119937 1.28955 
vt 0.119937 1.28955 
vt 0.289555 0.880063 
vt 0.289555 1.11994 
vt -0.308297 0.872299 
vt -0.289555 1.11994 
vt -0.308297 1.1277 
vt -0.119937 0.710445 
vt 0.119937 1.28955 
vt -0.119937 1.28955 
vt -0.127701 0.691703 
vt 0.119937 0.710445 
vt 0.289555 0.880063 
vt 0.308297 1.1277 
vt 0.289555 1.11994 
vt 0.236884 0.901879 
vt 0.246319 1.10203 
vt 0.102029 0.753681 
vt -0.122499 0.704263 
vt -0.295737 0.877501 
vt -0.295737 1.1225 
vt 0.122499 1.29574 
vt -0.114827 1.27722 
vt 0.114827 1.27722 
vt -0.122499 1.29574 
vt -0.295737 1.1225 
vt -0.277216 1.11483 
vt -0.277216 0.885173 
vt -0.295737 0.877501 
vt -0.122499 0.704263 
vt -0.114827 0.722784 
vt 0.114827 0.722784 
vt 0.122499 0.704263 
vt 0.295737 0.877501 
vt 0.277216 0.885173 
vt 0.277216 1.11483 
vt 0.295737 1.1225 
vt 0.122499 1.29574 
vt 0.114827 1.27722 
vt 0.308297 0.368812 
vt 0.289555 0.332897 
vt 0.119937 0.332897 
vt 0.127701 0.368812 
vt 0.119937 0.404727 
vt -0.119937 0.404727 
vt -0.127701 0.368812 
vt -0.119937 0.332897 
vt 0.122499 1.6671 
vt -0.122499 1.6671 
vt 0.236884 1.63747 
vt 0.246319 1.6671 
vt 0.102029 1.6671 
vt 0.0981213 1.63747 
vt -0.0981213 1.63747 
vt -0.102029 1.6671 
vt -0.122499 1.59536 
vt -0.127257 1.63123 
vt -0.122499 1.6671 
vt 0.122499 1.6671 
vt 0.127257 1.63123 
vt 0.122499 1.59536 

usemtl Meshpart3Mtl

f 352/352/352 350/350/350 349/349/349 
f 350/350/350 353/353/353 351/351/351 
f 350/350/350 352/352/352 354/354/354 
f 350/350/350 354/354/354 353/353/353 
f 355/355/355 354/354/354 352/352/352 
f 356/356/356 353/353/353 354/354/354 
f 354/354/354 355/355/355 356/356/356 
f 353/353/353 356/356/356 357/357/357 
f 358/358/358 357/357/357 356/356/356 
f 356/356/356 359/359/359 358/358/358 
f 359/359/359 356/356/356 355/355/355 
f 359/359/359 355/355/355 360/360/360 
f 369/369/369 367/367/367 368/368/368 
f 368/368/368 370/370/370 369/369/369 
f 371/371/371 369/369/369 370/370/370 
f 370/370/370 372/372/372 371/371/371 
f 373/373/373 371/371/371 372/372/372 
f 371/371/371 373/373/373 374/374/374 
f 375/375/375 376/376/376 377/377/377 
f 376/376/376 375/375/375 378/378/378 
f 379/379/379 376/376/376 378/378/378 
f 376/376/376 379/379/379 380/380/380 
f 376/376/376 380/380/380 381/381/381 
f 381/381/381 377/377/377 376/376/376 
f 377/377/377 381/381/381 382/382/382 
f 383/383/383 377/377/377 382/382/382 
f 384/384/384 375/375/375 377/377/377 
f 377/377/377 383/383/383 384/384/384 
f 375/375/375 384/384/384 385/385/385 
f 389/389/389 390/390/390 391/391/391 
f 390/390/390 389/389/389 392/392/392 
f 393/393/393 389/389/389 391/391/391 
f 394/394/394 390/390/390 392/392/392 
f 393/393/393 391/391/391 395/395/395 
f 392/392/392 396/396/396 394/394/394 
f 397/397/397 393/393/393 395/395/395 
f 396/396/396 398/398/398 394/394/394 
f 395/395/395 399/399/399 397/397/397 
f 398/398/398 396/396/396 400/400/400 
f 400/400/400 401/401/401 398/398/398 
f 400/400/400 402/402/402 401/401/401 
f 399/399/399 403/403/403 397/397/397 
f 403/403/403 399/399/399 404/404/404 
f 405/405/405 403/403/403 404/404/404 
f 404/404/404 406/406/406 405/405/405 
f 410/410/410 411/411/411 412/412/412 
f 411/411/411 410/410/410 413/413/413 
f 410/410/410 414/414/414 413/413/413 
f 410/410/410 415/415/415 414/414/414 
f 415/415/415 410/410/410 416/416/416 
f 415/415/415 416/416/416 417/417/417 
f 420/420/420 418/418/418 419/419/419 
f 418/418/418 420/420/420 421/421/421 
f 421/421/421 422/422/422 418/418/418 
f 422/422/422 421/421/421 423/423/423 
f 428/428/428 427/427/427 426/426/426 
f 428/428/428 426/426/426 429/429/429 
f 431/431/431 430/430/430 432/432/432 
f 435/435/435 437/437/437 436/436/436 
f 437/437/437 435/435/435 438/438/438 
f 434/434/434 438/438/438 435/435/435 
f 438/438/438 434/434/434 439/439/439 
f 440/440/440 441/441/441 442/442/442 
f 441/441/441 440/440/440 443/443/443 
f 445/445/445 442/442/442 441/441/441 
f 441/441/441 446/446/446 445/445/445 
f 448/448/448 445/445/445 447/447/447 
f 445/445/445 448/448/448 442/442/442 
f 449/449/449 442/442/442 448/448/448 
f 442/442/442 449/449/449 440/440/440 
f 449/449/449 450/450/450 440/440/440 
f 444/444/444 440/440/440 450/450/450 
f 449/449/449 451/451/451 450/450/450 
f 456/456/456 457/457/457 458/458/458 
f 459/459/459 456/456/456 458/458/458 
f 457/457/457 456/456/456 460/460/460 
f 461/461/461 457/457/457 460/460/460 
f 461/461/461 460/460/460 462/462/462 
f 456/456/456 459/459/459 463/463/463 
f 467/467/467 464/464/464 465/465/465 
f 468/468/468 465/465/465 466/466/466 
f 465/465/465 468/468/468 467/467/467 
f 466/466/466 469/469/469 468/468/468 
f 470/470/470 467/467/467 468/468/468 
f 471/471/471 468/468/468 469/469/469 
f 468/468/468 471/471/471 470/470/470 
f 469/469/469 472/472/472 471/471/471 
f 473/473/473 471/471/471 472/472/472 
f 474/474/474 470/470/470 471/471/471 
f 471/471/471 473/473/473 474/474/474 
f 470/470/470 474/474/474 475/475/475 
f 476/476/476 477/477/477 478/478/478 
f 477/477/477 476/476/476 479/479/479 
f 476/476/476 480/480/480 479/479/479 
f 476/476/476 481/481/481 480/480/480 
f 481/481/481 476/476/476 482/482/482 
f 481/481/481 482/482/482 483/483/483 
f 501/501/501 502/502/502 503/503/503 
f 502/502/502 501/501/501 504/504/504 
f 505/505/505 502/502/502 504/504/504 
f 502/502/502 505/505/505 506/506/506 
f 505/505/505 507/507/507 506/506/506 
f 505/505/505 508/508/508 507/507/507 
f 509/509/509 507/507/507 508/508/508 
f 507/507/507 509/509/509 510/510/510 
f 509/509/509 511/511/511 510/510/510 
f 509/509/509 512/512/512 511/511/511 
f 513/513/513 511/511/511 512/512/512 
f 511/511/511 513/513/513 514/514/514 
f 513/513/513 515/515/515 514/514/514 
f 513/513/513 516/516/516 515/515/515 
f 517/517/517 515/515/515 516/516/516 
f 515/515/515 517/517/517 518/518/518 
f 519/519/519 521/521/521 520/520/520 
f 524/524/524 522/522/522 523/523/523 
f 525/525/525 521/521/521 522/522/522 
f 522/522/522 524/524/524 525/525/525 
f 521/521/521 525/525/525 526/526/526 
f 531/531/531 533/533/533 532/532/532 
f 531/531/531 534/534/534 533/533/533 
f 538/538/538 537/537/537 536/536/536 
f 539/539/539 536/536/536 535/535/535 
f 538/538/538 536/536/536 539/539/539 
f 539/539/539 535/535/535 540/540/540 

