# Blender 5.0.0
# www.blender.org
o singularity_void
v -0.296733 0.031088 -0.221411 0.000000 0.000000 0.000000
v -0.296733 -0.230276 -0.221411 0.000000 0.000000 0.000000
v -0.296733 0.126754 -0.125745 0.000000 0.000000 0.000000
v -0.234229 0.007108 -0.179875 0.000000 0.000000 0.000000
v -0.234229 -0.206295 -0.179875 0.000000 0.000000 0.000000
v -0.296733 0.126754 0.135619 0.000000 0.000000 0.000000
v -0.234229 0.085218 -0.101764 0.000000 0.000000 0.000000
v -0.234229 0.113809 0.004937 0.000000 0.000000 0.000000
v -0.296733 0.031088 0.231285 0.000000 0.000000 0.000000
v -0.234229 0.085218 0.111638 0.000000 0.000000 0.000000
v -0.234229 0.007108 0.189749 0.000000 0.000000 0.000000
v -0.155479 0.030929 0.004937 0.000000 0.000000 0.000000
v -0.296733 -0.230276 0.231285 0.000000 0.000000 0.000000
v -0.234229 -0.099594 0.218340 0.000000 0.000000 0.000000
v -0.234229 -0.206295 0.189749 0.000000 0.000000 0.000000
v -0.296733 -0.325941 0.135619 0.000000 0.000000 0.000000
v -0.234229 -0.284406 0.111638 0.000000 0.000000 0.000000
v -0.296733 -0.325941 -0.125745 0.000000 0.000000 0.000000
v -0.234229 -0.284406 -0.101764 0.000000 0.000000 0.000000
v -0.234229 -0.312996 0.004937 0.000000 0.000000 0.000000
v -0.155479 -0.230116 0.004936 0.000000 0.000000 0.000000
v -0.155479 -0.164855 -0.108099 0.000000 0.000000 0.000000
v -0.155479 -0.164855 0.117973 0.000000 0.000000 0.000000
v -0.155479 -0.212629 0.070198 0.000000 0.000000 0.000000
v -0.155479 -0.099594 0.135459 0.000000 0.000000 0.000000
v -0.155479 -0.034333 0.117973 0.000000 0.000000 0.000000
v -0.155479 0.013442 0.070198 0.000000 0.000000 0.000000
v 1.287750 -0.100659 0.006781 0.000000 0.000000 0.000000
v 1.287750 -0.099594 0.007066 0.000000 0.000000 0.000000
v 1.287750 -0.101438 0.006001 0.000000 0.000000 0.000000
v 1.287750 -0.098529 0.006781 0.000000 0.000000 0.000000
v 1.287750 -0.097749 0.006001 0.000000 0.000000 0.000000
v 1.287750 -0.097464 0.004936 0.000000 0.000000 0.000000
v 1.287750 -0.097749 0.003871 0.000000 0.000000 0.000000
v 1.287750 -0.098529 0.003091 0.000000 0.000000 0.000000
v 1.287750 -0.099594 0.002806 0.000000 0.000000 0.000000
v 1.287750 -0.101438 0.003871 0.000000 0.000000 0.000000
v 1.287750 -0.100659 0.003091 0.000000 0.000000 0.000000
v 1.287750 -0.101724 0.004936 0.000000 0.000000 0.000000
v -0.155479 -0.212629 -0.060324 0.000000 0.000000 0.000000
v -0.155479 -0.099594 -0.125585 0.000000 0.000000 0.000000
v -0.234229 -0.099594 -0.208466 0.000000 0.000000 0.000000
v -0.155479 -0.034333 -0.108098 0.000000 0.000000 0.000000
v -0.155479 0.013442 -0.060324 0.000000 0.000000 0.000000
v -0.598530 0.031088 0.231285 0.000000 0.000000 0.000000
v -0.525741 0.046163 0.257395 0.000000 0.000000 0.000000
v -0.661034 0.085218 0.111638 0.000000 0.000000 0.000000
v -0.598530 0.126754 0.135619 0.000000 0.000000 0.000000
v -0.525741 0.152864 0.150694 0.000000 0.000000 0.000000
v -0.447631 0.161770 0.155835 0.000000 0.000000 0.000000
v -0.447631 0.051305 0.266301 0.000000 0.000000 0.000000
v -0.369521 0.046163 0.257395 0.000000 0.000000 0.000000
v -0.369521 0.152864 0.150694 0.000000 0.000000 0.000000
v -0.447631 0.202203 0.004937 0.000000 0.000000 0.000000
v -0.525741 0.191920 0.004937 0.000000 0.000000 0.000000
v -0.598530 0.161770 0.004937 0.000000 0.000000 0.000000
v -0.661034 0.113809 0.004937 0.000000 0.000000 0.000000
v -0.598530 0.126754 -0.125745 0.000000 0.000000 0.000000
v -0.661034 0.085218 -0.101764 0.000000 0.000000 0.000000
v -0.525742 0.152864 -0.140820 0.000000 0.000000 0.000000
v -0.598530 0.031088 -0.221411 0.000000 0.000000 0.000000
v -0.525742 0.046163 -0.247521 0.000000 0.000000 0.000000
v -0.447631 0.051305 -0.256427 0.000000 0.000000 0.000000
v -0.447631 0.161770 -0.145961 0.000000 0.000000 0.000000
v -0.369521 0.046163 -0.247521 0.000000 0.000000 0.000000
v -0.369521 0.152864 -0.140820 0.000000 0.000000 0.000000
v -0.296733 0.031088 -0.221411 0.000000 0.000000 0.000000
v -0.369521 0.191920 0.004937 0.000000 0.000000 0.000000
v -0.296733 0.126754 -0.125745 0.000000 0.000000 0.000000
v -0.296733 0.126754 0.135619 0.000000 0.000000 0.000000
v -0.296733 0.161770 0.004937 0.000000 0.000000 0.000000
v -0.234229 0.085218 -0.101764 0.000000 0.000000 0.000000
v -0.234229 0.113809 0.004937 0.000000 0.000000 0.000000
v -0.296733 0.031088 0.231285 0.000000 0.000000 0.000000
v -0.234229 0.085218 0.111638 0.000000 0.000000 0.000000
v -0.155479 0.030929 0.004937 0.000000 0.000000 0.000000
v -0.155479 -0.034333 0.117973 0.000000 0.000000 0.000000
v -0.155479 0.013442 0.070198 0.000000 0.000000 0.000000
v -0.058588 -0.058184 0.076660 0.000000 0.000000 0.000000
v -0.058588 -0.027871 0.046345 0.000000 0.000000 0.000000
v 0.082043 -0.078458 0.041543 0.000000 0.000000 0.000000
v 0.082043 -0.062986 0.026071 0.000000 0.000000 0.000000
v -0.058588 -0.016775 0.004937 0.000000 0.000000 0.000000
v 0.294145 -0.091968 0.018144 0.000000 0.000000 0.000000
v 0.403026 -0.095791 0.011522 0.000000 0.000000 0.000000
v 1.282240 -0.097837 0.007979 0.000000 0.000000 0.000000
v 1.287750 -0.098529 0.006781 0.000000 0.000000 0.000000
v 1.287750 -0.097749 0.006001 0.000000 0.000000 0.000000
v 1.287750 -0.097464 0.004936 0.000000 0.000000 0.000000
v 1.282240 -0.096551 0.006693 0.000000 0.000000 0.000000
v 1.282240 -0.096080 0.004936 0.000000 0.000000 0.000000
v 0.403026 -0.093008 0.008738 0.000000 0.000000 0.000000
v 0.403026 -0.091989 0.004936 0.000000 0.000000 0.000000
v 0.294145 -0.086386 0.012562 0.000000 0.000000 0.000000
v 0.294145 -0.084343 0.004936 0.000000 0.000000 0.000000
v 0.082043 -0.057323 0.004936 0.000000 0.000000 0.000000
v 0.403026 -0.093008 0.001134 0.000000 0.000000 0.000000
v 0.294145 -0.086386 -0.002689 0.000000 0.000000 0.000000
v 0.082043 -0.062986 -0.016199 0.000000 0.000000 0.000000
v -0.058588 -0.027870 -0.036472 0.000000 0.000000 0.000000
v 1.282240 -0.096551 0.003179 0.000000 0.000000 0.000000
v 0.403026 -0.095791 -0.001650 0.000000 0.000000 0.000000
v 1.287750 -0.097749 0.003871 0.000000 0.000000 0.000000
v 1.282240 -0.097837 0.001893 0.000000 0.000000 0.000000
v 1.287750 -0.098529 0.003091 0.000000 0.000000 0.000000
v 0.294145 -0.091968 -0.008272 0.000000 0.000000 0.000000
v 0.082043 -0.078458 -0.031671 0.000000 0.000000 0.000000
v -0.155479 0.013442 -0.060324 0.000000 0.000000 0.000000
v -0.598530 -0.230276 0.231285 0.000000 0.000000 0.000000
v -0.598530 -0.099594 0.266301 0.000000 0.000000 0.000000
v -0.661034 -0.206295 0.189749 0.000000 0.000000 0.000000
v -0.661034 -0.099594 0.218340 0.000000 0.000000 0.000000
v -0.525741 -0.099594 0.296450 0.000000 0.000000 0.000000
v -0.598530 0.031088 0.231285 0.000000 0.000000 0.000000
v -0.525741 -0.245350 0.257395 0.000000 0.000000 0.000000
v -0.661034 0.007108 0.189749 0.000000 0.000000 0.000000
v -0.525741 0.046163 0.257395 0.000000 0.000000 0.000000
v -0.447631 -0.099594 0.306734 0.000000 0.000000 0.000000
v -0.447631 0.051305 0.266301 0.000000 0.000000 0.000000
v -0.369521 0.046163 0.257395 0.000000 0.000000 0.000000
v -0.447631 -0.250492 0.266301 0.000000 0.000000 0.000000
v -0.525741 -0.352052 0.150694 0.000000 0.000000 0.000000
v -0.296733 0.031088 0.231285 0.000000 0.000000 0.000000
v -0.234229 0.007108 0.189749 0.000000 0.000000 0.000000
v -0.369521 -0.099594 0.296450 0.000000 0.000000 0.000000
v -0.296733 -0.099594 0.266301 0.000000 0.000000 0.000000
v -0.369521 -0.245350 0.257395 0.000000 0.000000 0.000000
v -0.296733 -0.230276 0.231285 0.000000 0.000000 0.000000
v -0.234229 -0.099594 0.218340 0.000000 0.000000 0.000000
v -0.234229 -0.206295 0.189749 0.000000 0.000000 0.000000
v -0.447631 -0.360957 0.155835 0.000000 0.000000 0.000000
v -0.369521 -0.352052 0.150694 0.000000 0.000000 0.000000
v -0.155479 -0.164855 0.117973 0.000000 0.000000 0.000000
v -0.155479 -0.099594 0.135459 0.000000 0.000000 0.000000
v -0.058588 -0.141003 0.076660 0.000000 0.000000 0.000000
v -0.155479 -0.034333 0.117973 0.000000 0.000000 0.000000
v -0.058588 -0.099594 0.087755 0.000000 0.000000 0.000000
v -0.058588 -0.058184 0.076660 0.000000 0.000000 0.000000
v 0.082043 -0.078458 0.041543 0.000000 0.000000 0.000000
v 0.082043 -0.120729 0.041543 0.000000 0.000000 0.000000
v 0.082043 -0.099594 0.047207 0.000000 0.000000 0.000000
v 0.082043 -0.062986 0.026071 0.000000 0.000000 0.000000
v 0.294145 -0.091968 0.018144 0.000000 0.000000 0.000000
v 0.294145 -0.107219 0.018144 0.000000 0.000000 0.000000
v 0.082043 -0.136201 0.026071 0.000000 0.000000 0.000000
v 0.294145 -0.099594 0.020187 0.000000 0.000000 0.000000
v 0.403026 -0.095791 0.011522 0.000000 0.000000 0.000000
v 0.403026 -0.103396 0.011522 0.000000 0.000000 0.000000
v 0.294145 -0.112801 0.012562 0.000000 0.000000 0.000000
v 0.403026 -0.099594 0.012541 0.000000 0.000000 0.000000
v 1.282240 -0.102637 0.006693 0.000000 0.000000 0.000000
v 1.282240 -0.101351 0.007979 0.000000 0.000000 0.000000
v 1.282240 -0.099594 0.008450 0.000000 0.000000 0.000000
v 1.287750 -0.100659 0.006781 0.000000 0.000000 0.000000
v 1.282240 -0.097837 0.007979 0.000000 0.000000 0.000000
v 1.287750 -0.099594 0.007066 0.000000 0.000000 0.000000
v 1.287750 -0.098529 0.006781 0.000000 0.000000 0.000000
v 1.287750 -0.097749 0.006001 0.000000 0.000000 0.000000
v 1.282240 -0.096551 0.006693 0.000000 0.000000 0.000000
v 0.403026 -0.093008 0.008738 0.000000 0.000000 0.000000
v 0.294145 -0.086386 0.012562 0.000000 0.000000 0.000000
v -0.598530 -0.230276 0.231285 0.000000 0.000000 0.000000
v -0.661034 -0.206295 0.189749 0.000000 0.000000 0.000000
v -0.661034 -0.099594 0.218340 0.000000 0.000000 0.000000
v -0.598530 -0.325941 0.135619 0.000000 0.000000 0.000000
v -0.598530 0.031088 0.231285 0.000000 0.000000 0.000000
v -0.708995 -0.175043 0.135619 0.000000 0.000000 0.000000
v -0.661034 0.007108 0.189749 0.000000 0.000000 0.000000
v -0.708995 -0.024144 0.135619 0.000000 0.000000 0.000000
v -0.708995 -0.099594 0.155835 0.000000 0.000000 0.000000
v -0.661034 0.085218 0.111638 0.000000 0.000000 0.000000
v -0.598530 0.126754 0.135619 0.000000 0.000000 0.000000
v -0.661034 0.113809 0.004937 0.000000 0.000000 0.000000
v -0.598530 0.126754 -0.125745 0.000000 0.000000 0.000000
v -0.661034 0.085218 -0.101764 0.000000 0.000000 0.000000
v -0.708995 0.051305 0.004937 0.000000 0.000000 0.000000
v -0.708995 0.031088 0.080386 0.000000 0.000000 0.000000
v -0.708995 0.031088 -0.070512 0.000000 0.000000 0.000000
v -0.739145 -0.060538 0.072583 0.000000 0.000000 0.000000
v -0.739145 -0.021483 0.004937 0.000000 0.000000 0.000000
v -0.739145 -0.031948 0.043992 0.000000 0.000000 0.000000
v -0.739145 -0.099594 0.083048 0.000000 0.000000 0.000000
v -0.749428 -0.099594 0.004937 0.000000 0.000000 0.000000
v -0.739145 -0.031948 -0.034118 0.000000 0.000000 0.000000
v -0.739145 -0.138649 0.072583 0.000000 0.000000 0.000000
v -0.739145 -0.060538 -0.062709 0.000000 0.000000 0.000000
v -0.708995 -0.024144 -0.125745 0.000000 0.000000 0.000000
v -0.739145 -0.167240 0.043992 0.000000 0.000000 0.000000
v -0.661034 0.007108 -0.179875 0.000000 0.000000 0.000000
v -0.708995 -0.099594 -0.145961 0.000000 0.000000 0.000000
v -0.598530 0.031088 -0.221411 0.000000 0.000000 0.000000
v -0.739145 -0.099594 -0.073174 0.000000 0.000000 0.000000
v -0.739145 -0.138649 -0.062709 0.000000 0.000000 0.000000
v -0.739145 -0.177704 0.004937 0.000000 0.000000 0.000000
v -0.661034 -0.099594 -0.208466 0.000000 0.000000 0.000000
v -0.708995 -0.175043 -0.125745 0.000000 0.000000 0.000000
v -0.739145 -0.167240 -0.034118 0.000000 0.000000 0.000000
v -0.708995 -0.250492 0.004937 0.000000 0.000000 0.000000
v -0.708995 -0.230276 0.080386 0.000000 0.000000 0.000000
v -0.708995 -0.230276 -0.070512 0.000000 0.000000 0.000000
v -0.661034 -0.312996 0.004937 0.000000 0.000000 0.000000
v -0.661034 -0.284406 0.111638 0.000000 0.000000 0.000000
v -0.661034 -0.284406 -0.101764 0.000000 0.000000 0.000000
v -0.661034 -0.206295 -0.179875 0.000000 0.000000 0.000000
v -0.598530 -0.325941 -0.125745 0.000000 0.000000 0.000000
v -0.598530 -0.230275 -0.221411 0.000000 0.000000 0.000000
v -0.598530 -0.230276 0.231285 0.000000 0.000000 0.000000
v -0.598530 -0.325941 0.135619 0.000000 0.000000 0.000000
v -0.525741 -0.245350 0.257395 0.000000 0.000000 0.000000
v -0.447631 -0.250492 0.266301 0.000000 0.000000 0.000000
v -0.661034 -0.312996 0.004937 0.000000 0.000000 0.000000
v -0.661034 -0.284406 0.111638 0.000000 0.000000 0.000000
v -0.661034 -0.284406 -0.101764 0.000000 0.000000 0.000000
v -0.598530 -0.360957 0.004937 0.000000 0.000000 0.000000
v -0.598530 -0.325941 -0.125745 0.000000 0.000000 0.000000
v -0.525741 -0.391107 0.004937 0.000000 0.000000 0.000000
v -0.525741 -0.352052 0.150694 0.000000 0.000000 0.000000
v -0.525742 -0.245350 -0.247521 0.000000 0.000000 0.000000
v -0.525742 -0.352052 -0.140820 0.000000 0.000000 0.000000
v -0.447631 -0.401391 0.004937 0.000000 0.000000 0.000000
v -0.447631 -0.360957 -0.145961 0.000000 0.000000 0.000000
v -0.447631 -0.250492 -0.256427 0.000000 0.000000 0.000000
v -0.369521 -0.245350 -0.247521 0.000000 0.000000 0.000000
v -0.369521 -0.352052 -0.140820 0.000000 0.000000 0.000000
v -0.296733 -0.230276 -0.221411 0.000000 0.000000 0.000000
v -0.369521 -0.245350 0.257395 0.000000 0.000000 0.000000
v -0.296733 -0.230276 0.231285 0.000000 0.000000 0.000000
v -0.447631 -0.360957 0.155835 0.000000 0.000000 0.000000
v -0.369521 -0.352052 0.150694 0.000000 0.000000 0.000000
v -0.369521 -0.391107 0.004937 0.000000 0.000000 0.000000
v -0.296733 -0.325941 0.135619 0.000000 0.000000 0.000000
v -0.234229 -0.284406 0.111638 0.000000 0.000000 0.000000
v -0.296733 -0.325941 -0.125745 0.000000 0.000000 0.000000
v -0.296733 -0.360957 0.004937 0.000000 0.000000 0.000000
v -0.234229 -0.284406 -0.101764 0.000000 0.000000 0.000000
v -0.234229 -0.312996 0.004937 0.000000 0.000000 0.000000
v -0.155479 -0.230116 0.004936 0.000000 0.000000 0.000000
v -0.155479 -0.164855 -0.108099 0.000000 0.000000 0.000000
v -0.155479 -0.164855 0.117973 0.000000 0.000000 0.000000
v -0.155479 -0.212629 0.070198 0.000000 0.000000 0.000000
v -0.058588 -0.141003 0.076660 0.000000 0.000000 0.000000
v -0.058588 -0.171317 0.046345 0.000000 0.000000 0.000000
v 0.082043 -0.120729 0.041543 0.000000 0.000000 0.000000
v 0.294145 -0.107219 0.018144 0.000000 0.000000 0.000000
v 0.082043 -0.136201 0.026071 0.000000 0.000000 0.000000
v -0.058588 -0.182412 0.004936 0.000000 0.000000 0.000000
v 0.403026 -0.103396 0.011522 0.000000 0.000000 0.000000
v 0.294145 -0.112801 0.012562 0.000000 0.000000 0.000000
v 0.082043 -0.141864 0.004936 0.000000 0.000000 0.000000
v 0.294145 -0.114845 0.004936 0.000000 0.000000 0.000000
v 0.403026 -0.106180 0.008738 0.000000 0.000000 0.000000
v 1.282240 -0.102637 0.006693 0.000000 0.000000 0.000000
v 0.403026 -0.107198 0.004936 0.000000 0.000000 0.000000
v 1.282240 -0.101351 0.007979 0.000000 0.000000 0.000000
v 1.287750 -0.100659 0.006781 0.000000 0.000000 0.000000
v 1.287750 -0.101438 0.006001 0.000000 0.000000 0.000000
v 1.287750 -0.101438 0.003871 0.000000 0.000000 0.000000
v 1.287750 -0.100659 0.003091 0.000000 0.000000 0.000000
v 1.282240 -0.101351 0.001893 0.000000 0.000000 0.000000
v 1.282240 -0.102637 0.003179 0.000000 0.000000 0.000000
v 1.287750 -0.101724 0.004936 0.000000 0.000000 0.000000
v 1.282240 -0.103107 0.004936 0.000000 0.000000 0.000000
v 0.403026 -0.103396 -0.001650 0.000000 0.000000 0.000000
v 0.403026 -0.106180 0.001134 0.000000 0.000000 0.000000
v 0.294145 -0.112801 -0.002689 0.000000 0.000000 0.000000
v 0.294145 -0.107219 -0.008272 0.000000 0.000000 0.000000
v 0.082043 -0.136201 -0.016199 0.000000 0.000000 0.000000
v 0.082043 -0.120729 -0.031671 0.000000 0.000000 0.000000
v -0.058588 -0.171317 -0.036472 0.000000 0.000000 0.000000
v -0.058588 -0.141003 -0.066786 0.000000 0.000000 0.000000
v -0.155479 -0.212629 -0.060324 0.000000 0.000000 0.000000
v -0.661034 0.007108 -0.179875 0.000000 0.000000 0.000000
v -0.598530 0.031088 -0.221411 0.000000 0.000000 0.000000
v -0.661034 -0.099594 -0.208466 0.000000 0.000000 0.000000
v -0.661034 -0.206295 -0.179875 0.000000 0.000000 0.000000
v -0.598530 -0.325941 -0.125745 0.000000 0.000000 0.000000
v -0.598530 -0.099594 -0.256427 0.000000 0.000000 0.000000
v -0.598530 -0.230275 -0.221411 0.000000 0.000000 0.000000
v -0.525742 -0.099594 -0.286576 0.000000 0.000000 0.000000
v -0.525742 -0.245350 -0.247521 0.000000 0.000000 0.000000
v -0.525742 -0.352052 -0.140820 0.000000 0.000000 0.000000
v -0.447631 -0.360957 -0.145961 0.000000 0.000000 0.000000
v -0.447631 -0.250492 -0.256427 0.000000 0.000000 0.000000
v -0.447631 -0.099594 -0.296860 0.000000 0.000000 0.000000
v -0.525742 0.046163 -0.247521 0.000000 0.000000 0.000000
v -0.369521 -0.245350 -0.247521 0.000000 0.000000 0.000000
v -0.369521 -0.352052 -0.140820 0.000000 0.000000 0.000000
v -0.447631 0.051305 -0.256427 0.000000 0.000000 0.000000
v -0.369521 0.046163 -0.247521 0.000000 0.000000 0.000000
v -0.369521 -0.099594 -0.286576 0.000000 0.000000 0.000000
v -0.296733 0.031088 -0.221411 0.000000 0.000000 0.000000
v -0.296733 -0.230276 -0.221411 0.000000 0.000000 0.000000
v -0.296733 -0.099594 -0.256427 0.000000 0.000000 0.000000
v -0.234229 0.007108 -0.179875 0.000000 0.000000 0.000000
v -0.234229 -0.206295 -0.179875 0.000000 0.000000 0.000000
v -0.155479 -0.164855 -0.108099 0.000000 0.000000 0.000000
v 0.403026 -0.093008 0.001134 0.000000 0.000000 0.000000
v -0.058588 -0.027870 -0.036472 0.000000 0.000000 0.000000
v 1.282240 -0.096551 0.003179 0.000000 0.000000 0.000000
v 0.403026 -0.095791 -0.001650 0.000000 0.000000 0.000000
v 1.287750 -0.097749 0.003871 0.000000 0.000000 0.000000
v 1.282240 -0.097837 0.001893 0.000000 0.000000 0.000000
v 1.287750 -0.098529 0.003091 0.000000 0.000000 0.000000
v 1.287750 -0.099594 0.002806 0.000000 0.000000 0.000000
v 1.282240 -0.099594 0.001422 0.000000 0.000000 0.000000
v 1.287750 -0.100659 0.003091 0.000000 0.000000 0.000000
v 0.403026 -0.099594 -0.002669 0.000000 0.000000 0.000000
v 1.282240 -0.101351 0.001893 0.000000 0.000000 0.000000
v 1.282240 -0.102637 0.003179 0.000000 0.000000 0.000000
v 0.403026 -0.103396 -0.001650 0.000000 0.000000 0.000000
v 0.294145 -0.099594 -0.010315 0.000000 0.000000 0.000000
v 0.294145 -0.107219 -0.008272 0.000000 0.000000 0.000000
v 0.294145 -0.091968 -0.008272 0.000000 0.000000 0.000000
v 0.082043 -0.099594 -0.037334 0.000000 0.000000 0.000000
v 0.082043 -0.078458 -0.031671 0.000000 0.000000 0.000000
v 0.082043 -0.120729 -0.031671 0.000000 0.000000 0.000000
v -0.058588 -0.099594 -0.077882 0.000000 0.000000 0.000000
v -0.058588 -0.058184 -0.066786 0.000000 0.000000 0.000000
v -0.058588 -0.141003 -0.066786 0.000000 0.000000 0.000000
v -0.155479 -0.099594 -0.125585 0.000000 0.000000 0.000000
v -0.234229 -0.099594 -0.208466 0.000000 0.000000 0.000000
v -0.155479 -0.034333 -0.108098 0.000000 0.000000 0.000000
v -0.155479 0.013442 -0.060324 0.000000 0.000000 0.000000
vn 0.6623 0.3785 -0.6466
vn 0.4889 0.4337 -0.7569
vn 0.4889 0.7569 -0.4337
vn 0.6623 0.6466 -0.3785
vn 0.6623 0.3785 0.6466
vn 0.4889 0.7569 0.4337
vn 0.4889 0.4337 0.7569
vn 0.6623 0.6466 0.3785
vn 0.6064 0.7952 -0.0000
vn 0.6624 0.7491 -0.0000
vn 0.4889 -0.4337 0.7569
vn 0.4889 -0.7569 0.4337
vn 0.6623 -0.3785 0.6466
vn 0.6623 -0.6466 0.3785
vn 0.6623 -0.3785 -0.6466
vn 0.4889 -0.7569 -0.4337
vn 0.4889 -0.4337 -0.7569
vn 0.6623 -0.6466 -0.3785
vn 0.6064 -0.7952 -0.0000
vn 0.6624 -0.7491 -0.0000
vn 0.6088 -0.3953 -0.6878
vn 0.6088 -0.3953 0.6878
vn 0.6625 -0.0000 0.7491
vn 0.6088 -0.6878 0.3953
vn 0.6063 -0.0000 0.7952
vn 0.6088 0.3953 0.6878
vn 0.6088 0.6878 0.3953
vn 0.7394 -0.5821 0.3384
vn 0.7417 -0.0000 0.6708
vn 0.7394 -0.3383 0.5822
vn 0.7394 0.5822 0.3382
vn 0.7394 0.3384 0.5821
vn 0.7417 0.6708 -0.0000
vn 0.7417 -0.0000 -0.6708
vn 0.7394 0.5821 -0.3384
vn 0.7394 0.3382 -0.5822
vn 0.7394 -0.5822 -0.3383
vn 0.7394 -0.3383 -0.5821
vn 0.7417 -0.6708 -0.0000
vn 0.6088 -0.6878 -0.3953
vn 0.6624 -0.0000 -0.7491
vn 0.6064 -0.0000 -0.7952
vn 0.6088 0.3953 -0.6878
vn 0.6088 0.6878 -0.3953
vn -0.4888 0.7570 0.4336
vn -0.4889 0.4338 0.7569
vn -0.2532 0.8384 0.4826
vn -0.2531 0.4826 0.8385
vn -0.0000 0.8677 0.4970
vn -0.0000 0.4971 0.8677
vn 0.2531 0.4826 0.8385
vn 0.2531 0.8385 0.4826
vn -0.0000 1.0000 -0.0000
vn -0.2518 0.9678 -0.0000
vn -0.4877 0.8730 -0.0000
vn -0.6935 0.6226 0.3625
vn -0.6951 0.7189 -0.0000
vn -0.4888 0.7570 -0.4336
vn -0.6935 0.6226 -0.3625
vn -0.2531 0.8385 -0.4826
vn -0.4888 0.4337 -0.7569
vn -0.2531 0.4826 -0.8385
vn -0.0000 0.8677 -0.4970
vn -0.0000 0.4971 -0.8677
vn 0.2531 0.4826 -0.8385
vn 0.2531 0.8385 -0.4826
vn 0.4889 0.4338 -0.7569
vn 0.2517 0.9678 -0.0000
vn 0.4888 0.7570 -0.4336
vn 0.4888 0.7570 0.4336
vn 0.4877 0.8730 -0.0000
vn 0.6623 0.6467 -0.3784
vn 0.6624 0.7492 -0.0000
vn 0.4888 0.4337 0.7569
vn 0.6623 0.6467 0.3784
vn 0.6087 0.3953 0.6879
vn 0.3637 0.4665 0.8063
vn 0.6087 0.6879 0.3953
vn 0.3637 0.8064 0.4664
vn 0.6062 0.7953 -0.0000
vn 0.2044 0.4874 0.8489
vn 0.2045 0.8489 0.4875
vn 0.3632 0.9317 -0.0000
vn 0.1027 0.4978 0.8612
vn 0.1261 0.4965 0.8588
vn 0.7394 0.3382 0.5821
vn 0.1261 0.8588 0.4965
vn 0.1261 0.8589 0.4964
vn 0.7394 0.5821 0.3383
vn 0.1260 0.9920 -0.0000
vn 0.7417 0.6707 -0.0000
vn 0.0394 0.4967 0.8671
vn 0.0394 0.8671 0.4966
vn 0.0393 0.9992 -0.0000
vn 0.1027 0.8613 0.4977
vn 0.1025 0.9947 -0.0000
vn 0.2052 0.9787 -0.0000
vn 0.0394 0.8671 -0.4966
vn 0.1027 0.8612 -0.4978
vn 0.2044 0.8490 -0.4873
vn 0.3637 0.8064 -0.4664
vn 0.1261 0.8589 -0.4964
vn 0.0394 0.4967 -0.8671
vn 0.7394 0.5821 -0.3383
vn 0.1260 0.4964 -0.8589
vn 0.1261 0.8588 -0.4965
vn 0.7395 0.3382 -0.5821
vn 0.1261 0.4964 -0.8589
vn 0.1027 0.4978 -0.8612
vn 0.2044 0.4874 -0.8489
vn 0.6087 0.6879 -0.3953
vn -0.4889 -0.4336 0.7570
vn -0.4877 -0.0000 0.8730
vn -0.6935 -0.3625 0.6226
vn -0.6951 -0.0000 0.7189
vn -0.2517 -0.0000 0.9678
vn -0.4889 0.4335 0.7570
vn -0.2531 -0.4825 0.8385
vn -0.6935 0.3625 0.6226
vn -0.2531 0.4825 0.8385
vn -0.0000 -0.0000 1.0000
vn -0.0000 0.4969 0.8678
vn 0.2531 0.4825 0.8386
vn -0.0000 -0.4969 0.8678
vn -0.2531 -0.8385 0.4826
vn 0.2519 -0.0000 0.9678
vn 0.4889 0.4335 0.7570
vn 0.4877 -0.0000 0.8730
vn 0.6623 0.3784 0.6467
vn 0.2531 -0.4825 0.8385
vn 0.4889 -0.4336 0.7570
vn 0.6624 -0.0000 0.7492
vn 0.6623 -0.3784 0.6467
vn -0.0000 -0.8677 0.4971
vn 0.2531 -0.8385 0.4826
vn 0.3637 -0.4664 0.8064
vn 0.6062 -0.0000 0.7953
vn 0.6087 -0.3953 0.6879
vn 0.3632 -0.0000 0.9317
vn 0.3637 0.4664 0.8064
vn 0.6088 0.3953 0.6879
vn 0.2044 0.4873 0.8490
vn 0.2044 -0.4872 0.8490
vn 0.2053 -0.0000 0.9787
vn 0.1027 0.4977 0.8612
vn 0.1027 -0.4978 0.8612
vn 0.1026 -0.0000 0.9947
vn 0.0394 0.4966 0.8671
vn 0.0394 -0.4965 0.8671
vn 0.2044 -0.8489 0.4874
vn 0.1027 -0.8612 0.4978
vn 0.0392 -0.0000 0.9992
vn 0.1261 -0.4964 0.8589
vn 0.1261 -0.8589 0.4964
vn 0.1259 -0.0000 0.9920
vn 0.7394 -0.3383 0.5821
vn 0.1261 0.4963 0.8589
vn 0.7417 -0.0000 0.6707
vn 0.7395 0.5821 0.3382
vn 0.7395 0.3381 0.5821
vn 0.1260 0.4965 0.8589
vn 0.1027 0.8612 0.4978
vn 0.2044 0.8489 0.4874
vn -0.4889 -0.7569 0.4337
vn -0.4889 -0.4337 0.7569
vn -0.6952 -0.0000 0.7188
vn -0.8559 -0.2591 0.4475
vn -0.8559 0.2590 0.4475
vn -0.8555 -0.0000 0.5178
vn -0.4889 0.4337 0.7569
vn -0.4889 0.7569 0.4337
vn -0.8555 0.5179 -0.0000
vn -0.6952 0.7188 -0.0000
vn -0.8559 0.4475 0.2591
vn -0.8559 0.4475 -0.2590
vn -0.9594 0.1416 0.2438
vn -0.9612 0.2758 -0.0000
vn -0.9594 0.2438 0.1415
vn -0.9612 -0.0000 0.2758
vn -1.0000 -0.0000 -0.0000
vn -0.9594 0.2438 -0.1415
vn -0.9594 -0.1416 0.2438
vn -0.9594 0.1416 -0.2438
vn -0.8559 0.2591 -0.4475
vn -0.9594 -0.2438 0.1416
vn -0.6935 0.3625 -0.6226
vn -0.4889 0.7569 -0.4337
vn -0.8555 -0.0000 -0.5178
vn -0.4889 0.4337 -0.7569
vn -0.9612 -0.0000 -0.2758
vn -0.9594 -0.1416 -0.2438
vn -0.9612 -0.2758 -0.0000
vn -0.6952 -0.0000 -0.7188
vn -0.8559 -0.2591 -0.4475
vn -0.9594 -0.2438 -0.1416
vn -0.8554 -0.5179 -0.0000
vn -0.8559 -0.4475 0.2591
vn -0.8559 -0.4475 -0.2591
vn -0.6952 -0.7188 -0.0000
vn -0.6935 -0.6226 0.3625
vn -0.6935 -0.6226 -0.3625
vn -0.6935 -0.3625 -0.6226
vn -0.4889 -0.7569 -0.4337
vn -0.4889 -0.4337 -0.7569
vn -0.4877 -0.8730 -0.0000
vn -0.6951 -0.7189 -0.0000
vn -0.4888 -0.7570 0.4336
vn -0.4888 -0.7570 -0.4336
vn -0.2519 -0.9678 -0.0000
vn -0.2531 -0.8386 0.4825
vn -0.4888 -0.4337 0.7569
vn -0.2531 -0.8385 -0.4825
vn -0.0000 -1.0000 -0.0000
vn -0.0000 -0.8678 -0.4968
vn -0.2531 -0.4826 -0.8385
vn -0.0000 -0.4971 -0.8677
vn -0.0000 -0.8677 -0.4971
vn 0.2531 -0.4826 -0.8385
vn 0.2531 -0.8385 -0.4825
vn 0.2531 -0.4826 0.8385
vn -0.0000 -0.4971 0.8677
vn -0.2531 -0.4826 0.8385
vn -0.0000 -0.8678 0.4968
vn 0.2531 -0.8385 0.4825
vn 0.2519 -0.9678 -0.0000
vn 0.4888 -0.7570 0.4336
vn 0.4888 -0.4337 0.7569
vn 0.4888 -0.7570 -0.4336
vn 0.4888 -0.4337 -0.7569
vn 0.4877 -0.8730 -0.0000
vn 0.6623 -0.6467 0.3784
vn 0.6623 -0.6467 -0.3784
vn 0.6624 -0.7492 -0.0000
vn 0.3637 -0.4664 0.8063
vn 0.3637 -0.8064 0.4664
vn 0.6062 -0.7953 -0.0000
vn 0.2044 -0.4874 0.8489
vn 0.2045 -0.8488 0.4875
vn 0.3632 -0.9317 -0.0000
vn 0.2052 -0.9787 -0.0000
vn 0.1027 -0.8613 0.4977
vn 0.1026 -0.9947 -0.0000
vn 0.0394 -0.4966 0.8671
vn 0.0394 -0.8671 0.4966
vn 0.0393 -0.9992 -0.0000
vn 0.7395 -0.3382 0.5821
vn 0.7394 -0.5821 0.3382
vn 0.1261 -0.8589 -0.4964
vn 0.7394 -0.3382 -0.5821
vn 0.7394 -0.5821 -0.3383
vn 0.1261 -0.4965 -0.8588
vn 0.1258 -0.9921 -0.0000
vn 0.7417 -0.6707 -0.0000
vn 0.0394 -0.8671 -0.4966
vn 0.0394 -0.4966 -0.8671
vn 0.1027 -0.8612 -0.4978
vn 0.1027 -0.4978 -0.8612
vn 0.2044 -0.8489 -0.4875
vn 0.2044 -0.4874 -0.8489
vn 0.3637 -0.8064 -0.4664
vn 0.3636 -0.4665 -0.8063
vn 0.6087 -0.6879 -0.3953
vn -0.4877 -0.0000 -0.8730
vn -0.6951 -0.0000 -0.7189
vn -0.4889 0.4335 -0.7570
vn -0.4888 -0.4336 -0.7570
vn -0.2517 -0.0000 -0.9678
vn -0.2531 -0.4825 -0.8385
vn -0.4889 -0.7569 -0.4338
vn -0.2531 -0.8384 -0.4826
vn -0.0000 -0.0000 -1.0000
vn -0.0000 -0.4969 -0.8678
vn -0.2531 0.4825 -0.8386
vn 0.2531 -0.4825 -0.8385
vn 0.2531 -0.8385 -0.4826
vn -0.0000 0.4969 -0.8678
vn 0.2531 0.4825 -0.8385
vn 0.2517 -0.0000 -0.9678
vn 0.4889 0.4335 -0.7570
vn 0.4888 -0.4336 -0.7570
vn 0.4877 -0.0000 -0.8730
vn 0.6623 0.3784 -0.6467
vn 0.6623 -0.3784 -0.6467
vn 0.1260 0.4965 -0.8588
vn 0.7394 0.3382 -0.5821
vn 0.7394 0.5821 -0.3382
vn 0.1259 -0.0000 -0.9920
vn 0.7394 0.3383 -0.5821
vn 0.7417 -0.0000 -0.6707
vn 0.7395 -0.3382 -0.5821
vn 0.0393 -0.0000 -0.9992
vn 0.0394 0.4965 -0.8671
vn 0.1261 -0.4964 -0.8589
vn 0.1260 -0.8589 -0.4964
vn 0.1026 -0.0000 -0.9947
vn 0.1027 -0.4977 -0.8613
vn 0.1027 0.4977 -0.8613
vn 0.2049 -0.0000 -0.9788
vn 0.2044 0.4873 -0.8490
vn 0.2044 -0.4872 -0.8490
vn 0.3632 -0.0000 -0.9317
vn 0.3637 0.8063 -0.4665
vn 0.3636 0.4664 -0.8064
vn 0.3637 -0.4663 -0.8064
vn 0.6062 -0.0000 -0.7953
vn 0.6088 -0.3953 -0.6879
vn 0.6624 -0.0000 -0.7492
vn 0.6087 0.3953 -0.6879
vt 1.240660 1.543940
vt 1.282200 1.567920
vt 1.186530 1.663580
vt 1.162550 1.622050
vt 0.871038 1.543940
vt 0.925168 1.663580
vt 0.829502 1.567920
vt 0.949149 1.622050
vt 1.055850 1.567760
vt 1.055850 1.650640
vt 0.829502 1.306550
vt 0.925168 1.210890
vt 0.871038 1.330540
vt 0.949149 1.252420
vt 1.240660 1.330540
vt 1.186530 1.210890
vt 1.282200 1.306550
vt 1.162550 1.252420
vt 1.055850 1.306710
vt 1.055850 1.223830
vt 1.168890 1.371980
vt 0.942814 1.371980
vt 0.842447 1.437240
vt 0.990589 1.324200
vt 0.925328 1.437240
vt 0.942814 1.502500
vt 0.990589 1.550270
vt 1.054780 1.435390
vt 1.053720 1.437240
vt 1.054000 1.436170
vt 1.054780 1.439080
vt 1.054000 1.438300
vt 1.055850 1.439370
vt 1.057980 1.437240
vt 1.056910 1.439080
vt 1.057690 1.438300
vt 1.056910 1.435390
vt 1.057690 1.436170
vt 1.055850 1.435110
vt 1.121110 1.324200
vt 1.269250 1.437240
vt 1.186370 1.437240
vt 1.168880 1.502500
vt 1.121110 1.550270
vt 1.923540 1.567920
vt 1.923540 1.663580
vt 1.850750 1.582990
vt 1.850750 1.689690
vt 1.772640 1.588130
vt 1.772640 1.698600
vt 1.694530 1.689690
vt 1.694530 1.582990
vt 1.772640 1.437240
vt 1.850750 1.437240
vt 1.923540 1.437240
vt 1.986040 1.543940
vt 1.986040 1.437240
vt 1.923540 1.306550
vt 1.986040 1.330540
vt 1.850750 1.291480
vt 1.923540 1.210890
vt 1.850750 1.184780
vt 1.772640 1.286340
vt 1.772640 1.175870
vt 1.694530 1.184780
vt 1.694530 1.291480
vt 1.621740 1.210890
vt 1.694530 1.437240
vt 1.621740 1.306550
vt 1.621740 1.567920
vt 1.621740 1.437240
vt 1.559240 1.330540
vt 1.559240 1.437240
vt 1.621740 1.663580
vt 1.559240 1.543940
vt 1.480490 1.550270
vt 1.383600 1.508960
vt 1.480490 1.502500
vt 1.383600 1.478650
vt 1.480490 1.437240
vt 1.242970 1.473840
vt 1.242970 1.458370
vt 1.383600 1.437240
vt 1.030870 1.450440
vt 0.042774 1.440280
vt 0.037261 1.439080
vt 0.042774 1.438990
vt 0.037261 1.438300
vt 0.042774 1.437240
vt 0.037261 1.437240
vt 0.921985 1.443820
vt 0.921985 1.441040
vt 0.921985 1.437240
vt 1.030870 1.444860
vt 1.030870 1.437240
vt 1.242970 1.437240
vt 0.921985 1.433430
vt 1.030870 1.429610
vt 1.242970 1.416100
vt 1.383600 1.395830
vt 0.042774 1.435480
vt 0.921985 1.430650
vt 0.037261 1.436170
vt 0.042774 1.434190
vt 0.037261 1.435390
vt 1.030870 1.424030
vt 1.242970 1.400630
vt 1.480490 1.371980
vt 0.188159 1.306550
vt 0.188159 1.437240
vt 0.125655 1.330540
vt 0.125655 1.437240
vt 0.260947 1.437240
vt 0.188159 1.567920
vt 0.260947 1.291480
vt 0.125655 1.543940
vt 0.260947 1.582990
vt 0.339058 1.437240
vt 0.339058 1.588140
vt 0.417168 1.582990
vt 0.339058 1.286340
vt 0.260947 1.184780
vt 0.417168 1.437240
vt 0.489956 1.567920
vt 0.489956 1.437240
vt 0.552460 1.543940
vt 0.417168 1.291480
vt 0.489956 1.306550
vt 0.552460 1.437240
vt 0.552460 1.330540
vt 0.339058 1.175870
vt 0.417168 1.184780
vt 0.728101 1.395830
vt 0.631210 1.437240
vt 0.631210 1.371980
vt 0.728101 1.437240
vt 0.728101 1.478650
vt 0.631210 1.502500
vt 0.868732 1.458370
vt 0.868732 1.416100
vt 0.868732 1.437240
vt 1.080830 1.444860
vt 1.080830 1.429610
vt 1.080830 1.437240
vt 1.189710 1.441040
vt 1.189710 1.433430
vt 0.868732 1.400630
vt 1.080830 1.424030
vt 1.189710 1.437240
vt 2.068930 1.435480
vt 2.068930 1.434190
vt 2.068930 1.437240
vt 2.074440 1.436170
vt 2.068930 1.438990
vt 2.074440 1.437240
vt 2.074440 1.438300
vt 2.074440 1.439080
vt 2.068930 1.440280
vt 1.189710 1.443820
vt 1.080830 1.450440
vt 0.868732 1.473840
vt 1.186530 1.361790
vt 1.186530 1.512690
vt 1.206750 1.437240
vt 1.055850 1.588140
vt 1.131300 1.567920
vt 0.980401 1.567920
vt 1.123500 1.476290
vt 1.055850 1.515350
vt 1.094900 1.504880
vt 1.133960 1.437240
vt 1.055850 1.437240
vt 1.016790 1.504880
vt 1.123500 1.398180
vt 0.988204 1.476290
vt 0.925168 1.512690
vt 1.094900 1.369590
vt 0.904952 1.437240
vt 0.977739 1.437240
vt 0.988204 1.398180
vt 1.055850 1.359130
vt 0.925168 1.361790
vt 1.016790 1.369590
vt 1.055850 1.286340
vt 1.131300 1.306550
vt 0.980401 1.306550
vt 0.829502 1.306560
vt 0.188159 1.663580
vt 0.339058 1.588130
vt 0.417168 1.689690
vt 0.339058 1.698600
vt 0.260947 1.689690
vt 0.489956 1.663580
vt 0.489956 1.210890
vt 0.728101 1.508960
vt 0.631210 1.550270
vt 2.074440 1.435390
vt 1.189710 1.430650
vt 0.728101 1.365510
vt 0.631210 1.324200
vt 1.923540 1.306560
vt 1.772640 1.588140
s 1
f 4/1/1 1/2/2 3/3/3
f 7/4/4 4/1/1 3/3/3
f 11/5/5 6/6/6 9/7/7
f 6/6/6 11/5/5 10/8/8
f 10/8/8 12/9/9 8/10/10
f 7/4/4 8/10/10 12/9/9
f 13/11/11 16/12/12 15/13/13
f 15/13/13 16/12/12 17/14/14
f 5/15/15 18/16/16 2/17/17
f 18/16/16 5/15/15 19/18/18
f 19/18/18 21/19/19 20/20/20
f 21/19/19 17/14/14 20/20/20
f 19/18/18 5/15/15 22/21/21
f 17/14/14 23/22/22 15/13/13
f 14/23/23 15/13/13 23/22/22
f 23/22/22 17/14/14 24/24/24
f 17/14/14 21/19/19 24/24/24
f 23/22/22 25/25/25 14/23/23
f 26/26/26 14/23/23 25/25/25
f 14/23/23 26/26/26 11/5/5
f 27/27/27 11/5/5 26/26/26
f 11/5/5 27/27/27 10/8/8
f 12/9/9 10/8/8 27/27/27
f 30/28/28 29/29/29 28/30/30
f 29/29/29 32/31/31 31/32/32
f 29/29/29 33/33/33 32/31/31
f 33/33/33 29/29/29 30/28/28
f 33/33/33 36/34/34 34/35/35
f 34/35/35 36/34/34 35/36/36
f 36/34/34 33/33/33 37/37/37
f 33/33/33 30/28/28 37/37/37
f 36/34/34 37/37/37 38/38/38
f 37/37/37 30/28/28 39/39/39
f 21/19/19 19/18/18 40/40/40
f 22/21/21 40/40/40 19/18/18
f 22/21/21 42/41/41 41/42/42
f 42/41/41 22/21/21 5/15/15
f 4/1/1 41/42/42 42/41/41
f 41/42/42 4/1/1 43/43/43
f 4/1/1 44/44/44 43/43/43
f 44/44/44 4/1/1 7/4/4
f 12/9/9 44/44/44 7/4/4
f 48/45/45 45/46/46 49/47/47
f 49/47/47 45/46/46 46/48/48
f 49/47/47 46/48/48 50/49/49
f 50/49/49 46/48/48 51/50/50
f 52/51/51 50/49/49 51/50/50
f 50/49/49 52/51/51 53/52/52
f 54/53/53 49/47/47 50/49/49
f 53/52/52 54/53/53 50/49/49
f 55/54/54 48/45/45 49/47/47
f 55/54/54 49/47/47 54/53/53
f 56/55/55 48/45/45 55/54/54
f 48/45/45 56/55/55 47/56/56
f 47/56/56 56/55/55 57/57/57
f 55/54/54 58/58/58 56/55/55
f 56/55/55 59/59/59 57/57/57
f 59/59/59 56/55/55 58/58/58
f 58/58/58 55/54/54 60/60/60
f 54/53/53 60/60/60 55/54/54
f 60/60/60 61/61/61 58/58/58
f 61/61/61 60/60/60 62/62/62
f 64/63/63 62/62/62 60/60/60
f 62/62/62 64/63/63 63/64/64
f 60/60/60 54/53/53 64/63/63
f 63/64/64 64/63/63 65/65/65
f 65/65/65 64/63/63 66/66/66
f 64/63/63 54/53/53 66/66/66
f 65/65/65 66/66/66 67/67/67
f 66/66/66 54/53/53 68/68/68
f 54/53/53 53/52/52 68/68/68
f 67/67/67 66/66/66 69/69/69
f 66/66/66 68/68/68 69/69/69
f 70/70/70 68/68/68 53/52/52
f 69/69/69 68/68/68 71/71/71
f 68/68/68 70/70/70 71/71/71
f 69/69/69 71/71/71 72/72/72
f 72/72/72 71/71/71 73/73/73
f 53/52/52 74/74/74 70/70/70
f 74/74/74 53/52/52 52/51/51
f 75/75/75 71/71/71 70/70/70
f 71/71/71 75/75/75 73/73/73
f 77/76/76 79/77/77 78/78/78
f 80/79/79 78/78/78 79/77/77
f 78/78/78 80/79/79 76/80/80
f 79/77/77 81/81/81 80/79/79
f 82/82/82 80/79/79 81/81/81
f 83/83/83 76/80/80 80/79/79
f 80/79/79 82/82/82 83/83/83
f 81/81/81 84/84/84 82/82/82
f 86/85/85 87/86/86 90/87/87
f 90/87/88 88/88/89 91/89/90
f 89/90/91 91/89/90 88/88/89
f 85/91/92 86/85/85 92/92/93
f 91/89/90 93/93/94 90/87/88
f 92/92/93 90/87/88 93/93/94
f 92/92/93 94/94/95 85/91/92
f 94/94/95 92/92/93 95/95/96
f 93/93/94 95/95/96 92/92/93
f 82/82/82 94/94/95 96/96/97
f 95/95/96 96/96/97 94/94/95
f 96/96/97 83/83/83 82/82/82
f 97/97/98 95/95/96 93/93/94
f 98/98/99 96/96/97 95/95/96
f 95/95/96 97/97/98 98/98/99
f 96/96/97 98/98/99 99/99/100
f 99/99/100 83/83/83 96/96/97
f 83/83/83 99/99/100 100/100/101
f 100/100/101 76/80/80 83/83/83
f 93/93/94 101/101/102 97/97/98
f 101/101/102 93/93/94 91/89/90
f 102/102/103 98/98/99 97/97/98
f 91/89/90 103/103/104 101/101/102
f 103/103/104 91/89/90 89/90/91
f 97/97/98 104/104/105 102/102/103
f 101/101/106 105/105/107 104/104/108
f 98/98/99 102/102/103 106/106/109
f 106/106/109 99/99/100 98/98/99
f 99/99/100 106/106/109 107/107/110
f 107/107/110 100/100/101 99/99/100
f 76/80/80 100/100/101 108/108/111
f 109/109/112 110/110/113 111/111/114
f 111/111/114 110/110/113 112/112/115
f 109/109/112 113/113/116 110/110/113
f 113/113/116 114/114/117 110/110/113
f 115/115/118 113/113/116 109/109/112
f 110/110/113 116/116/119 112/112/115
f 116/116/119 110/110/113 114/114/117
f 114/114/117 113/113/116 117/117/120
f 118/118/121 117/117/120 113/113/116
f 115/115/118 118/118/121 113/113/116
f 117/117/120 118/118/121 119/119/122
f 118/118/121 120/120/123 119/119/122
f 121/121/124 118/118/121 115/115/118
f 109/109/112 122/122/125 115/115/118
f 125/123/126 123/124/127 120/120/123
f 125/123/126 120/120/123 118/118/121
f 125/123/126 126/125/128 123/124/127
f 126/125/128 124/126/129 123/124/127
f 118/118/121 127/127/130 125/123/126
f 127/127/130 118/118/121 121/121/124
f 125/123/126 128/128/131 126/125/128
f 128/128/131 125/123/126 127/127/130
f 126/125/128 129/129/132 124/126/129
f 130/130/133 126/125/128 128/128/131
f 126/125/128 130/130/133 129/129/132
f 131/131/134 115/115/118 122/122/125
f 131/131/134 132/132/135 127/127/130
f 132/132/135 128/128/131 127/127/130
f 135/133/136 134/134/137 133/135/138
f 134/134/137 135/133/136 137/136/139
f 134/134/137 138/137/140 136/138/141
f 138/137/140 134/134/137 137/136/139
f 137/136/139 139/139/142 138/137/140
f 140/140/143 137/136/139 135/133/136
f 139/139/142 137/136/139 141/141/144
f 137/136/139 140/140/143 141/141/144
f 141/141/144 143/142/145 139/139/142
f 144/143/146 141/141/144 140/140/143
f 143/142/145 141/141/144 146/144/147
f 141/141/144 144/143/146 146/144/147
f 146/144/147 147/145/148 143/142/145
f 148/146/149 146/144/147 144/143/146
f 144/143/146 145/147/150 149/148/151
f 149/148/151 148/146/149 144/143/146
f 147/145/148 146/144/147 150/149/152
f 146/144/147 148/146/149 150/149/152
f 152/150/153 150/149/152 148/146/149
f 152/150/153 148/146/149 151/151/154
f 150/149/152 152/150/153 153/152/155
f 154/153/156 153/152/155 152/150/153
f 155/154/157 150/149/152 153/152/155
f 150/149/152 155/154/157 147/145/148
f 153/152/155 154/153/156 156/155/158
f 157/156/86 153/152/155 156/155/158
f 153/152/155 157/156/86 155/154/157
f 158/157/159 159/158/87 157/156/160
f 159/158/88 160/159/93 155/154/161
f 143/142/145 147/145/148 161/160/162
f 161/160/162 142/161/163 143/142/145
f 163/15/114 165/16/164 162/17/165
f 164/41/166 167/162/167 163/15/114
f 169/163/168 164/41/166 168/1/119
f 164/41/166 169/163/168 170/164/169
f 167/162/167 164/41/166 170/164/169
f 168/1/119 171/4/56 169/163/168
f 166/2/170 172/3/171 168/1/119
f 172/3/171 171/4/56 168/1/119
f 176/165/172 171/4/56 173/10/173
f 175/8/59 176/165/172 173/10/173
f 171/4/56 176/165/172 177/166/174
f 171/4/56 177/166/174 169/163/168
f 176/165/172 175/8/59 178/167/175
f 179/168/176 169/163/168 177/166/174
f 179/168/176 170/164/169 169/163/168
f 180/169/177 177/166/174 176/165/172
f 178/167/175 180/169/177 176/165/172
f 177/166/174 181/170/178 179/168/176
f 177/166/174 180/169/177 181/170/178
f 170/164/169 179/168/176 182/171/179
f 181/170/178 183/172/180 179/168/176
f 179/168/176 183/172/180 182/171/179
f 180/169/177 183/172/180 181/170/178
f 180/169/177 178/167/175 184/173/181
f 184/173/181 183/172/180 180/169/177
f 185/174/182 170/164/169 182/171/179
f 182/171/179 183/172/180 185/174/182
f 170/164/169 185/174/182 167/162/167
f 178/167/175 186/175/183 184/173/181
f 186/175/183 183/172/180 184/173/181
f 186/175/183 178/167/175 187/176/184
f 175/8/59 187/176/184 178/167/175
f 167/162/167 185/174/182 188/177/185
f 185/174/182 183/172/180 188/177/185
f 187/176/184 175/8/59 189/5/186
f 174/6/187 189/5/186 175/8/59
f 186/175/183 187/176/184 190/178/188
f 189/5/186 174/6/187 191/7/189
f 192/179/190 183/172/180 186/175/183
f 190/178/188 192/179/190 186/175/183
f 193/180/191 183/172/180 192/179/190
f 190/178/188 193/180/191 192/179/190
f 188/177/185 183/172/180 194/181/192
f 195/23/193 190/178/188 187/176/184
f 189/5/186 195/23/193 187/176/184
f 193/180/191 190/178/188 196/182/194
f 195/23/193 196/182/194 190/178/188
f 197/183/195 183/172/180 193/180/191
f 194/181/192 183/172/180 197/183/195
f 196/182/194 197/183/195 193/180/191
f 198/184/196 188/177/185 194/181/192
f 197/183/195 198/184/196 194/181/192
f 188/177/185 198/184/196 199/185/197
f 199/185/197 167/162/167 188/177/185
f 198/184/196 197/183/195 200/186/198
f 197/183/195 196/182/194 200/186/198
f 201/20/199 199/185/197 198/184/196
f 200/186/198 201/20/199 198/184/196
f 202/18/200 167/162/167 199/185/197
f 199/185/197 201/20/199 202/18/200
f 167/162/167 202/18/200 163/15/114
f 165/16/164 163/15/114 202/18/200
f 196/182/194 203/14/201 200/186/198
f 201/20/199 200/186/198 203/14/201
f 203/14/201 196/182/194 204/13/202
f 196/182/194 195/23/193 204/13/202
f 204/13/202 205/12/203 203/14/201
f 205/12/203 204/13/202 206/187/204
f 214/110/205 212/116/200 211/112/206
f 212/116/200 214/110/205 208/114/207
f 213/111/201 214/110/205 211/112/206
f 215/109/208 214/110/205 213/111/201
f 216/113/209 208/114/207 214/110/205
f 215/109/208 216/113/209 214/110/205
f 208/114/207 216/113/209 217/117/210
f 217/117/210 207/188/211 208/114/207
f 219/115/212 216/113/209 215/109/208
f 219/115/212 220/118/213 216/113/209
f 220/118/213 217/117/210 216/113/209
f 221/121/214 220/118/213 219/115/212
f 218/122/215 222/131/216 221/121/217
f 223/132/218 221/121/217 222/131/216
f 224/127/219 220/118/213 221/121/214
f 228/189/134 226/190/220 210/191/221
f 209/192/222 228/189/134 210/191/221
f 217/117/210 220/118/213 228/189/223
f 220/118/213 229/120/224 228/189/223
f 230/123/225 229/120/224 220/118/213
f 229/120/224 231/124/226 227/193/227
f 230/123/225 231/124/226 229/120/224
f 220/118/213 224/127/219 230/123/225
f 233/128/228 230/123/225 224/127/219
f 224/127/219 225/194/229 233/128/228
f 230/123/225 234/125/230 231/124/226
f 230/123/225 233/128/228 234/125/230
f 234/125/230 232/126/231 231/124/226
f 235/130/232 234/125/230 233/128/228
f 234/125/230 235/130/232 236/129/233
f 234/125/230 236/129/233 232/126/231
f 240/138/24 241/195/234 239/196/22
f 241/195/234 240/138/24 242/137/235
f 237/134/236 242/137/235 240/138/24
f 242/137/235 243/161/237 241/195/234
f 243/161/237 242/137/235 245/139/238
f 245/139/238 244/160/146 243/161/237
f 246/136/239 245/139/238 242/137/235
f 242/137/235 237/134/236 246/136/239
f 249/141/240 248/142/241 245/139/238
f 245/139/238 246/136/239 249/141/240
f 248/142/241 249/141/240 250/144/242
f 247/159/243 248/142/241 251/145/244
f 250/144/242 251/145/244 248/142/241
f 252/154/154 247/159/243 251/145/244
f 251/145/244 250/144/242 253/149/245
f 253/149/245 252/154/154 251/145/244
f 252/154/154 255/157/246 254/158/153
f 255/157/246 252/154/154 256/156/247
f 260/150/248 258/197/249 257/153/250
f 258/197/249 260/150/248 259/151/251
f 256/156/247 262/152/252 261/155/253
f 262/152/252 257/153/250 261/155/253
f 262/152/252 256/156/247 252/154/154
f 257/153/250 262/152/252 260/150/248
f 252/154/154 253/149/245 262/152/252
f 253/149/245 260/150/248 262/152/252
f 260/150/248 253/149/245 264/146/254
f 263/198/255 260/150/248 264/146/254
f 250/144/242 264/146/254 253/149/245
f 264/146/254 250/144/242 265/143/256
f 264/146/254 265/143/256 263/198/255
f 249/141/240 265/143/256 250/144/242
f 263/198/255 265/143/256 266/148/257
f 265/143/256 249/141/240 267/140/258
f 265/143/256 267/140/258 266/148/257
f 246/136/239 267/140/258 249/141/240
f 266/148/257 267/140/258 268/147/259
f 267/140/258 269/133/260 268/147/259
f 267/140/258 246/136/239 269/133/260
f 237/134/236 269/133/260 246/136/239
f 268/147/259 269/133/260 270/199/261
f 269/133/260 237/134/236 271/135/262
f 271/135/262 270/199/261 269/133/260
f 270/199/261 271/135/262 238/200/21
f 277/55/263 275/59/202 274/57/264
f 272/56/186 277/55/263 274/57/264
f 273/45/265 277/55/263 272/56/186
f 275/59/202 277/55/263 278/201/266
f 273/45/265 279/54/267 277/55/263
f 279/54/267 278/201/266 277/55/263
f 280/60/268 276/61/269 278/201/266
f 278/201/266 279/54/267 280/60/268
f 276/61/269 280/60/268 281/62/270
f 280/60/268 282/64/217 281/62/270
f 284/53/271 280/60/268 279/54/267
f 280/60/268 284/53/271 283/63/272
f 285/47/273 279/54/267 273/45/265
f 285/47/273 284/53/271 279/54/267
f 284/53/271 286/66/274 283/63/272
f 282/64/217 286/66/274 287/65/275
f 288/202/276 284/53/271 285/47/273
f 289/52/277 284/53/271 288/202/276
f 284/53/271 289/52/277 290/68/278
f 290/68/278 286/66/274 284/53/271
f 291/70/279 290/68/278 289/52/277
f 290/68/278 292/69/280 286/66/274
f 292/69/280 287/65/275 286/66/274
f 290/68/278 291/70/279 293/71/281
f 290/68/278 293/71/281 292/69/280
f 294/75/282 293/71/281 291/70/279
f 293/71/281 295/72/283 292/69/280
f 302/87/284 297/91/98 299/85/106
f 303/88/285 299/85/106 301/86/286
f 305/89/287 303/88/288 304/90/289
f 303/88/288 305/89/287 302/87/108
f 306/103/290 305/89/287 304/90/289
f 307/93/291 302/87/108 305/89/287
f 302/87/108 307/93/291 300/92/292
f 305/89/287 306/103/290 308/101/293
f 308/101/293 307/93/291 305/89/287
f 307/93/291 308/101/293 310/97/255
f 309/104/294 310/97/255 308/101/293
f 310/97/255 311/95/295 307/93/291
f 311/95/295 300/92/292 307/93/291
f 311/95/295 310/97/255 312/98/296
f 300/92/292 311/95/295 313/94/297
f 314/96/298 313/94/297 311/95/295
f 312/98/296 314/96/298 311/95/295
f 313/94/297 314/96/298 315/82/299
f 314/96/298 312/98/296 316/99/300
f 317/83/301 315/82/299 314/96/298
f 316/99/300 317/83/301 314/96/298
f 298/77/302 315/82/299 318/79/303
f 315/82/299 317/83/301 318/79/303
f 317/83/301 316/99/300 319/100/304
f 319/100/304 320/80/305 317/83/301
f 320/80/305 319/100/304 296/108/306
f 320/80/305 318/79/303 317/83/301
f 293/71/281 321/73/307 295/72/283
f 293/71/281 294/75/282 321/73/307
f 318/79/303 320/80/305 322/78/308
f 322/78/308 298/77/302 318/79/303
f 298/77/302 322/78/308 323/76/111
