# Blender 5.0.0
# www.blender.org
o voidpistols_void
v 0.182191 -0.271653 0.115742 0.000000 0.000000 0.000000
v 0.182191 -0.271653 -0.093350 0.000000 0.000000 0.000000
v 0.182191 -0.195121 -0.169882 0.000000 0.000000 0.000000
v 0.232195 -0.238425 -0.074165 0.000000 0.000000 0.000000
v 0.232195 -0.238425 0.096557 0.000000 0.000000 0.000000
v 0.232195 -0.261297 0.011196 0.000000 0.000000 0.000000
v 0.182191 -0.195121 0.192275 0.000000 0.000000 0.000000
v 0.232195 -0.175936 0.159047 0.000000 0.000000 0.000000
v 0.182191 0.013970 0.192275 0.000000 0.000000 0.000000
v 0.232195 -0.090575 0.181919 0.000000 0.000000 0.000000
v 0.232195 -0.005214 0.159047 0.000000 0.000000 0.000000
v 0.295194 -0.090575 0.115614 0.000000 0.000000 0.000000
v 0.295194 -0.142784 0.101624 0.000000 0.000000 0.000000
v 0.182191 0.090503 0.115742 0.000000 0.000000 0.000000
v 0.295194 -0.181003 0.063405 0.000000 0.000000 0.000000
v 0.295194 -0.194993 0.011196 0.000000 0.000000 0.000000
v 0.295194 -0.181003 -0.041013 0.000000 0.000000 0.000000
v 0.295194 -0.142784 -0.079232 0.000000 0.000000 0.000000
v 0.232195 -0.175936 -0.136654 0.000000 0.000000 0.000000
v 0.295194 -0.090575 -0.093222 0.000000 0.000000 0.000000
v 0.232195 -0.090575 -0.159526 0.000000 0.000000 0.000000
v 0.232195 -0.005214 -0.136654 0.000000 0.000000 0.000000
v 0.182191 0.013971 -0.169882 0.000000 0.000000 0.000000
v 0.295194 -0.038366 -0.079232 0.000000 0.000000 0.000000
v 0.232195 0.057275 -0.074165 0.000000 0.000000 0.000000
v 0.182191 0.090503 -0.093350 0.000000 0.000000 0.000000
v 0.232195 0.080147 0.011196 0.000000 0.000000 0.000000
v 0.232195 0.057275 0.096557 0.000000 0.000000 0.000000
v 0.295194 -0.038366 0.101624 0.000000 0.000000 0.000000
v 0.295194 -0.000147 0.063405 0.000000 0.000000 0.000000
v 0.295194 0.013843 0.011196 0.000000 0.000000 0.000000
v 0.295194 -0.000147 -0.041013 0.000000 0.000000 0.000000
v 0.850221 -0.089723 0.009720 0.000000 0.000000 0.000000
v 0.850221 -0.089099 0.010344 0.000000 0.000000 0.000000
v 0.850221 -0.090575 0.009492 0.000000 0.000000 0.000000
v 0.850221 -0.088871 0.011196 0.000000 0.000000 0.000000
v 0.850221 -0.089099 0.012048 0.000000 0.000000 0.000000
v 0.850221 -0.090575 0.012900 0.000000 0.000000 0.000000
v 0.850221 -0.089723 0.012672 0.000000 0.000000 0.000000
v 0.850221 -0.092051 0.010344 0.000000 0.000000 0.000000
v 0.850221 -0.091427 0.009720 0.000000 0.000000 0.000000
v 0.850221 -0.092279 0.011196 0.000000 0.000000 0.000000
v 0.850221 -0.092051 0.012048 0.000000 0.000000 0.000000
v 0.850221 -0.091427 0.012672 0.000000 0.000000 0.000000
v -0.109250 0.057275 0.096557 0.000000 0.000000 0.000000
v -0.109250 0.080147 0.011196 0.000000 0.000000 0.000000
v -0.109250 0.057275 -0.074165 0.000000 0.000000 0.000000
v -0.059246 0.118516 0.011196 0.000000 0.000000 0.000000
v -0.059246 0.090503 -0.093350 0.000000 0.000000 0.000000
v -0.059246 0.090503 0.115742 0.000000 0.000000 0.000000
v -0.001016 0.142636 0.011196 0.000000 0.000000 0.000000
v -0.001016 0.026030 -0.190770 0.000000 0.000000 0.000000
v -0.001016 0.111391 -0.105409 0.000000 0.000000 0.000000
v 0.061472 0.118516 -0.109523 0.000000 0.000000 0.000000
v 0.061472 0.150863 0.011196 0.000000 0.000000 0.000000
v 0.182191 0.090503 0.115742 0.000000 0.000000 0.000000
v 0.295194 -0.038366 -0.079232 0.000000 0.000000 0.000000
v 0.232195 0.057275 -0.074165 0.000000 0.000000 0.000000
v 0.182191 0.090503 -0.093350 0.000000 0.000000 0.000000
v 0.123961 0.111391 -0.105409 0.000000 0.000000 0.000000
v 0.123961 0.142636 0.011196 0.000000 0.000000 0.000000
v 0.182191 0.118516 0.011196 0.000000 0.000000 0.000000
v 0.232195 0.080147 0.011196 0.000000 0.000000 0.000000
v 0.232195 0.057275 0.096557 0.000000 0.000000 0.000000
v 0.123961 0.111391 0.127801 0.000000 0.000000 0.000000
v 0.061472 0.118516 0.131916 0.000000 0.000000 0.000000
v 0.061472 0.030144 0.220288 0.000000 0.000000 0.000000
v -0.001016 0.111391 0.127802 0.000000 0.000000 0.000000
v -0.001016 0.026030 0.213163 0.000000 0.000000 0.000000
v 0.295194 -0.038366 0.101624 0.000000 0.000000 0.000000
v 0.295194 -0.000147 0.063405 0.000000 0.000000 0.000000
v 0.295194 0.013843 0.011196 0.000000 0.000000 0.000000
v 0.372707 -0.033197 0.044324 0.000000 0.000000 0.000000
v 0.372707 -0.057448 0.068575 0.000000 0.000000 0.000000
v 0.445655 -0.061289 0.028104 0.000000 0.000000 0.000000
v 0.295194 -0.000147 -0.041013 0.000000 0.000000 0.000000
v 0.372707 -0.024320 0.011196 0.000000 0.000000 0.000000
v 0.372707 -0.033196 -0.021931 0.000000 0.000000 0.000000
v 0.372707 -0.057448 -0.046183 0.000000 0.000000 0.000000
v 0.445655 -0.061289 -0.005712 0.000000 0.000000 0.000000
v 0.445655 -0.073667 -0.018090 0.000000 0.000000 0.000000
v 0.535337 -0.084475 0.000630 0.000000 0.000000 0.000000
v 0.622442 -0.087533 0.005927 0.000000 0.000000 0.000000
v 0.535337 -0.080009 0.005096 0.000000 0.000000 0.000000
v 0.445655 -0.056758 0.011196 0.000000 0.000000 0.000000
v 0.535337 -0.078374 0.011196 0.000000 0.000000 0.000000
v 0.535337 -0.080009 0.017296 0.000000 0.000000 0.000000
v 0.622442 -0.085306 0.008154 0.000000 0.000000 0.000000
v 0.845811 -0.088141 0.009790 0.000000 0.000000 0.000000
v 0.622442 -0.084491 0.011196 0.000000 0.000000 0.000000
v 0.622442 -0.085306 0.014238 0.000000 0.000000 0.000000
v 0.845811 -0.089170 0.008762 0.000000 0.000000 0.000000
v 0.850221 -0.089723 0.009720 0.000000 0.000000 0.000000
v 0.850221 -0.089099 0.010344 0.000000 0.000000 0.000000
v 0.845811 -0.087764 0.011196 0.000000 0.000000 0.000000
v 0.850221 -0.088871 0.011196 0.000000 0.000000 0.000000
v 0.845811 -0.088141 0.012602 0.000000 0.000000 0.000000
v 0.850221 -0.089099 0.012048 0.000000 0.000000 0.000000
v 0.622442 -0.087533 0.016465 0.000000 0.000000 0.000000
v 0.845811 -0.089170 0.013630 0.000000 0.000000 0.000000
v 0.850221 -0.089723 0.012672 0.000000 0.000000 0.000000
v 0.535337 -0.084475 0.021762 0.000000 0.000000 0.000000
v 0.445655 -0.073667 0.040482 0.000000 0.000000 0.000000
v -0.059246 -0.195121 0.192275 0.000000 0.000000 0.000000
v -0.059246 -0.090575 0.220288 0.000000 0.000000 0.000000
v -0.109250 -0.175936 0.159047 0.000000 0.000000 0.000000
v -0.109250 -0.090575 0.181919 0.000000 0.000000 0.000000
v -0.109250 -0.005214 0.159047 0.000000 0.000000 0.000000
v -0.059246 0.013971 0.192275 0.000000 0.000000 0.000000
v -0.001016 -0.090575 0.244408 0.000000 0.000000 0.000000
v -0.001016 -0.207180 0.213163 0.000000 0.000000 0.000000
v -0.001016 -0.292541 0.127801 0.000000 0.000000 0.000000
v -0.059246 0.090503 0.115742 0.000000 0.000000 0.000000
v 0.061472 -0.299666 0.131916 0.000000 0.000000 0.000000
v 0.061472 -0.211294 0.220288 0.000000 0.000000 0.000000
v 0.123961 -0.207180 0.213163 0.000000 0.000000 0.000000
v 0.061472 -0.090575 0.252635 0.000000 0.000000 0.000000
v 0.182191 -0.195121 0.192275 0.000000 0.000000 0.000000
v 0.123961 -0.090575 0.244408 0.000000 0.000000 0.000000
v 0.182191 -0.090575 0.220288 0.000000 0.000000 0.000000
v 0.123961 0.026030 0.213163 0.000000 0.000000 0.000000
v 0.232195 -0.175936 0.159047 0.000000 0.000000 0.000000
v 0.182191 0.013970 0.192275 0.000000 0.000000 0.000000
v 0.232195 -0.090575 0.181919 0.000000 0.000000 0.000000
v 0.232195 -0.005214 0.159047 0.000000 0.000000 0.000000
v 0.295194 -0.090575 0.115614 0.000000 0.000000 0.000000
v 0.295194 -0.142784 0.101624 0.000000 0.000000 0.000000
v 0.182191 0.090503 0.115742 0.000000 0.000000 0.000000
v 0.295194 -0.181003 0.063405 0.000000 0.000000 0.000000
v 0.372707 -0.123703 0.068575 0.000000 0.000000 0.000000
v 0.372707 -0.147954 0.044324 0.000000 0.000000 0.000000
v 0.445655 -0.119861 0.028104 0.000000 0.000000 0.000000
v 0.123961 0.111391 0.127801 0.000000 0.000000 0.000000
v 0.061472 0.118516 0.131916 0.000000 0.000000 0.000000
v 0.061472 0.030144 0.220288 0.000000 0.000000 0.000000
v -0.001016 0.111391 0.127802 0.000000 0.000000 0.000000
v -0.001016 0.026030 0.213163 0.000000 0.000000 0.000000
v 0.295194 -0.038366 0.101624 0.000000 0.000000 0.000000
v 0.372707 -0.033197 0.044324 0.000000 0.000000 0.000000
v 0.372707 -0.057448 0.068575 0.000000 0.000000 0.000000
v 0.372707 -0.090575 0.077451 0.000000 0.000000 0.000000
v 0.445655 -0.061289 0.028104 0.000000 0.000000 0.000000
v 0.535337 -0.080009 0.017296 0.000000 0.000000 0.000000
v 0.622442 -0.085306 0.014238 0.000000 0.000000 0.000000
v 0.845811 -0.088141 0.012602 0.000000 0.000000 0.000000
v 0.850221 -0.089099 0.012048 0.000000 0.000000 0.000000
v 0.850221 -0.090575 0.012900 0.000000 0.000000 0.000000
v 0.622442 -0.087533 0.016465 0.000000 0.000000 0.000000
v 0.845811 -0.089170 0.013630 0.000000 0.000000 0.000000
v 0.850221 -0.089723 0.012672 0.000000 0.000000 0.000000
v 0.845811 -0.090575 0.014007 0.000000 0.000000 0.000000
v 0.622442 -0.090575 0.017280 0.000000 0.000000 0.000000
v 0.535337 -0.084475 0.021762 0.000000 0.000000 0.000000
v 0.535337 -0.090575 0.023397 0.000000 0.000000 0.000000
v 0.445655 -0.073667 0.040482 0.000000 0.000000 0.000000
v 0.445655 -0.090575 0.045013 0.000000 0.000000 0.000000
v 0.445655 -0.107483 0.040482 0.000000 0.000000 0.000000
v 0.535337 -0.096675 0.021762 0.000000 0.000000 0.000000
v 0.622442 -0.093617 0.016465 0.000000 0.000000 0.000000
v 0.535337 -0.101141 0.017296 0.000000 0.000000 0.000000
v 0.845811 -0.091981 0.013630 0.000000 0.000000 0.000000
v 0.622442 -0.095844 0.014238 0.000000 0.000000 0.000000
v 0.845811 -0.093009 0.012602 0.000000 0.000000 0.000000
v 0.850221 -0.092051 0.012048 0.000000 0.000000 0.000000
v 0.850221 -0.091427 0.012672 0.000000 0.000000 0.000000
v -0.059246 -0.195121 0.192275 0.000000 0.000000 0.000000
v -0.109250 -0.175936 0.159047 0.000000 0.000000 0.000000
v -0.109250 -0.238425 0.096557 0.000000 0.000000 0.000000
v -0.109250 -0.090575 0.181919 0.000000 0.000000 0.000000
v -0.147619 -0.150934 0.115743 0.000000 0.000000 0.000000
v -0.109250 -0.005214 0.159047 0.000000 0.000000 0.000000
v -0.147619 -0.090575 0.131916 0.000000 0.000000 0.000000
v -0.147619 -0.030216 0.115743 0.000000 0.000000 0.000000
v -0.059246 0.013971 0.192275 0.000000 0.000000 0.000000
v -0.109250 0.057275 0.096557 0.000000 0.000000 0.000000
v -0.171738 -0.090575 0.073685 0.000000 0.000000 0.000000
v -0.171738 -0.121819 0.065313 0.000000 0.000000 0.000000
v -0.171738 -0.144692 0.042440 0.000000 0.000000 0.000000
v -0.179965 -0.090575 0.011196 0.000000 0.000000 0.000000
v -0.147619 -0.195121 0.071555 0.000000 0.000000 0.000000
v -0.059246 -0.271653 0.115742 0.000000 0.000000 0.000000
v -0.171738 -0.153064 0.011196 0.000000 0.000000 0.000000
v -0.147619 -0.211294 0.011196 0.000000 0.000000 0.000000
v -0.109250 -0.261297 0.011196 0.000000 0.000000 0.000000
v -0.147619 -0.195121 -0.049163 0.000000 0.000000 0.000000
v -0.109250 -0.238425 -0.074165 0.000000 0.000000 0.000000
v -0.059246 -0.271653 -0.093350 0.000000 0.000000 0.000000
v -0.171738 -0.144692 -0.020048 0.000000 0.000000 0.000000
v -0.147619 -0.150934 -0.093350 0.000000 0.000000 0.000000
v -0.059246 -0.195121 -0.169882 0.000000 0.000000 0.000000
v -0.171738 -0.121819 -0.042921 0.000000 0.000000 0.000000
v -0.171738 -0.090575 -0.051293 0.000000 0.000000 0.000000
v -0.147619 -0.090575 -0.109523 0.000000 0.000000 0.000000
v -0.109250 -0.175936 -0.136654 0.000000 0.000000 0.000000
v -0.109250 -0.090575 -0.159526 0.000000 0.000000 0.000000
v -0.147619 -0.030216 -0.093350 0.000000 0.000000 0.000000
v -0.171738 -0.059331 -0.042921 0.000000 0.000000 0.000000
v -0.109250 -0.005214 -0.136654 0.000000 0.000000 0.000000
v -0.147620 0.013971 -0.049163 0.000000 0.000000 0.000000
v -0.171738 -0.036458 -0.020048 0.000000 0.000000 0.000000
v -0.171738 -0.028086 0.011196 0.000000 0.000000 0.000000
v -0.171738 -0.036458 0.042440 0.000000 0.000000 0.000000
v -0.147620 0.030144 0.011196 0.000000 0.000000 0.000000
v -0.171738 -0.059331 0.065313 0.000000 0.000000 0.000000
v -0.147620 0.013971 0.071555 0.000000 0.000000 0.000000
v -0.109250 0.080147 0.011196 0.000000 0.000000 0.000000
v -0.109250 0.057275 -0.074165 0.000000 0.000000 0.000000
v -0.059246 0.013971 -0.169882 0.000000 0.000000 0.000000
v -0.059246 0.090503 -0.093350 0.000000 0.000000 0.000000
v -0.059246 0.090503 0.115742 0.000000 0.000000 0.000000
v -0.059246 -0.195121 0.192275 0.000000 0.000000 0.000000
v -0.109250 -0.238425 0.096557 0.000000 0.000000 0.000000
v -0.001016 -0.207180 0.213163 0.000000 0.000000 0.000000
v -0.001016 -0.292541 0.127801 0.000000 0.000000 0.000000
v -0.059246 -0.271653 0.115742 0.000000 0.000000 0.000000
v -0.109250 -0.261297 0.011196 0.000000 0.000000 0.000000
v -0.059246 -0.299666 0.011196 0.000000 0.000000 0.000000
v -0.001016 -0.323786 0.011196 0.000000 0.000000 0.000000
v -0.109250 -0.238425 -0.074165 0.000000 0.000000 0.000000
v -0.059246 -0.271653 -0.093350 0.000000 0.000000 0.000000
v -0.059246 -0.195121 -0.169882 0.000000 0.000000 0.000000
v -0.001016 -0.292541 -0.105409 0.000000 0.000000 0.000000
v -0.001016 -0.207180 -0.190770 0.000000 0.000000 0.000000
v 0.061472 -0.211294 -0.197895 0.000000 0.000000 0.000000
v 0.123961 -0.207180 -0.190770 0.000000 0.000000 0.000000
v 0.061472 -0.299666 -0.109523 0.000000 0.000000 0.000000
v 0.061472 -0.332013 0.011196 0.000000 0.000000 0.000000
v 0.123961 -0.292541 -0.105409 0.000000 0.000000 0.000000
v 0.061472 -0.299666 0.131916 0.000000 0.000000 0.000000
v 0.061472 -0.211294 0.220288 0.000000 0.000000 0.000000
v 0.123961 -0.292541 0.127801 0.000000 0.000000 0.000000
v 0.123961 -0.207180 0.213163 0.000000 0.000000 0.000000
v 0.123961 -0.323786 0.011196 0.000000 0.000000 0.000000
v 0.182191 -0.271653 0.115742 0.000000 0.000000 0.000000
v 0.182191 -0.271653 -0.093350 0.000000 0.000000 0.000000
v 0.182191 -0.299666 0.011196 0.000000 0.000000 0.000000
v 0.182191 -0.195121 -0.169882 0.000000 0.000000 0.000000
v 0.232195 -0.238425 -0.074165 0.000000 0.000000 0.000000
v 0.232195 -0.238425 0.096557 0.000000 0.000000 0.000000
v 0.232195 -0.261297 0.011196 0.000000 0.000000 0.000000
v 0.182191 -0.195121 0.192275 0.000000 0.000000 0.000000
v 0.295194 -0.142784 0.101624 0.000000 0.000000 0.000000
v 0.295194 -0.181003 0.063405 0.000000 0.000000 0.000000
v 0.372707 -0.123703 0.068575 0.000000 0.000000 0.000000
v 0.295194 -0.194993 0.011196 0.000000 0.000000 0.000000
v 0.372707 -0.147954 0.044324 0.000000 0.000000 0.000000
v 0.445655 -0.119861 0.028104 0.000000 0.000000 0.000000
v 0.372707 -0.156830 0.011196 0.000000 0.000000 0.000000
v 0.295194 -0.181003 -0.041013 0.000000 0.000000 0.000000
v 0.372707 -0.147954 -0.021932 0.000000 0.000000 0.000000
v 0.445655 -0.119861 -0.005712 0.000000 0.000000 0.000000
v 0.372707 -0.123703 -0.046183 0.000000 0.000000 0.000000
v 0.295194 -0.142784 -0.079232 0.000000 0.000000 0.000000
v 0.445655 -0.107483 -0.018090 0.000000 0.000000 0.000000
v 0.535337 -0.096675 0.000630 0.000000 0.000000 0.000000
v 0.622442 -0.093617 0.005927 0.000000 0.000000 0.000000
v 0.845811 -0.091981 0.008762 0.000000 0.000000 0.000000
v 0.445655 -0.107483 0.040482 0.000000 0.000000 0.000000
v 0.535337 -0.096675 0.021762 0.000000 0.000000 0.000000
v 0.622442 -0.093617 0.016465 0.000000 0.000000 0.000000
v 0.535337 -0.101141 0.017296 0.000000 0.000000 0.000000
v 0.445655 -0.124392 0.011196 0.000000 0.000000 0.000000
v 0.845811 -0.091981 0.013630 0.000000 0.000000 0.000000
v 0.622442 -0.095844 0.014238 0.000000 0.000000 0.000000
v 0.535337 -0.102776 0.011196 0.000000 0.000000 0.000000
v 0.535337 -0.101141 0.005096 0.000000 0.000000 0.000000
v 0.622442 -0.095844 0.008154 0.000000 0.000000 0.000000
v 0.622442 -0.096659 0.011196 0.000000 0.000000 0.000000
v 0.845811 -0.093009 0.009790 0.000000 0.000000 0.000000
v 0.850221 -0.092051 0.010344 0.000000 0.000000 0.000000
v 0.845811 -0.093009 0.012602 0.000000 0.000000 0.000000
v 0.845811 -0.093386 0.011196 0.000000 0.000000 0.000000
v 0.850221 -0.092279 0.011196 0.000000 0.000000 0.000000
v 0.850221 -0.092051 0.012048 0.000000 0.000000 0.000000
v 0.850221 -0.091427 0.012672 0.000000 0.000000 0.000000
v -0.059246 -0.195121 -0.169882 0.000000 0.000000 0.000000
v -0.001016 -0.292541 -0.105409 0.000000 0.000000 0.000000
v -0.109250 -0.175936 -0.136654 0.000000 0.000000 0.000000
v -0.109250 -0.090575 -0.159526 0.000000 0.000000 0.000000
v -0.059246 -0.090575 -0.197895 0.000000 0.000000 0.000000
v -0.109250 -0.005214 -0.136654 0.000000 0.000000 0.000000
v -0.059246 0.013971 -0.169882 0.000000 0.000000 0.000000
v -0.059246 0.090503 -0.093350 0.000000 0.000000 0.000000
v -0.001016 -0.090575 -0.222015 0.000000 0.000000 0.000000
v -0.001016 0.026030 -0.190770 0.000000 0.000000 0.000000
v -0.001016 0.111391 -0.105409 0.000000 0.000000 0.000000
v -0.001016 -0.207180 -0.190770 0.000000 0.000000 0.000000
v 0.061472 -0.090575 -0.230242 0.000000 0.000000 0.000000
v 0.061472 0.030144 -0.197895 0.000000 0.000000 0.000000
v 0.061472 -0.211294 -0.197895 0.000000 0.000000 0.000000
v 0.123961 0.026030 -0.190770 0.000000 0.000000 0.000000
v 0.061472 0.118516 -0.109523 0.000000 0.000000 0.000000
v 0.123961 -0.207180 -0.190770 0.000000 0.000000 0.000000
v 0.061472 -0.299666 -0.109523 0.000000 0.000000 0.000000
v 0.123961 -0.090575 -0.222015 0.000000 0.000000 0.000000
v 0.182191 -0.195121 -0.169882 0.000000 0.000000 0.000000
v 0.295194 -0.181003 -0.041013 0.000000 0.000000 0.000000
v 0.372707 -0.147954 -0.021932 0.000000 0.000000 0.000000
v 0.445655 -0.119861 -0.005712 0.000000 0.000000 0.000000
v 0.372707 -0.123703 -0.046183 0.000000 0.000000 0.000000
v 0.295194 -0.142784 -0.079232 0.000000 0.000000 0.000000
v 0.232195 -0.175936 -0.136654 0.000000 0.000000 0.000000
v 0.295194 -0.090575 -0.093222 0.000000 0.000000 0.000000
v 0.182191 -0.090575 -0.197895 0.000000 0.000000 0.000000
v 0.232195 -0.090575 -0.159526 0.000000 0.000000 0.000000
v 0.232195 -0.005214 -0.136654 0.000000 0.000000 0.000000
v 0.182191 0.013971 -0.169882 0.000000 0.000000 0.000000
v 0.295194 -0.038366 -0.079232 0.000000 0.000000 0.000000
v 0.182191 0.090503 -0.093350 0.000000 0.000000 0.000000
v 0.123961 0.111391 -0.105409 0.000000 0.000000 0.000000
v 0.372707 -0.057448 -0.046183 0.000000 0.000000 0.000000
v 0.372707 -0.090575 -0.055059 0.000000 0.000000 0.000000
v 0.445655 -0.073667 -0.018090 0.000000 0.000000 0.000000
v 0.445655 -0.107483 -0.018090 0.000000 0.000000 0.000000
v 0.445655 -0.090575 -0.022621 0.000000 0.000000 0.000000
v 0.535337 -0.084475 0.000630 0.000000 0.000000 0.000000
v 0.535337 -0.096675 0.000630 0.000000 0.000000 0.000000
v 0.535337 -0.090575 -0.001005 0.000000 0.000000 0.000000
v 0.622442 -0.087533 0.005927 0.000000 0.000000 0.000000
v 0.535337 -0.080009 0.005096 0.000000 0.000000 0.000000
v 0.622442 -0.093617 0.005927 0.000000 0.000000 0.000000
v 0.622442 -0.085306 0.008154 0.000000 0.000000 0.000000
v 0.622442 -0.090575 0.005112 0.000000 0.000000 0.000000
v 0.845811 -0.088141 0.009790 0.000000 0.000000 0.000000
v 0.845811 -0.089170 0.008762 0.000000 0.000000 0.000000
v 0.845811 -0.091981 0.008762 0.000000 0.000000 0.000000
v 0.845811 -0.090575 0.008385 0.000000 0.000000 0.000000
v 0.850221 -0.089723 0.009720 0.000000 0.000000 0.000000
v 0.850221 -0.089099 0.010344 0.000000 0.000000 0.000000
v 0.850221 -0.090575 0.009492 0.000000 0.000000 0.000000
v 0.535337 -0.101141 0.005096 0.000000 0.000000 0.000000
v 0.622442 -0.095844 0.008154 0.000000 0.000000 0.000000
v 0.850221 -0.092051 0.010344 0.000000 0.000000 0.000000
v 0.850221 -0.091427 0.009720 0.000000 0.000000 0.000000
vn 0.5955 -0.5681 0.5681
vn 0.5955 -0.5681 -0.5681
vn 0.5955 -0.5681 -0.5681
vn 0.6877 -0.5916 -0.4207
vn 0.6877 -0.5916 0.4207
vn 0.7249 -0.6888 0.0000
vn 0.5955 -0.5681 0.5681
vn 0.7021 -0.3649 0.6115
vn 0.5954 0.5681 0.5681
vn 0.7249 -0.0000 0.6888
vn 0.6830 0.4089 0.6052
vn 0.7250 -0.0000 0.6888
vn 0.7225 -0.4149 0.5531
vn 0.5954 0.5681 0.5681
vn 0.7249 -0.5965 0.3444
vn 0.7249 -0.6888 0.0000
vn 0.7249 -0.5965 -0.3444
vn 0.7225 -0.4149 -0.5531
vn 0.7021 -0.3649 -0.6115
vn 0.7249 -0.0000 -0.6888
vn 0.7249 0.0000 -0.6888
vn 0.7021 0.3649 -0.6115
vn 0.5955 0.5681 -0.5681
vn 0.7225 0.4149 -0.5531
vn 0.6877 0.5916 -0.4207
vn 0.5955 0.5681 -0.5681
vn 0.7249 0.6888 0.0000
vn 0.7052 0.5944 0.3865
vn 0.7225 0.4149 0.5531
vn 0.7249 0.5965 0.3444
vn 0.7249 0.6888 -0.0000
vn 0.7249 0.5965 -0.3444
vn 1.0000 0.0000 0.0000
vn 1.0000 0.0000 0.0000
vn 1.0000 0.0000 0.0000
vn 1.0000 0.0000 0.0000
vn 1.0000 0.0000 0.0000
vn 1.0000 0.0000 0.0000
vn 1.0000 0.0000 0.0000
vn 1.0000 0.0000 0.0000
vn 1.0000 0.0000 0.0000
vn 1.0000 0.0000 0.0000
vn 1.0000 0.0000 0.0000
vn 1.0000 0.0000 0.0000
vn -0.5954 0.7760 0.2079
vn -0.6088 0.7934 0.0000
vn -0.5954 0.7760 -0.2079
vn -0.5327 0.8463 0.0000
vn -0.4362 0.8280 -0.3524
vn -0.4362 0.8280 0.3524
vn -0.2979 0.9546 -0.0000
vn -0.3715 0.6565 -0.6565
vn -0.2554 0.8962 -0.3628
vn 0.0000 0.9659 -0.2588
vn 0.0000 1.0000 -0.0000
vn 0.4462 0.8644 0.2316
vn 0.4295 0.6386 -0.6386
vn 0.5954 0.7760 -0.2079
vn 0.4462 0.8644 -0.2316
vn 0.2082 0.9448 -0.2532
vn 0.2979 0.9546 0.0000
vn 0.5327 0.8463 0.0000
vn 0.6088 0.7934 0.0000
vn 0.5954 0.7760 0.2079
vn 0.2082 0.9448 0.2532
vn 0.0000 0.9659 0.2588
vn -0.1262 0.7015 0.7015
vn -0.2322 0.8685 0.4379
vn -0.2506 0.6845 0.6845
vn 0.4295 0.6386 0.6386
vn 0.4417 0.7770 0.4486
vn 0.4417 0.8972 0.0000
vn 0.4335 0.8222 0.3690
vn 0.3947 0.6497 0.6497
vn 0.3370 0.8418 0.4218
vn 0.4410 0.7468 -0.4979
vn 0.4212 0.9070 0.0000
vn 0.4287 0.8149 -0.3900
vn 0.4173 0.6426 -0.6426
vn 0.3533 0.8038 -0.4786
vn 0.3057 0.6733 -0.6733
vn 0.1952 0.6935 -0.6935
vn 0.0677 0.7055 -0.7055
vn 0.1871 0.8996 -0.3947
vn 0.3024 0.9532 -0.0000
vn 0.1384 0.9904 -0.0000
vn 0.1871 0.8996 0.3947
vn 0.0431 0.9650 -0.2586
vn 0.0156 0.9658 -0.2588
vn 0.0263 0.9997 -0.0000
vn 0.0431 0.9650 0.2586
vn 0.2355 0.6872 -0.6872
vn 0.2355 0.6872 -0.6872
vn 0.2417 0.8926 -0.3806
vn 0.0219 0.9998 -0.0000
vn 0.2435 0.9699 0.0000
vn 0.0156 0.9658 0.2588
vn 0.2417 0.8926 0.3806
vn 0.0677 0.7055 0.7055
vn 0.2355 0.6872 0.6872
vn 0.2355 0.6872 0.6872
vn 0.1952 0.6935 0.6935
vn 0.3057 0.6733 0.6733
vn -0.4462 -0.2316 0.8644
vn -0.5327 0.0000 0.8463
vn -0.5954 -0.2079 0.7760
vn -0.6088 0.0000 0.7934
vn -0.5954 0.2079 0.7760
vn -0.4373 0.3430 0.8314
vn -0.2979 0.0000 0.9546
vn -0.2082 -0.2532 0.9448
vn -0.1262 -0.7015 0.7015
vn -0.3715 0.6565 0.6565
vn -0.0000 -0.7071 0.7071
vn -0.0000 -0.5000 0.8660
vn 0.1922 -0.3776 0.9058
vn 0.0000 -0.0000 1.0000
vn 0.4462 -0.2316 0.8644
vn 0.2979 -0.0000 0.9546
vn 0.5327 -0.0000 0.8463
vn 0.2372 0.5133 0.8248
vn 0.5954 -0.2079 0.7760
vn 0.4373 0.3430 0.8314
vn 0.6088 0.0000 0.7934
vn 0.5954 0.2079 0.7760
vn 0.4417 0.0000 0.8972
vn 0.4295 -0.2337 0.8723
vn 0.3715 0.6565 0.6565
vn 0.4295 -0.6386 0.6386
vn 0.4287 -0.3900 0.8149
vn 0.4128 -0.6440 0.6440
vn 0.3947 -0.6497 0.6497
vn 0.2506 0.6846 0.6845
vn 0.0414 0.7065 0.7065
vn 0.0000 0.5000 0.8660
vn -0.1262 0.7015 0.7015
vn -0.2517 0.3540 0.9007
vn 0.4411 0.4015 0.8027
vn 0.4128 0.6440 0.6440
vn 0.4287 0.3900 0.8149
vn 0.4212 0.0000 0.9070
vn 0.3947 0.6497 0.6497
vn 0.0677 0.7055 0.7055
vn 0.0292 0.7068 0.7068
vn 0.0156 0.7069 0.7071
vn 0.2356 0.6869 0.6875
vn 0.2435 -0.0000 0.9699
vn 0.0362 0.4811 0.8759
vn 0.0167 0.3768 0.9261
vn 0.2356 0.2516 0.9387
vn 0.0219 -0.0000 0.9998
vn 0.0263 -0.0000 0.9997
vn 0.1952 0.2539 0.9473
vn 0.1384 -0.0000 0.9904
vn 0.3485 0.2426 0.9054
vn 0.3024 0.0000 0.9532
vn 0.3485 -0.2426 0.9054
vn 0.1952 -0.2539 0.9473
vn 0.0389 -0.4480 0.8932
vn 0.0677 -0.7055 0.7055
vn 0.0155 -0.4551 0.8903
vn 0.0292 -0.7068 0.7068
vn 0.2356 -0.6872 0.6872
vn 0.2356 -0.6872 0.6872
vn 0.2418 -0.3806 0.8926
vn -0.5955 -0.5681 0.5681
vn -0.7356 -0.3985 0.5478
vn -0.7110 -0.5404 0.4499
vn -0.7934 -0.0000 0.6088
vn -0.8506 -0.2629 0.4553
vn -0.7356 0.3985 0.5478
vn -0.8660 -0.0000 0.5000
vn -0.8446 0.2614 0.4673
vn -0.5955 0.5681 0.5681
vn -0.7110 0.5404 0.4499
vn -0.9472 -0.0000 0.3206
vn -0.9659 -0.1294 0.2241
vn -0.9534 -0.2428 0.1790
vn -1.0000 0.0000 0.0000
vn -0.8549 -0.4714 0.2165
vn -0.5955 -0.5681 0.5681
vn -0.9472 -0.3206 -0.0000
vn -0.8660 -0.5000 -0.0000
vn -0.7934 -0.6088 -0.0000
vn -0.8549 -0.4714 -0.2165
vn -0.7110 -0.5404 -0.4499
vn -0.5955 -0.5681 -0.5681
vn -0.9534 -0.2428 -0.1790
vn -0.8506 -0.2629 -0.4553
vn -0.5955 -0.5681 -0.5681
vn -0.9659 -0.1294 -0.2241
vn -0.9472 -0.0000 -0.3206
vn -0.8660 -0.0000 -0.5000
vn -0.7356 -0.3985 -0.5478
vn -0.7934 0.0000 -0.6088
vn -0.8549 0.2165 -0.4714
vn -0.9534 0.1790 -0.2428
vn -0.7456 0.4070 -0.5276
vn -0.8506 0.4553 -0.2629
vn -0.9659 0.2241 -0.1294
vn -0.9472 0.3206 0.0000
vn -0.9659 0.2241 0.1294
vn -0.8660 0.5000 -0.0000
vn -0.9534 0.1790 0.2428
vn -0.8616 0.4565 0.2220
vn -0.7933 0.6088 -0.0000
vn -0.6977 0.5567 -0.4509
vn -0.5955 0.5681 -0.5681
vn -0.5955 0.5681 -0.5681
vn -0.5955 0.5681 0.5681
vn -0.3715 -0.6565 0.6565
vn -0.5954 -0.7760 0.2079
vn -0.2506 -0.6846 0.6845
vn -0.2558 -0.8417 0.4755
vn -0.4373 -0.8314 0.3430
vn -0.6088 -0.7934 0.0000
vn -0.5327 -0.8463 -0.0000
vn -0.2979 -0.9546 0.0000
vn -0.5954 -0.7760 -0.2079
vn -0.4373 -0.8314 -0.3430
vn -0.3715 -0.6565 -0.6565
vn -0.2558 -0.8417 -0.4755
vn -0.2506 -0.6846 -0.6846
vn -0.1262 -0.7015 -0.7015
vn 0.2886 -0.6770 -0.6770
vn 0.0427 -0.9080 -0.4169
vn -0.0000 -1.0000 -0.0000
vn 0.2322 -0.8685 -0.4379
vn 0.0427 -0.9080 0.4169
vn -0.1262 -0.7015 0.7015
vn 0.2322 -0.8685 0.4379
vn 0.2886 -0.6770 0.6770
vn 0.2979 -0.9546 0.0000
vn 0.4278 -0.8024 0.4161
vn 0.4278 -0.8024 -0.4161
vn 0.5327 -0.8463 0.0000
vn 0.3715 -0.6565 -0.6565
vn 0.5954 -0.7760 -0.2079
vn 0.5954 -0.7760 0.2079
vn 0.6088 -0.7934 0.0000
vn 0.3715 -0.6565 0.6565
vn 0.4295 -0.6386 0.6386
vn 0.4417 -0.7770 0.4486
vn 0.4215 -0.6412 0.6412
vn 0.4417 -0.8972 0.0000
vn 0.4203 -0.8765 0.2348
vn 0.3370 -0.8418 0.4218
vn 0.4212 -0.9070 -0.0000
vn 0.4417 -0.7770 -0.4486
vn 0.4203 -0.8765 -0.2348
vn 0.3370 -0.8418 -0.4218
vn 0.4215 -0.6412 -0.6412
vn 0.4295 -0.6386 -0.6386
vn 0.3057 -0.6733 -0.6733
vn 0.1952 -0.6935 -0.6935
vn 0.0677 -0.7055 -0.7055
vn 0.0186 -0.7070 -0.7070
vn 0.3057 -0.6733 0.6733
vn 0.1952 -0.6935 0.6935
vn 0.0677 -0.7055 0.7055
vn 0.1871 -0.8996 0.3947
vn 0.3024 -0.9532 0.0000
vn 0.0186 -0.7070 0.7070
vn 0.0388 -0.9382 0.3439
vn 0.1384 -0.9904 0.0000
vn 0.1871 -0.8996 -0.3947
vn 0.0388 -0.9382 -0.3439
vn 0.0263 -0.9997 0.0000
vn 0.0167 -0.9261 -0.3768
vn 0.2430 -0.8687 -0.4317
vn 0.0167 -0.9261 0.3768
vn 0.0219 -0.9998 0.0000
vn 0.2435 -0.9699 -0.0000
vn 0.2356 -0.9387 0.2515
vn 0.2356 -0.6872 0.6872
vn -0.4462 -0.2316 -0.8644
vn -0.1262 -0.7015 -0.7015
vn -0.5954 -0.2079 -0.7760
vn -0.6088 0.0000 -0.7934
vn -0.5327 0.0000 -0.8463
vn -0.5954 0.2079 -0.7760
vn -0.4373 0.3430 -0.8314
vn -0.3715 0.6565 -0.6565
vn -0.2979 0.0000 -0.9546
vn -0.2289 0.4326 -0.8720
vn -0.1262 0.7015 -0.7015
vn -0.2082 -0.2532 -0.9448
vn -0.0000 0.0000 -1.0000
vn -0.0256 0.5442 -0.8386
vn 0.0000 -0.5000 -0.8660
vn 0.2372 0.5133 -0.8248
vn 0.0414 0.7065 -0.7065
vn 0.1922 -0.3776 -0.9058
vn 0.0000 -0.7071 -0.7071
vn 0.2979 0.0000 -0.9546
vn 0.4462 -0.2316 -0.8644
vn 0.4295 -0.6386 -0.6386
vn 0.4128 -0.6440 -0.6440
vn 0.3947 -0.6497 -0.6497
vn 0.4287 -0.3900 -0.8149
vn 0.4295 -0.2337 -0.8723
vn 0.5954 -0.2079 -0.7760
vn 0.4417 -0.0000 -0.8972
vn 0.5327 -0.0000 -0.8463
vn 0.6088 0.0000 -0.7934
vn 0.5954 0.2079 -0.7760
vn 0.4373 0.3430 -0.8314
vn 0.4295 0.2337 -0.8723
vn 0.3715 0.6565 -0.6565
vn 0.2506 0.6846 -0.6846
vn 0.4203 0.2348 -0.8765
vn 0.4212 0.0000 -0.9070
vn 0.3485 0.2426 -0.9054
vn 0.3485 -0.2426 -0.9054
vn 0.3024 0.0000 -0.9532
vn 0.1952 0.2539 -0.9473
vn 0.1952 -0.2539 -0.9473
vn 0.1384 -0.0000 -0.9904
vn 0.0362 0.4811 -0.8759
vn 0.0677 0.7055 -0.7055
vn 0.0389 -0.4480 -0.8932
vn 0.0292 0.7068 -0.7068
vn 0.0263 0.0000 -0.9997
vn 0.0156 0.7069 -0.7071
vn 0.0167 0.3768 -0.9261
vn 0.0160 -0.4557 -0.8900
vn 0.0219 0.0000 -0.9998
vn 0.2356 0.2516 -0.9387
vn 0.2356 0.6869 -0.6875
vn 0.2435 0.0000 -0.9699
vn 0.0677 -0.7055 -0.7055
vn 0.0292 -0.7068 -0.7068
vn 0.2356 -0.6872 -0.6872
vn 0.2418 -0.3806 -0.8926
vt 0.439513 0.370931
vt 0.458646 0.390064
vt 0.434717 0.379238
vt 0.392036 0.379238
vt 0.368107 0.390064
vt 0.387240 0.370931
vt 0.376414 0.394860
vt 0.387272 0.416200
vt 0.370696 0.416200
vt 0.376414 0.437540
vt 0.390770 0.403148
vt 0.387240 0.461470
vt 0.368107 0.442336
vt 0.400324 0.393593
vt 0.413377 0.390096
vt 0.413377 0.373520
vt 0.426429 0.393593
vt 0.435984 0.403148
vt 0.450339 0.394860
vt 0.439481 0.416200
vt 0.456057 0.416200
vt 0.450339 0.437540
vt 0.435984 0.429252
vt 0.458646 0.442337
vt 0.434717 0.453163
vt 0.439513 0.461470
vt 0.392036 0.453163
vt 0.390770 0.429252
vt 0.400324 0.438807
vt 0.413377 0.442305
vt 0.413377 0.458881
vt 0.426429 0.438807
vt 0.413590 0.416569
vt 0.413803 0.416200
vt 0.413746 0.416413
vt 0.413377 0.416626
vt 0.412951 0.416200
vt 0.413164 0.416569
vt 0.413008 0.416413
vt 0.413746 0.415987
vt 0.413377 0.415774
vt 0.413590 0.415831
vt 0.413008 0.415987
vt 0.413164 0.415831
vt 0.524471 0.416200
vt 0.524471 0.437540
vt 0.511970 0.416200
vt 0.524471 0.394860
vt 0.511970 0.390064
vt 0.511970 0.442337
vt 0.497413 0.416200
vt 0.497413 0.387049
vt 0.497413 0.365709
vt 0.481791 0.416200
vt 0.481791 0.386020
vt 0.466168 0.387049
vt 0.466168 0.416200
vt 0.451611 0.390064
vt 0.451611 0.416200
vt 0.439110 0.394860
vt 0.439110 0.416200
vt 0.451611 0.442337
vt 0.439110 0.437540
vt 0.466168 0.445351
vt 0.481791 0.446380
vt 0.497413 0.445351
vt 0.481791 0.468473
vt 0.497413 0.466692
vt 0.423360 0.438807
vt 0.403982 0.424482
vt 0.423360 0.429252
vt 0.423360 0.416200
vt 0.403982 0.416200
vt 0.385745 0.420427
vt 0.403982 0.407918
vt 0.423360 0.403148
vt 0.403982 0.401855
vt 0.423360 0.393593
vt 0.385745 0.411973
vt 0.385745 0.408879
vt 0.363324 0.413559
vt 0.363324 0.414675
vt 0.341548 0.414883
vt 0.385745 0.416200
vt 0.363324 0.416200
vt 0.363324 0.417725
vt 0.341548 0.415440
vt 0.341548 0.416200
vt 0.285706 0.415849
vt 0.341548 0.416961
vt 0.285706 0.415592
vt 0.284603 0.415987
vt 0.284603 0.415831
vt 0.285706 0.416200
vt 0.284603 0.416200
vt 0.285706 0.416552
vt 0.284603 0.416413
vt 0.285706 0.416809
vt 0.284603 0.416569
vt 0.363324 0.418842
vt 0.341548 0.417517
vt 0.385745 0.423522
vt 0.403982 0.430545
vt 0.314783 0.390064
vt 0.314783 0.416200
vt 0.302282 0.394860
vt 0.302282 0.416200
vt 0.302282 0.437540
vt 0.314783 0.442337
vt 0.329341 0.416200
vt 0.329341 0.387049
vt 0.329341 0.365709
vt 0.344963 0.363927
vt 0.344963 0.386020
vt 0.360585 0.387049
vt 0.344963 0.416200
vt 0.375142 0.390064
vt 0.360585 0.416200
vt 0.375142 0.416200
vt 0.360585 0.445351
vt 0.387643 0.394860
vt 0.375142 0.442336
vt 0.387643 0.416200
vt 0.387643 0.437540
vt 0.375142 0.461470
vt 0.422771 0.407918
vt 0.403393 0.416200
vt 0.403393 0.403148
vt 0.403393 0.393593
vt 0.422771 0.401855
vt 0.441008 0.408879
vt 0.360585 0.466692
vt 0.344963 0.468473
vt 0.344963 0.446380
vt 0.329341 0.466692
vt 0.329341 0.445351
vt 0.314783 0.461470
vt 0.422771 0.424482
vt 0.403393 0.429252
vt 0.422771 0.430545
vt 0.422771 0.416200
vt 0.441008 0.423522
vt 0.485205 0.416961
vt 0.541047 0.416809
vt 0.485205 0.417517
vt 0.463429 0.418842
vt 0.541047 0.416551
vt 0.542150 0.416569
vt 0.541047 0.416200
vt 0.542150 0.416413
vt 0.542150 0.416200
vt 0.485205 0.416200
vt 0.463429 0.416200
vt 0.463429 0.417725
vt 0.441008 0.420427
vt 0.441008 0.416200
vt 0.441008 0.411973
vt 0.463429 0.414675
vt 0.485205 0.415440
vt 0.541047 0.415849
vt 0.463429 0.413559
vt 0.485205 0.414883
vt 0.542150 0.415987
vt 0.541047 0.415592
vt 0.542150 0.415831
vt 0.439513 0.401110
vt 0.443556 0.416200
vt 0.439513 0.431290
vt 0.428999 0.416200
vt 0.426906 0.408389
vt 0.421188 0.402671
vt 0.413377 0.416200
vt 0.428466 0.390064
vt 0.413377 0.400578
vt 0.413377 0.386020
vt 0.398287 0.390064
vt 0.405566 0.402671
vt 0.387240 0.401110
vt 0.399847 0.408389
vt 0.397754 0.416200
vt 0.383197 0.416200
vt 0.387240 0.431290
vt 0.399847 0.424011
vt 0.398287 0.442337
vt 0.405566 0.429729
vt 0.413377 0.431822
vt 0.421188 0.429729
vt 0.413377 0.446380
vt 0.426906 0.424011
vt 0.428466 0.442337
vt 0.368107 0.442337
vt 0.314783 0.370931
vt 0.360585 0.365709
vt 0.375142 0.442337
vt 0.375142 0.370931
vt 0.403393 0.438807
vt 0.541047 0.416552
vt 0.511970 0.461470
vt 0.481791 0.363927
vt 0.451611 0.461470
vt 0.466168 0.466692
vt 0.285706 0.416551
s 1
s 1
f 2/1/2 3/2/3 4/3/4
f 5/4/5 7/5/7 1/6/1
f 7/5/7 5/4/5 8/7/8
f 8/7/8 12/8/12 10/9/10
f 12/8/12 11/10/11 10/9/10
f 5/4/5 13/11/13 8/7/8
f 12/8/12 8/7/8 13/11/13
f 11/10/11 14/12/14 9/13/9
f 13/11/13 5/4/5 15/14/15
f 5/4/5 16/15/16 15/14/15
f 16/15/16 5/4/5 6/16/6
f 4/3/4 16/15/16 6/16/6
f 16/15/16 4/3/4 17/17/17
f 18/18/18 17/17/17 4/3/4
f 4/3/4 19/19/19 18/18/18
f 4/3/4 3/2/3 19/19/19
f 19/19/19 20/20/20 18/18/18
f 19/19/19 21/21/21 20/20/20
f 22/22/22 20/20/20 21/21/21
f 20/20/20 22/22/22 24/23/24
f 23/24/23 25/25/25 22/22/22
f 25/25/25 24/23/24 22/22/22
f 25/25/25 23/24/23 26/26/26
f 14/12/14 11/10/11 28/27/28
f 29/28/29 28/27/28 11/10/11
f 11/10/11 12/8/12 29/28/29
f 28/27/28 29/28/29 30/29/30
f 31/30/31 28/27/28 30/29/30
f 28/27/28 31/30/31 27/31/27
f 25/25/25 27/31/27 31/30/31
f 31/30/31 32/32/32 25/25/25
f 24/23/24 25/25/25 32/32/32
f 34/33/34 35/34/35 33/35/33
f 36/36/36 35/34/35 34/33/34
f 36/36/36 38/37/38 35/34/35
f 38/37/38 36/36/36 37/38/37
f 38/37/38 37/38/37 39/39/39
f 41/40/41 42/41/42 40/42/40
f 35/34/35 42/41/42 41/40/41
f 35/34/35 38/37/38 42/41/42
f 42/41/42 44/43/44 43/44/43
f 44/43/44 42/41/42 38/37/38
f 46/45/46 45/46/45 48/47/48
f 48/47/48 47/48/47 46/45/46
f 47/48/47 48/47/48 49/49/49
f 50/50/50 48/47/48 45/46/45
f 51/51/51 49/49/49 48/47/48
f 50/50/50 51/51/51 48/47/48
f 49/49/49 51/51/51 53/52/53
f 49/49/49 53/52/53 52/53/52
f 53/52/53 55/54/55 54/55/54
f 55/54/55 53/52/53 51/51/51
f 54/55/54 55/54/55 60/56/60
f 60/56/60 61/57/61 59/58/59
f 60/56/60 55/54/55 61/57/61
f 59/58/59 61/57/61 62/59/62
f 59/58/59 62/59/62 58/60/58
f 58/60/58 62/59/62 63/61/63
f 61/57/61 56/62/56 62/59/62
f 62/59/62 64/63/64 63/61/63
f 64/63/64 62/59/62 56/62/56
f 56/62/56 61/57/61 65/64/65
f 55/54/55 65/64/65 61/57/61
f 65/64/65 55/54/55 66/65/66
f 55/54/55 68/66/68 66/65/66
f 68/66/68 55/54/55 51/51/51
f 51/51/51 50/50/50 68/66/68
f 67/67/67 68/66/68 69/68/69
f 50/50/50 69/68/69 68/66/68
f 70/69/70 73/70/73 71/71/71
f 71/71/71 73/70/73 72/72/72
f 77/73/77 72/72/72 73/70/73
f 73/70/73 75/74/75 77/73/77
f 72/72/72 78/75/78 76/76/76
f 78/75/78 72/72/72 77/73/77
f 76/76/76 79/77/79 57/78/57
f 79/77/79 76/76/76 78/75/78
f 77/73/77 80/79/80 78/75/78
f 80/79/80 79/77/79 78/75/78
f 81/80/81 79/77/79 80/79/80
f 80/79/80 82/81/82 81/80/81
f 82/81/82 80/79/80 84/82/84
f 84/82/84 83/83/83 82/81/82
f 85/84/85 84/82/84 80/79/80
f 80/79/80 77/73/77 85/84/85
f 85/84/85 77/73/77 75/74/75
f 84/82/84 85/84/85 86/85/86
f 75/74/75 87/86/87 85/84/85
f 86/85/86 85/84/85 87/86/87
f 86/85/86 88/87/88 84/82/84
f 88/87/88 86/85/86 90/88/90
f 90/88/90 89/89/89 88/87/88
f 90/88/90 86/85/86 91/90/91
f 87/86/87 91/90/91 86/85/86
f 92/91/92 94/92/94 93/93/93
f 95/94/95 94/92/94 89/89/89
f 89/89/89 90/88/90 95/94/95
f 94/92/94 95/94/95 96/95/96
f 95/94/95 90/88/90 97/96/97
f 91/90/91 97/96/97 90/88/90
f 96/95/96 95/94/95 98/97/98
f 97/96/97 98/97/98 95/94/95
f 98/97/98 100/98/100 101/99/101
f 102/100/102 99/101/99 87/86/87
f 87/86/87 75/74/75 102/100/102
f 103/102/103 102/100/102 75/74/75
f 75/74/75 74/103/74 103/102/103
f 104/104/104 105/105/105 106/106/106
f 106/106/106 105/105/105 107/107/107
f 105/105/105 108/108/108 107/107/107
f 108/108/108 105/105/105 109/109/109
f 110/110/110 109/109/109 105/105/105
f 104/104/104 110/110/110 105/105/105
f 111/111/111 110/110/110 104/104/104
f 112/112/112 114/113/114 115/114/115
f 114/113/114 116/115/116 115/114/115
f 115/114/115 117/116/117 111/111/111
f 116/115/116 117/116/117 115/114/115
f 111/111/111 117/116/117 110/110/110
f 118/117/118 119/118/119 116/115/116
f 117/116/117 116/115/116 119/118/119
f 119/118/119 118/117/118 120/119/120
f 119/118/119 121/120/121 117/116/117
f 122/121/122 120/119/120 118/117/118
f 119/118/119 120/119/120 123/122/123
f 119/118/119 123/122/123 121/120/121
f 120/119/120 122/121/122 124/123/124
f 120/119/120 125/124/125 123/122/123
f 120/119/120 124/123/124 125/124/125
f 121/120/121 123/122/123 128/125/128
f 130/126/130 126/127/126 127/128/127
f 130/126/130 129/129/129 131/130/131
f 132/131/132 130/126/130 131/130/131
f 121/120/121 128/125/128 133/132/133
f 134/133/134 121/120/121 133/132/133
f 121/120/121 134/133/134 135/134/135
f 117/116/117 121/120/121 135/134/135
f 136/135/136 135/134/135 134/133/134
f 137/136/137 117/116/117 135/134/135
f 117/116/117 137/136/137 110/110/110
f 137/136/137 113/137/113 109/109/109
f 109/109/109 110/110/110 137/136/137
f 126/127/126 140/138/140 138/139/138
f 139/140/139 138/139/138 140/138/140
f 140/138/140 126/127/126 141/141/141
f 126/127/126 130/126/130 141/141/141
f 140/138/140 142/142/142 139/140/139
f 148/143/148 145/144/145 144/145/144
f 144/145/144 143/146/143 148/143/148
f 149/147/149 146/148/146 145/144/145
f 145/144/145 148/143/148 149/147/149
f 151/149/151 150/150/150 149/147/149
f 150/150/150 151/149/151 147/151/147
f 152/152/152 149/147/149 148/143/148
f 149/147/149 152/152/152 151/149/151
f 148/143/148 154/153/154 152/152/152
f 154/153/154 148/143/148 153/154/153
f 141/141/141 155/155/155 140/138/140
f 156/156/156 153/154/153 155/155/155
f 155/155/155 141/141/141 156/156/156
f 153/154/153 156/156/156 154/153/154
f 141/141/141 157/157/157 156/156/156
f 157/157/157 141/141/141 130/126/130
f 158/158/158 156/156/156 157/157/157
f 156/156/156 158/158/158 154/153/154
f 159/159/159 154/153/154 158/158/158
f 154/153/154 159/159/159 152/152/152
f 161/160/161 152/152/152 159/159/159
f 152/152/152 161/160/161 151/149/151
f 159/159/159 160/161/160 162/162/162
f 162/162/162 161/160/161 159/159/159
f 165/163/165 163/164/163 164/165/164
f 151/149/151 165/163/165 147/151/147
f 165/163/165 151/149/151 161/160/161
f 168/3/168 166/2/166 167/19/167
f 170/166/170 168/3/168 167/19/167
f 169/21/169 170/166/170 167/19/167
f 170/166/170 169/21/169 172/167/172
f 173/168/173 169/21/169 171/22/171
f 169/21/169 173/168/173 172/167/172
f 171/22/171 175/25/175 173/168/173
f 174/24/174 175/25/175 171/22/171
f 173/168/173 176/169/176 172/167/172
f 176/169/176 170/166/170 172/167/172
f 170/166/170 176/169/176 177/170/177
f 170/166/170 177/170/177 178/171/178
f 176/169/176 179/172/179 177/170/177
f 177/170/177 179/172/179 178/171/178
f 180/173/180 170/166/170 178/171/178
f 168/3/168 170/166/170 180/173/180
f 181/1/181 166/2/166 168/3/168
f 180/173/180 178/171/178 182/174/182
f 178/171/178 179/172/179 182/174/182
f 182/174/182 183/175/183 180/173/180
f 180/173/180 184/16/184 168/3/168
f 184/16/184 180/173/180 183/175/183
f 182/174/182 185/176/185 183/175/183
f 185/176/185 184/16/184 183/175/183
f 184/16/184 185/176/185 186/4/186
f 185/176/185 182/174/182 188/177/188
f 182/174/182 179/172/179 188/177/188
f 189/178/189 186/4/186 185/176/185
f 188/177/188 189/178/189 185/176/185
f 186/4/186 190/5/190 187/6/187
f 188/177/188 179/172/179 191/179/191
f 189/178/189 188/177/188 191/179/191
f 191/179/191 179/172/179 192/180/192
f 192/180/192 189/178/189 191/179/191
f 193/181/193 189/178/189 192/180/192
f 186/4/186 189/178/189 194/7/194
f 190/5/190 186/4/186 194/7/194
f 195/9/195 189/178/189 193/181/193
f 189/178/189 195/9/195 194/7/194
f 192/180/192 196/182/196 193/181/193
f 195/9/195 193/181/193 196/182/196
f 196/182/196 192/180/192 197/183/197
f 192/180/192 179/172/179 197/183/197
f 198/10/198 195/9/195 196/182/196
f 197/183/197 199/184/199 196/182/196
f 199/184/199 198/10/198 196/182/196
f 197/183/197 179/172/179 200/185/200
f 199/184/199 197/183/197 200/185/200
f 200/185/200 179/172/179 201/186/201
f 201/186/201 199/184/199 200/185/200
f 201/186/201 179/172/179 202/187/202
f 199/184/199 201/186/201 203/188/203
f 202/187/202 179/172/179 204/189/204
f 204/189/204 179/172/179 176/169/176
f 176/169/176 173/168/173 204/189/204
f 205/190/205 202/187/202 204/189/204
f 205/190/205 201/186/201 202/187/202
f 204/189/204 173/168/173 205/190/205
f 201/186/201 205/190/205 203/188/203
f 175/25/175 205/190/205 173/168/173
f 205/190/205 206/31/206 203/188/203
f 175/25/175 206/31/206 205/190/205
f 206/31/206 199/184/199 203/188/203
f 199/184/199 206/31/206 207/27/207
f 198/10/198 199/184/199 207/27/207
f 207/27/207 208/191/208 198/10/198
f 208/191/208 207/27/207 209/12/209
f 175/25/175 174/24/174 210/26/210
f 211/137/211 214/136/214 213/135/213
f 214/136/214 211/137/211 215/109/215
f 212/108/212 217/105/217 215/109/215
f 217/105/217 212/108/212 216/107/216
f 218/110/218 215/109/215 217/105/217
f 215/109/215 218/110/218 214/136/214
f 219/106/219 217/105/217 216/107/216
f 220/104/220 218/110/218 217/105/217
f 220/104/220 217/105/217 219/106/219
f 222/111/222 218/110/218 220/104/220
f 221/192/221 222/111/222 220/104/220
f 221/192/221 223/112/223 222/111/222
f 224/113/224 222/111/222 223/112/223
f 226/114/226 227/116/227 222/111/222
f 222/111/222 227/116/227 218/110/218
f 227/116/227 214/136/214 218/110/218
f 228/115/228 227/116/227 226/114/226
f 226/114/226 225/193/225 228/115/228
f 214/136/214 227/116/227 229/134/229
f 214/136/214 230/133/230 213/135/213
f 227/116/227 231/120/231 229/134/229
f 229/134/229 231/120/231 232/132/232
f 233/118/233 231/120/231 227/116/227
f 227/116/227 228/115/228 233/118/233
f 234/194/234 232/132/232 231/120/231
f 233/118/233 234/194/234 231/120/231
f 235/117/235 233/118/233 228/115/228
f 225/193/225 235/117/235 228/115/228
f 233/118/233 236/119/236 234/194/234
f 233/118/233 235/117/235 236/119/236
f 225/193/225 237/195/237 235/117/235
f 238/121/238 236/119/236 235/117/235
f 236/119/236 239/124/239 234/194/234
f 236/119/236 240/123/240 239/124/239
f 236/119/236 238/121/238 240/123/240
f 232/132/232 234/194/234 241/125/241
f 243/139/243 244/140/244 242/196/242
f 245/127/245 246/138/246 243/139/243
f 246/138/246 245/127/245 248/141/248
f 248/141/248 247/155/247 246/138/246
f 245/127/245 250/126/250 248/141/248
f 250/126/250 245/127/245 249/128/249
f 251/157/251 248/141/248 250/126/250
f 252/130/252 249/128/249 253/129/253
f 251/157/251 252/130/252 254/131/254
f 255/161/255 251/157/251 254/131/254
f 258/142/258 244/140/244 247/155/247
f 247/155/247 259/146/259 258/142/258
f 259/146/259 247/155/247 261/154/261
f 261/154/261 260/145/260 259/146/259
f 262/156/262 261/154/261 247/155/247
f 247/155/247 248/141/248 262/156/262
f 248/141/248 251/157/251 262/156/262
f 261/154/261 262/156/262 265/153/265
f 265/153/265 264/143/264 261/154/261
f 266/158/266 262/156/262 251/157/251
f 262/156/262 266/158/266 265/153/265
f 266/158/266 251/157/251 255/161/255
f 256/162/256 266/158/266 255/161/255
f 267/159/267 265/153/265 266/158/266
f 264/143/264 265/153/265 268/152/268
f 265/153/265 267/159/267 268/152/268
f 269/160/269 267/159/267 257/164/257
f 269/160/269 268/152/268 267/159/267
f 257/164/257 270/163/270 269/160/269
f 268/152/268 271/197/271 264/143/264
f 263/144/263 264/143/264 271/197/271
f 268/152/268 269/160/269 272/149/272
f 270/163/270 272/149/272 269/160/269
f 271/197/271 268/152/268 272/149/272
f 272/149/272 270/163/270 273/151/273
f 272/149/272 274/150/274 271/197/271
f 274/150/274 272/149/272 273/151/273
f 271/197/271 275/148/275 263/144/263
f 280/47/280 278/48/278 279/45/279
f 278/48/278 280/47/280 276/49/276
f 281/46/281 280/47/280 279/45/279
f 282/50/282 280/47/280 281/46/281
f 282/50/282 284/51/284 280/47/280
f 284/51/284 276/49/276 280/47/280
f 283/198/283 285/66/285 282/50/282
f 285/66/285 284/51/284 282/50/282
f 276/49/276 284/51/284 287/52/287
f 285/66/285 288/54/288 284/51/284
f 288/54/288 287/52/287 284/51/284
f 286/68/286 289/65/289 285/66/285
f 289/65/289 288/54/288 285/66/285
f 287/52/287 288/54/288 290/55/290
f 291/64/291 288/54/288 289/65/289
f 286/68/286 292/67/292 289/65/289
f 289/65/289 292/67/292 291/64/291
f 288/54/288 293/56/293 290/55/290
f 277/53/277 290/55/290 294/199/294
f 293/56/293 294/199/294 290/55/290
f 295/57/295 293/56/293 288/54/288
f 295/57/295 296/58/296 293/56/293
f 297/78/297 300/75/300 298/77/298
f 300/75/300 299/80/299 298/77/298
f 303/72/303 300/75/300 301/76/301
f 304/59/304 302/60/302 296/58/296
f 295/57/295 304/59/304 296/58/296
f 304/59/304 305/61/305 302/60/302
f 304/59/304 306/63/306 305/61/305
f 306/63/306 304/59/304 307/62/307
f 295/57/295 307/62/307 304/59/304
f 307/62/307 295/57/295 291/64/291
f 288/54/288 291/64/291 295/57/295
f 291/64/291 309/200/309 307/62/307
f 309/200/309 291/64/291 310/201/310
f 291/64/291 292/67/292 310/201/310
f 311/70/311 303/72/303 308/71/308
f 303/72/303 311/70/311 312/73/312
f 300/75/300 303/72/303 312/73/312
f 313/74/313 312/73/312 311/70/311
f 312/73/312 314/79/314 300/75/300
f 312/73/312 313/74/313 315/84/315
f 314/79/314 312/73/312 315/84/315
f 316/86/316 315/84/315 313/74/313
f 315/84/315 317/82/317 314/79/314
f 315/84/315 316/86/316 318/85/318
f 317/82/317 315/84/315 318/85/318
f 319/90/319 318/85/318 316/86/316
f 318/85/318 321/87/321 317/82/317
f 319/90/319 320/100/320 322/101/322
f 318/85/318 319/90/319 323/88/323
f 321/87/321 318/85/318 323/88/323
f 324/98/324 319/90/319 322/101/322
f 325/202/325 323/88/323 319/90/319
f 325/202/325 319/90/319 324/98/324
f 323/88/323 326/89/326 321/87/321
f 323/88/323 325/202/325 327/94/327
f 326/89/326 323/88/323 327/94/327
f 328/97/328 327/94/327 325/202/325
f 329/99/329 325/202/325 324/98/324
f 327/94/327 328/97/328 330/95/330
f 332/83/332 331/81/331 321/87/321
f 326/89/326 332/83/332 321/87/321
f 333/93/333 326/89/326 334/92/334
f 327/94/327 334/92/334 326/89/326
f 334/92/334 327/94/327 330/95/330
